STARTFONT 2.1
COMMENT 
COMMENT k20m.bdf, a part of Kappa 20dot Fonts Version 0.396 (2003/10/06).
COMMENT 
COMMENT Designed by KANOU Hiroki (kanou@khdd.net), designs of non-kanji
COMMENT are based on design in k20b by NAGAO Sadakazu (snagao@tkb.att.ne.jp)
COMMENT and modified by KANOU, and finally proofreaded and corrected by NAGAO.
COMMENT For more information, see http://khdd.net/20dot.fonts/
COMMENT 
COMMENT THIS FONT IS PUBLIC DOMAIN: YOU CAN USE, COPY, MODIFY, EVEN COPYRIGHT
COMMENT AS YOURS AND SELL THIS FONT, BUT YOU CAN'T PROHIBIT ANYONE FROM FREE
COMMENT CIRCULATION OF THIS FONT AND ITS DESCENDANTS INDEPENDENT OF YOUR
COMMENT VARIATIONS AND/OR DERIVATIONS. SEE `README' (IN JAPANESE) FOR DETAILS.
COMMENT 
FONT -Kappa-Mincho-Medium-R-Normal--20-190-75-75-C-200-JISX0208.1990-0
SIZE 19 75 75
FONTBOUNDINGBOX 20 20 0 -3
STARTPROPERTIES 19
FONT_ASCENT 17
FONT_DESCENT 3
COPYRIGHT "public domain"
DEFAULT_CHAR 8481
FONTNAME_REGISTRY ""
FOUNDRY "Kappa"
FAMILY_NAME "Mincho"
WEIGHT_NAME "Medium"
SLANT "R"
SETWIDTH_NAME "Normal"
ADD_STYLE_NAME ""
PIXEL_SIZE 20
POINT_SIZE 190
RESOLUTION_X 75
RESOLUTION_Y 75
SPACING "C"
AVERAGE_WIDTH 200
CHARSET_REGISTRY "JISX0208.1990"
CHARSET_ENCODING "0"
ENDPROPERTIES
CHARS 6879
STARTCHAR 01-01
ENCODING 8481
SWIDTH 1010 0
DWIDTH 20 0
BBX 20 20 0 -3
BITMAP
000000
000000
000000
000000
000000
000000
000000
000000
000000
000000
000000
000000
000000
000000
000000
000000
000000
000000
000000
000000
ENDCHAR
STARTCHAR 01-02
ENCODING 8482
SWIDTH 1010 0
DWIDTH 20 0
BBX 20 20 0 -3
BITMAP
000000
000000
000000
000000
000000
000000
000000
000000
000000
000000
000000
000000
000000
000000
600000
100000
080000
0c0000
0c0000
000000
ENDCHAR
STARTCHAR 01-03
ENCODING 8483
SWIDTH 1010 0
DWIDTH 20 0
BBX 20 20 0 -3
BITMAP
000000
000000
000000
000000
000000
000000
000000
000000
000000
000000
000000
000000
000000
000000
380000
440000
440000
440000
380000
000000
ENDCHAR
STARTCHAR 01-04
ENCODING 8484
SWIDTH 1010 0
DWIDTH 20 0
BBX 20 20 0 -3
BITMAP
000000
000000
000000
000000
000000
000000
000000
000000
000000
000000
000000
000000
000000
000000
000000
380000
380000
180000
100000
200000
ENDCHAR
STARTCHAR 01-05
ENCODING 8485
SWIDTH 1010 0
DWIDTH 20 0
BBX 20 20 0 -3
BITMAP
000000
000000
000000
000000
000000
000000
000000
000000
000000
000000
000000
000000
000000
000000
000000
380000
380000
380000
000000
000000
ENDCHAR
STARTCHAR 01-06
ENCODING 8486
SWIDTH 1010 0
DWIDTH 20 0
BBX 20 20 0 -3
BITMAP
000000
000000
000000
000000
000000
000000
000000
000000
006000
00f000
00f000
006000
000000
000000
000000
000000
000000
000000
000000
000000
ENDCHAR
STARTCHAR 01-07
ENCODING 8487
SWIDTH 1010 0
DWIDTH 20 0
BBX 20 20 0 -3
BITMAP
000000
000000
000000
000000
000000
00e000
00e000
00e000
000000
000000
000000
000000
000000
00e000
00e000
00e000
000000
000000
000000
000000
ENDCHAR
STARTCHAR 01-08
ENCODING 8488
SWIDTH 1010 0
DWIDTH 20 0
BBX 20 20 0 -3
BITMAP
000000
000000
000000
000000
000000
00e000
00e000
00e000
000000
000000
000000
000000
000000
00e000
00e000
006000
004000
008000
000000
000000
ENDCHAR
STARTCHAR 01-09
ENCODING 8489
SWIDTH 1010 0
DWIDTH 20 0
BBX 20 20 0 -3
BITMAP
000000
00f000
030800
040400
080200
0a0200
060200
000400
001800
002000
004000
004000
004000
004000
000000
000000
004000
00e000
004000
000000
ENDCHAR
STARTCHAR 01-10
ENCODING 8490
SWIDTH 1010 0
DWIDTH 20 0
BBX 20 20 0 -3
BITMAP
000000
004000
00e000
00e000
00e000
00e000
004000
004000
004000
004000
004000
004000
004000
004000
000000
000000
004000
00e000
004000
000000
ENDCHAR
STARTCHAR 01-11
ENCODING 8491
SWIDTH 1010 0
DWIDTH 20 0
BBX 20 20 0 -3
BITMAP
040000
420000
230000
310000
110000
100000
000000
000000
000000
000000
000000
000000
000000
000000
000000
000000
000000
000000
000000
000000
ENDCHAR
STARTCHAR 01-12
ENCODING 8492
SWIDTH 1010 0
DWIDTH 20 0
BBX 20 20 0 -3
BITMAP
000000
000000
380000
440000
440000
440000
380000
000000
000000
000000
000000
000000
000000
000000
000000
000000
000000
000000
000000
000000
ENDCHAR
STARTCHAR 01-13
ENCODING 8493
SWIDTH 1010 0
DWIDTH 20 0
BBX 20 20 0 -3
BITMAP
003800
006000
008000
010000
000000
000000
000000
000000
000000
000000
000000
000000
000000
000000
000000
000000
000000
000000
000000
000000
ENDCHAR
STARTCHAR 01-14
ENCODING 8494
SWIDTH 1010 0
DWIDTH 20 0
BBX 20 20 0 -3
BITMAP
01c000
006000
001000
000800
000000
000000
000000
000000
000000
000000
000000
000000
000000
000000
000000
000000
000000
000000
000000
000000
ENDCHAR
STARTCHAR 01-15
ENCODING 8495
SWIDTH 1010 0
DWIDTH 20 0
BBX 20 20 0 -3
BITMAP
020400
070e00
020400
000000
000000
000000
000000
000000
000000
000000
000000
000000
000000
000000
000000
000000
000000
000000
000000
000000
ENDCHAR
STARTCHAR 01-16
ENCODING 8496
SWIDTH 1010 0
DWIDTH 20 0
BBX 20 20 0 -3
BITMAP
006000
019800
060600
000000
000000
000000
000000
000000
000000
000000
000000
000000
000000
000000
000000
000000
000000
000000
000000
000000
ENDCHAR
STARTCHAR 01-17
ENCODING 8497
SWIDTH 1010 0
DWIDTH 20 0
BBX 20 20 0 -3
BITMAP
fffff0
000000
000000
000000
000000
000000
000000
000000
000000
000000
000000
000000
000000
000000
000000
000000
000000
000000
000000
000000
ENDCHAR
STARTCHAR 01-18
ENCODING 8498
SWIDTH 1010 0
DWIDTH 20 0
BBX 20 20 0 -3
BITMAP
000000
000000
000000
000000
000000
000000
000000
000000
000000
000000
000000
000000
000000
000000
000000
000000
000000
000000
000000
fffff0
ENDCHAR
STARTCHAR 01-19
ENCODING 8499
SWIDTH 1010 0
DWIDTH 20 0
BBX 20 20 0 -3
BITMAP
000000
000000
000000
000000
000000
000000
060000
010000
00c000
002000
003000
001800
000c00
000c00
000000
000000
000000
000000
000000
000000
ENDCHAR
STARTCHAR 01-20
ENCODING 8500
SWIDTH 1010 0
DWIDTH 20 0
BBX 20 20 0 -3
BITMAP
000000
000000
000000
000800
000600
002200
061800
010800
00c000
002000
003000
001800
000c00
000c00
000000
000000
000000
000000
000000
000000
ENDCHAR
STARTCHAR 01-21
ENCODING 8501
SWIDTH 1010 0
DWIDTH 20 0
BBX 20 20 0 -3
BITMAP
000000
000000
000000
000000
000000
020000
010000
008000
004000
002000
001800
000c00
003c00
00c000
000000
000000
000000
000000
000000
000000
ENDCHAR
STARTCHAR 01-22
ENCODING 8502
SWIDTH 1010 0
DWIDTH 20 0
BBX 20 20 0 -3
BITMAP
000000
000000
000200
001180
000c80
040400
020000
010000
008000
004000
003000
001800
007800
018000
000000
000000
000000
000000
000000
000000
ENDCHAR
STARTCHAR 01-23
ENCODING 8503
SWIDTH 1010 0
DWIDTH 20 0
BBX 20 20 0 -3
BITMAP
000000
000000
000000
000000
000000
008400
008400
008400
008400
010800
010800
010800
021000
021000
042000
000000
000000
000000
000000
000000
ENDCHAR
STARTCHAR 01-24
ENCODING 8504
SWIDTH 1010 0
DWIDTH 20 0
BBX 20 20 0 -3
BITMAP
006000
004000
00a000
009000
011000
020800
040400
080200
100180
2008e0
c7fc40
004000
004000
004000
004000
004000
004000
004080
7fffc0
000000
ENDCHAR
STARTCHAR 01-25
ENCODING 8505
SWIDTH 1010 0
DWIDTH 20 0
BBX 20 20 0 -3
BITMAP
000000
000000
00c000
006000
004000
008100
00ff80
010300
020200
040400
080800
119000
206000
001000
000800
000c00
000c00
000000
000000
000000
ENDCHAR
STARTCHAR 01-26
ENCODING 8506
SWIDTH 1010 0
DWIDTH 20 0
BBX 20 20 0 -3
BITMAP
000040
000060
0000e0
000180
000200
038400
044800
083000
085000
108800
110c00
120400
240000
280000
300000
200000
600000
c00000
800000
000000
ENDCHAR
STARTCHAR 01-27
ENCODING 8507
SWIDTH 1010 0
DWIDTH 20 0
BBX 20 20 0 -3
BITMAP
000000
000000
000000
01f800
060600
080100
100080
200040
200040
400020
400020
400020
200040
200040
100080
080100
060600
01f800
000000
000000
ENDCHAR
STARTCHAR 01-28
ENCODING 8508
SWIDTH 1010 0
DWIDTH 20 0
BBX 20 20 0 -3
BITMAP
000000
000000
000000
000000
000000
000000
000000
000000
400380
6fffc0
1c0000
000000
000000
000000
000000
000000
000000
000000
000000
000000
ENDCHAR
STARTCHAR 01-29
ENCODING 8509
SWIDTH 1010 0
DWIDTH 20 0
BBX 20 20 0 -3
BITMAP
000000
000000
000000
000000
000000
000000
000000
000000
000000
fffff0
000000
000000
000000
000000
000000
000000
000000
000000
000000
000000
ENDCHAR
STARTCHAR 01-30
ENCODING 8510
SWIDTH 1010 0
DWIDTH 20 0
BBX 20 20 0 -3
BITMAP
000000
000000
000000
000000
000000
000000
000000
000000
000000
03f800
000000
000000
000000
000000
000000
000000
000000
000000
000000
000000
ENDCHAR
STARTCHAR 01-31
ENCODING 8511
SWIDTH 1010 0
DWIDTH 20 0
BBX 20 20 0 -3
BITMAP
000010
000020
000040
000080
000100
000200
000400
000800
001000
002000
004000
008000
010000
020000
040000
080000
100000
200000
400000
800000
ENDCHAR
STARTCHAR 01-32
ENCODING 8512
SWIDTH 1010 0
DWIDTH 20 0
BBX 20 20 0 -3
BITMAP
800000
400000
200000
100000
080000
040000
020000
010000
008000
004000
002000
001000
000800
000400
000200
000100
000080
000040
000020
000010
ENDCHAR
STARTCHAR 01-33
ENCODING 8513
SWIDTH 1010 0
DWIDTH 20 0
BBX 20 20 0 -3
BITMAP
000000
000000
000000
000000
000000
000000
000000
000000
0f0000
308020
40e040
802180
001e00
000000
000000
000000
000000
000000
000000
000000
ENDCHAR
STARTCHAR 01-34
ENCODING 8514
SWIDTH 1010 0
DWIDTH 20 0
BBX 20 20 0 -3
BITMAP
020800
020800
020800
020800
020800
020800
020800
020800
020800
020800
020800
020800
020800
020800
020800
020800
020800
020800
020800
020800
ENDCHAR
STARTCHAR 01-35
ENCODING 8515
SWIDTH 1010 0
DWIDTH 20 0
BBX 20 20 0 -3
BITMAP
004000
004000
004000
004000
004000
004000
004000
004000
004000
004000
004000
004000
004000
004000
004000
004000
004000
004000
004000
004000
ENDCHAR
STARTCHAR 01-36
ENCODING 8516
SWIDTH 1010 0
DWIDTH 20 0
BBX 20 20 0 -3
BITMAP
000000
000000
000000
000000
000000
000000
000000
000000
70e1c0
70e1c0
70e1c0
000000
000000
000000
000000
000000
000000
000000
000000
000000
ENDCHAR
STARTCHAR 01-37
ENCODING 8517
SWIDTH 1010 0
DWIDTH 20 0
BBX 20 20 0 -3
BITMAP
000000
000000
000000
000000
000000
000000
000000
000000
1c0700
1c0700
1c0700
000000
000000
000000
000000
000000
000000
000000
000000
000000
ENDCHAR
STARTCHAR 01-38
ENCODING 8518
SWIDTH 1010 0
DWIDTH 20 0
BBX 20 20 0 -3
BITMAP
000040
000080
000180
0001c0
0001c0
000000
000000
000000
000000
000000
000000
000000
000000
000000
000000
000000
000000
000000
000000
000000
ENDCHAR
STARTCHAR 01-39
ENCODING 8519
SWIDTH 1010 0
DWIDTH 20 0
BBX 20 20 0 -3
BITMAP
380000
380000
180000
100000
200000
000000
000000
000000
000000
000000
000000
000000
000000
000000
000000
000000
000000
000000
000000
000000
ENDCHAR
STARTCHAR 01-40
ENCODING 8520
SWIDTH 1010 0
DWIDTH 20 0
BBX 20 20 0 -3
BITMAP
000440
000880
001980
001dc0
001dc0
000000
000000
000000
000000
000000
000000
000000
000000
000000
000000
000000
000000
000000
000000
000000
ENDCHAR
STARTCHAR 01-41
ENCODING 8521
SWIDTH 1010 0
DWIDTH 20 0
BBX 20 20 0 -3
BITMAP
3b8000
3b8000
198000
110000
220000
000000
000000
000000
000000
000000
000000
000000
000000
000000
000000
000000
000000
000000
000000
000000
ENDCHAR
STARTCHAR 01-42
ENCODING 8522
SWIDTH 1010 0
DWIDTH 20 0
BBX 20 20 0 -3
BITMAP
000100
000200
000400
000400
000800
000800
000800
001000
001000
001000
001000
001000
001000
000800
000800
000800
000400
000400
000200
000100
ENDCHAR
STARTCHAR 01-43
ENCODING 8523
SWIDTH 1010 0
DWIDTH 20 0
BBX 20 20 0 -3
BITMAP
080000
040000
020000
020000
010000
010000
010000
008000
008000
008000
008000
008000
008000
010000
010000
010000
020000
020000
040000
080000
ENDCHAR
STARTCHAR 01-44
ENCODING 8524
SWIDTH 1010 0
DWIDTH 20 0
BBX 20 20 0 -3
BITMAP
000300
000c00
001000
001000
001000
001000
001000
001000
001000
001000
001000
001000
001000
001000
001000
001000
001000
001000
000c00
000300
ENDCHAR
STARTCHAR 01-45
ENCODING 8525
SWIDTH 1010 0
DWIDTH 20 0
BBX 20 20 0 -3
BITMAP
0c0000
030000
00c000
004000
004000
004000
004000
004000
004000
004000
004000
004000
004000
004000
004000
004000
004000
00c000
030000
0c0000
ENDCHAR
STARTCHAR 01-46
ENCODING 8526
SWIDTH 1010 0
DWIDTH 20 0
BBX 20 20 0 -3
BITMAP
001f00
001000
001000
001000
001000
001000
001000
001000
001000
001000
001000
001000
001000
001000
001000
001000
001000
001000
001000
001f00
ENDCHAR
STARTCHAR 01-47
ENCODING 8527
SWIDTH 1010 0
DWIDTH 20 0
BBX 20 20 0 -3
BITMAP
0f8000
008000
008000
008000
008000
008000
008000
008000
008000
008000
008000
008000
008000
008000
008000
008000
008000
008000
008000
0f8000
ENDCHAR
STARTCHAR 01-48
ENCODING 8528
SWIDTH 1010 0
DWIDTH 20 0
BBX 20 20 0 -3
BITMAP
000300
000400
000800
000800
000800
000800
000800
000800
000800
007000
001000
000800
000800
000800
000800
000800
000800
000800
000400
000300
ENDCHAR
STARTCHAR 01-49
ENCODING 8529
SWIDTH 1010 0
DWIDTH 20 0
BBX 20 20 0 -3
BITMAP
0c0000
020000
010000
010000
010000
010000
010000
010000
010000
00e000
008000
010000
010000
010000
010000
010000
010000
010000
020000
0c0000
ENDCHAR
STARTCHAR 01-50
ENCODING 8530
SWIDTH 1010 0
DWIDTH 20 0
BBX 20 20 0 -3
BITMAP
000100
000200
000200
000400
000800
000800
001000
002000
002000
004000
004000
002000
002000
001000
000800
000800
000400
000200
000200
000100
ENDCHAR
STARTCHAR 01-51
ENCODING 8531
SWIDTH 1010 0
DWIDTH 20 0
BBX 20 20 0 -3
BITMAP
080000
040000
040000
020000
010000
010000
008000
004000
004000
002000
002000
004000
004000
008000
010000
010000
020000
040000
040000
080000
ENDCHAR
STARTCHAR 01-52
ENCODING 8532
SWIDTH 1010 0
DWIDTH 20 0
BBX 20 20 0 -3
BITMAP
000240
000480
000480
000900
001200
001200
002400
004800
004800
009000
009000
004800
004800
002400
001200
001200
000900
000480
000480
000240
ENDCHAR
STARTCHAR 01-53
ENCODING 8533
SWIDTH 1010 0
DWIDTH 20 0
BBX 20 20 0 -3
BITMAP
240000
120000
120000
090000
048000
048000
024000
012000
012000
009000
009000
012000
012000
024000
048000
048000
090000
120000
120000
240000
ENDCHAR
STARTCHAR 01-54
ENCODING 8534
SWIDTH 1010 0
DWIDTH 20 0
BBX 20 20 0 -3
BITMAP
003f80
002000
002000
002000
002000
002000
002000
002000
002000
002000
002000
002000
002000
002000
002000
002000
002000
002000
000000
000000
ENDCHAR
STARTCHAR 01-55
ENCODING 8535
SWIDTH 1010 0
DWIDTH 20 0
BBX 20 20 0 -3
BITMAP
000000
000000
002000
002000
002000
002000
002000
002000
002000
002000
002000
002000
002000
002000
002000
002000
002000
002000
002000
1fe000
ENDCHAR
STARTCHAR 01-56
ENCODING 8536
SWIDTH 1010 0
DWIDTH 20 0
BBX 20 20 0 -3
BITMAP
00ff80
008080
00bf80
00a000
00a000
00a000
00a000
00a000
00a000
00a000
00a000
00a000
00a000
00a000
00a000
00a000
00a000
00e000
000000
000000
ENDCHAR
STARTCHAR 01-57
ENCODING 8537
SWIDTH 1010 0
DWIDTH 20 0
BBX 20 20 0 -3
BITMAP
000000
000000
007000
005000
005000
005000
005000
005000
005000
005000
005000
005000
005000
005000
005000
005000
005000
1fd000
101000
1ff000
ENDCHAR
STARTCHAR 01-58
ENCODING 8538
SWIDTH 1010 0
DWIDTH 20 0
BBX 20 20 0 -3
BITMAP
003f00
003e00
003c00
003800
003800
003800
003000
003000
003000
003000
003000
003000
003000
003000
003800
003800
003800
003c00
003e00
003f00
ENDCHAR
STARTCHAR 01-59
ENCODING 8539
SWIDTH 1010 0
DWIDTH 20 0
BBX 20 20 0 -3
BITMAP
0fc000
07c000
03c000
01c000
01c000
01c000
00c000
00c000
00c000
00c000
00c000
00c000
00c000
00c000
01c000
01c000
01c000
03c000
07c000
0fc000
ENDCHAR
STARTCHAR 01-60
ENCODING 8540
SWIDTH 1010 0
DWIDTH 20 0
BBX 20 20 0 -3
BITMAP
000000
000000
004000
004000
004000
004000
004000
004000
004000
1fff00
004000
004000
004000
004000
004000
004000
004000
000000
000000
000000
ENDCHAR
STARTCHAR 01-61
ENCODING 8541
SWIDTH 1010 0
DWIDTH 20 0
BBX 20 20 0 -3
BITMAP
000000
000000
000000
000000
000000
000000
000000
000000
000000
1fff80
000000
000000
000000
000000
000000
000000
000000
000000
000000
000000
ENDCHAR
STARTCHAR 01-62
ENCODING 8542
SWIDTH 1010 0
DWIDTH 20 0
BBX 20 20 0 -3
BITMAP
000000
000000
000000
004000
004000
004000
004000
004000
1fff00
004000
004000
004000
004000
004000
000000
000000
1fff00
000000
000000
000000
ENDCHAR
STARTCHAR 01-63
ENCODING 8543
SWIDTH 1010 0
DWIDTH 20 0
BBX 20 20 0 -3
BITMAP
000000
000000
000000
000000
000000
040200
020400
010800
009000
006000
006000
009000
010800
020400
040200
000000
000000
000000
000000
000000
ENDCHAR
STARTCHAR 01-64
ENCODING 8544
SWIDTH 1010 0
DWIDTH 20 0
BBX 20 20 0 -3
BITMAP
000000
000000
000000
000000
006000
006000
000000
000000
000000
0fff00
000000
000000
000000
006000
006000
000000
000000
000000
000000
000000
ENDCHAR
STARTCHAR 01-65
ENCODING 8545
SWIDTH 1010 0
DWIDTH 20 0
BBX 20 20 0 -3
BITMAP
000000
000000
000000
000000
000000
000000
000000
1fff00
000000
000000
000000
1fff00
000000
000000
000000
000000
000000
000000
000000
000000
ENDCHAR
STARTCHAR 01-66
ENCODING 8546
SWIDTH 1010 0
DWIDTH 20 0
BBX 20 20 0 -3
BITMAP
000000
000000
000000
001000
001000
002000
002000
1fff00
004000
008000
008000
1fff00
010000
010000
020000
020000
000000
000000
000000
000000
ENDCHAR
STARTCHAR 01-67
ENCODING 8547
SWIDTH 1010 0
DWIDTH 20 0
BBX 20 20 0 -3
BITMAP
000000
000000
0000c0
000300
000c00
003000
00c000
030000
0c0000
300000
300000
0c0000
030000
00c000
003000
000c00
000300
0000c0
000000
000000
ENDCHAR
STARTCHAR 01-68
ENCODING 8548
SWIDTH 1010 0
DWIDTH 20 0
BBX 20 20 0 -3
BITMAP
000000
000000
300000
0c0000
030000
00c000
003000
000c00
000300
0000c0
0000c0
000300
000c00
003000
00c000
030000
0c0000
300000
000000
000000
ENDCHAR
STARTCHAR 01-69
ENCODING 8549
SWIDTH 1010 0
DWIDTH 20 0
BBX 20 20 0 -3
BITMAP
000000
000000
000000
0003c0
003c00
03c000
3c0000
3c0000
03c000
003c00
0003c0
000000
000000
3fffc0
000000
000000
3fffc0
000000
000000
000000
ENDCHAR
STARTCHAR 01-70
ENCODING 8550
SWIDTH 1010 0
DWIDTH 20 0
BBX 20 20 0 -3
BITMAP
000000
000000
000000
3c0000
03c000
003c00
0003c0
0003c0
003c00
03c000
3c0000
000000
000000
3fffc0
000000
000000
3fffc0
000000
000000
000000
ENDCHAR
STARTCHAR 01-71
ENCODING 8551
SWIDTH 1010 0
DWIDTH 20 0
BBX 20 20 0 -3
BITMAP
000000
000000
000000
000000
000000
1e0780
210840
409020
40d020
406020
406020
40b020
409020
210840
1e0780
000000
000000
000000
000000
000000
ENDCHAR
STARTCHAR 01-72
ENCODING 8552
SWIDTH 1010 0
DWIDTH 20 0
BBX 20 20 0 -3
BITMAP
000000
000000
000000
00e000
00e000
00e000
000000
000000
000000
000000
000000
000000
000000
1c0700
1c0700
1c0700
000000
000000
000000
000000
ENDCHAR
STARTCHAR 01-73
ENCODING 8553
SWIDTH 1010 0
DWIDTH 20 0
BBX 20 20 0 -3
BITMAP
000000
001fe0
000060
0000a0
000120
000220
000420
000820
0f9020
106020
202000
401000
401000
401000
401000
401000
202000
104000
0f8000
000000
ENDCHAR
STARTCHAR 01-74
ENCODING 8554
SWIDTH 1010 0
DWIDTH 20 0
BBX 20 20 0 -3
BITMAP
01f000
020800
040400
080200
080200
080200
080200
080200
040400
020800
01f000
004000
004000
3fff80
004000
004000
004000
004000
004000
000000
ENDCHAR
STARTCHAR 01-75
ENCODING 8555
SWIDTH 1010 0
DWIDTH 20 0
BBX 20 20 0 -3
BITMAP
000000
000000
180000
240000
240000
180000
000000
000000
000000
000000
000000
000000
000000
000000
000000
000000
000000
000000
000000
000000
ENDCHAR
STARTCHAR 01-76
ENCODING 8556
SWIDTH 1010 0
DWIDTH 20 0
BBX 20 20 0 -3
BITMAP
000000
060000
040000
0c0000
080000
080000
100000
100000
000000
000000
000000
000000
000000
000000
000000
000000
000000
000000
000000
000000
ENDCHAR
STARTCHAR 01-77
ENCODING 8557
SWIDTH 1010 0
DWIDTH 20 0
BBX 20 20 0 -3
BITMAP
000000
1b0000
120000
360000
240000
240000
480000
480000
000000
000000
000000
000000
000000
000000
000000
000000
000000
000000
000000
000000
ENDCHAR
STARTCHAR 01-78
ENCODING 8558
SWIDTH 1010 0
DWIDTH 20 0
BBX 20 20 0 -3
BITMAP
000000
380000
440000
443c80
44c380
390080
0100c0
020040
020000
020000
020000
020000
020000
020000
010040
010040
00c180
003e00
000000
000000
ENDCHAR
STARTCHAR 01-79
ENCODING 8559
SWIDTH 1010 0
DWIDTH 20 0
BBX 20 20 0 -3
BITMAP
000000
000000
3f0f80
080200
040400
020800
011000
00a000
3fff80
004000
004000
004000
3fff80
004000
004000
004000
004000
01f000
000000
000000
ENDCHAR
STARTCHAR 01-80
ENCODING 8560
SWIDTH 1010 0
DWIDTH 20 0
BBX 20 20 0 -3
BITMAP
000000
004000
004000
03f800
044400
084200
084600
044000
034000
00e000
005800
004400
004200
0c4200
084200
064c00
01f000
004000
004000
000000
ENDCHAR
STARTCHAR 01-81
ENCODING 8561
SWIDTH 1010 0
DWIDTH 20 0
BBX 20 20 0 -3
BITMAP
000000
000000
000000
000000
000400
000400
000800
00f800
031400
021200
042600
042000
044000
044000
028200
018c00
017000
010000
020000
020000
ENDCHAR
STARTCHAR 01-82
ENCODING 8562
SWIDTH 1010 0
DWIDTH 20 0
BBX 20 20 0 -3
BITMAP
000000
000000
007800
018600
020100
020300
040000
040000
040000
3ff800
040000
020000
020000
010000
3f0000
418040
466180
381e00
000000
000000
ENDCHAR
STARTCHAR 01-83
ENCODING 8563
SWIDTH 1010 0
DWIDTH 20 0
BBX 20 20 0 -3
BITMAP
000000
000000
0f0040
188080
308100
208200
218400
230800
1e1000
002000
004000
008780
010c40
021840
041040
0810c0
101180
200f00
000000
000000
ENDCHAR
STARTCHAR 01-84
ENCODING 8564
SWIDTH 1010 0
DWIDTH 20 0
BBX 20 20 0 -3
BITMAP
000000
008200
008200
010400
010400
010400
1fff80
020800
020800
020800
041000
041000
041000
3ffe00
082000
082000
082000
104000
104000
000000
ENDCHAR
STARTCHAR 01-85
ENCODING 8565
SWIDTH 1010 0
DWIDTH 20 0
BBX 20 20 0 -3
BITMAP
000000
000000
03c000
042000
081000
081000
042000
044000
028f80
030200
050200
090400
108400
204800
203000
203020
104c40
0f8380
000000
000000
ENDCHAR
STARTCHAR 01-86
ENCODING 8566
SWIDTH 1010 0
DWIDTH 20 0
BBX 20 20 0 -3
BITMAP
000000
000000
000000
004000
00e000
00e000
0c4600
0c4600
035800
00e000
035800
0c4600
0c4600
00e000
00e000
004000
000000
000000
000000
000000
ENDCHAR
STARTCHAR 01-87
ENCODING 8567
SWIDTH 1010 0
DWIDTH 20 0
BBX 20 20 0 -3
BITMAP
000000
000000
000000
00f800
038600
060100
0c0100
086880
189880
110880
110880
110900
113900
08ce00
080040
040080
030300
00fc00
000000
000000
ENDCHAR
STARTCHAR 01-88
ENCODING 8568
SWIDTH 1010 0
DWIDTH 20 0
BBX 20 20 0 -3
BITMAP
000000
01f000
020c00
040200
060600
030000
01c000
017800
020c00
040600
060200
030400
01e800
003800
000c00
060200
040600
030400
00f800
000000
ENDCHAR
STARTCHAR 01-89
ENCODING 8569
SWIDTH 1010 0
DWIDTH 20 0
BBX 20 20 0 -3
BITMAP
000000
000000
004000
004000
00a000
00a000
00a000
011000
7f1fc0
100100
080200
040400
020800
044400
04a400
0b1a00
0c0600
100100
000000
000000
ENDCHAR
STARTCHAR 01-90
ENCODING 8570
SWIDTH 1010 0
DWIDTH 20 0
BBX 20 20 0 -3
BITMAP
000000
000000
004000
004000
00e000
00e000
00e000
01f000
7fffc0
1fff00
0ffe00
07fc00
03f800
07fc00
07bc00
0f1e00
0c0600
100100
000000
000000
ENDCHAR
STARTCHAR 01-91
ENCODING 8571
SWIDTH 1010 0
DWIDTH 20 0
BBX 20 20 0 -3
BITMAP
000000
01f800
060600
080100
100080
200040
200040
400020
400020
400020
400020
400020
400020
200040
200040
100080
080100
060600
01f800
000000
ENDCHAR
STARTCHAR 01-92
ENCODING 8572
SWIDTH 1010 0
DWIDTH 20 0
BBX 20 20 0 -3
BITMAP
000000
01f800
07fe00
0fff00
1fff80
3fffc0
3fffc0
7fffe0
7fffe0
7fffe0
7fffe0
7fffe0
7fffe0
3fffc0
3fffc0
1fff80
0fff00
07fe00
01f800
000000
ENDCHAR
STARTCHAR 01-93
ENCODING 8573
SWIDTH 1010 0
DWIDTH 20 0
BBX 20 20 0 -3
BITMAP
000000
01f800
060600
080100
100080
20f040
230c40
420420
440220
440220
440220
440220
420420
230c40
20f040
100080
080100
060600
01f800
000000
ENDCHAR
STARTCHAR 01-94
ENCODING 8574
SWIDTH 1010 0
DWIDTH 20 0
BBX 20 20 0 -3
BITMAP
004000
00a000
011000
020800
040400
080200
100100
200080
400040
800020
400040
200080
100100
080200
040400
020800
011000
00a000
004000
000000
ENDCHAR
STARTCHAR 02-01
ENCODING 8737
SWIDTH 1010 0
DWIDTH 20 0
BBX 20 20 0 -3
BITMAP
004000
00e000
01f000
03f800
07fc00
0ffe00
1fff00
3fff80
7fffc0
ffffe0
7fffc0
3fff80
1fff00
0ffe00
07fc00
03f800
01f000
00e000
004000
000000
ENDCHAR
STARTCHAR 02-02
ENCODING 8738
SWIDTH 1010 0
DWIDTH 20 0
BBX 20 20 0 -3
BITMAP
000000
7fffe0
400020
400020
400020
400020
400020
400020
400020
400020
400020
400020
400020
400020
400020
400020
400020
400020
7fffe0
000000
ENDCHAR
STARTCHAR 02-03
ENCODING 8739
SWIDTH 1010 0
DWIDTH 20 0
BBX 20 20 0 -3
BITMAP
000000
7fffe0
7fffe0
7fffe0
7fffe0
7fffe0
7fffe0
7fffe0
7fffe0
7fffe0
7fffe0
7fffe0
7fffe0
7fffe0
7fffe0
7fffe0
7fffe0
7fffe0
7fffe0
000000
ENDCHAR
STARTCHAR 02-04
ENCODING 8740
SWIDTH 1010 0
DWIDTH 20 0
BBX 20 20 0 -3
BITMAP
000000
004000
004000
00a000
00a000
011000
011000
020800
020800
040400
040400
080200
080200
100100
100100
200080
200080
7fffc0
000000
000000
ENDCHAR
STARTCHAR 02-05
ENCODING 8741
SWIDTH 1010 0
DWIDTH 20 0
BBX 20 20 0 -3
BITMAP
000000
004000
004000
00e000
00e000
01f000
01f000
03f800
03f800
07fc00
07fc00
0ffe00
0ffe00
1fff00
1fff00
3fff80
3fff80
7fffc0
000000
000000
ENDCHAR
STARTCHAR 02-06
ENCODING 8742
SWIDTH 1010 0
DWIDTH 20 0
BBX 20 20 0 -3
BITMAP
000000
000000
7fffc0
200080
200080
100100
100100
080200
080200
040400
040400
020800
020800
011000
011000
00a000
00a000
004000
004000
000000
ENDCHAR
STARTCHAR 02-07
ENCODING 8743
SWIDTH 1010 0
DWIDTH 20 0
BBX 20 20 0 -3
BITMAP
000000
000000
7fffc0
3fff80
3fff80
1fff00
1fff00
0ffe00
0ffe00
07fc00
07fc00
03f800
03f800
01f000
01f000
00e000
00e000
004000
004000
000000
ENDCHAR
STARTCHAR 02-08
ENCODING 8744
SWIDTH 1010 0
DWIDTH 20 0
BBX 20 20 0 -3
BITMAP
000000
000000
000000
106080
086100
040200
020400
010800
009000
186180
186180
009000
010800
020400
040200
086100
106080
000000
000000
000000
ENDCHAR
STARTCHAR 02-09
ENCODING 8745
SWIDTH 1010 0
DWIDTH 20 0
BBX 20 20 0 -3
BITMAP
000000
000000
000000
7fffe0
000000
000000
000000
000000
7fffe0
002000
002000
002000
002000
002000
002000
002000
002000
002000
002000
000000
ENDCHAR
STARTCHAR 02-10
ENCODING 8746
SWIDTH 1010 0
DWIDTH 20 0
BBX 20 20 0 -3
BITMAP
000000
000000
000000
000000
000000
000000
000400
000200
000180
ffffe0
000180
000200
000400
000000
000000
000000
000000
000000
000000
000000
ENDCHAR
STARTCHAR 02-11
ENCODING 8747
SWIDTH 1010 0
DWIDTH 20 0
BBX 20 20 0 -3
BITMAP
000000
000000
000000
000000
000000
000000
040000
080000
300000
ffffe0
300000
080000
040000
000000
000000
000000
000000
000000
000000
000000
ENDCHAR
STARTCHAR 02-12
ENCODING 8748
SWIDTH 1010 0
DWIDTH 20 0
BBX 20 20 0 -3
BITMAP
004000
004000
00e000
00e000
015000
024800
004000
004000
004000
004000
004000
004000
004000
004000
004000
004000
004000
004000
004000
000000
ENDCHAR
STARTCHAR 02-13
ENCODING 8749
SWIDTH 1010 0
DWIDTH 20 0
BBX 20 20 0 -3
BITMAP
004000
004000
004000
004000
004000
004000
004000
004000
004000
004000
004000
004000
004000
024800
015000
00e000
00e000
004000
004000
000000
ENDCHAR
STARTCHAR 02-14
ENCODING 8750
SWIDTH 1010 0
DWIDTH 20 0
BBX 20 20 0 -3
BITMAP
000000
000000
000000
000000
3fffc0
3fffc0
3fffc0
3fffc0
000000
000000
000000
000000
3fffc0
3fffc0
3fffc0
3fffc0
000000
000000
000000
000000
ENDCHAR
STARTCHAR 02-26
ENCODING 8762
SWIDTH 1010 0
DWIDTH 20 0
BBX 20 20 0 -3
BITMAP
000000
000000
000000
000000
00ff00
030000
040000
040000
080000
0fff00
080000
040000
040000
030000
00ff00
000000
000000
000000
000000
000000
ENDCHAR
STARTCHAR 02-27
ENCODING 8763
SWIDTH 1010 0
DWIDTH 20 0
BBX 20 20 0 -3
BITMAP
000000
000000
000000
000000
0ff000
000c00
000200
000200
000100
0fff00
000100
000200
000200
000c00
0ff000
000000
000000
000000
000000
000000
ENDCHAR
STARTCHAR 02-28
ENCODING 8764
SWIDTH 1010 0
DWIDTH 20 0
BBX 20 20 0 -3
BITMAP
000000
000000
000000
01ff80
060000
080000
080000
100000
100000
080000
080000
060000
01ff80
000000
000000
1fff80
000000
000000
000000
000000
ENDCHAR
STARTCHAR 02-29
ENCODING 8765
SWIDTH 1010 0
DWIDTH 20 0
BBX 20 20 0 -3
BITMAP
000000
000000
000000
1ff800
000600
000100
000100
000080
000080
000100
000100
000600
1ff800
000000
000000
1fff80
000000
000000
000000
000000
ENDCHAR
STARTCHAR 02-30
ENCODING 8766
SWIDTH 1010 0
DWIDTH 20 0
BBX 20 20 0 -3
BITMAP
000000
000000
000000
000000
01ff80
060000
080000
080000
100000
100000
100000
100000
080000
080000
060000
01ff80
000000
000000
000000
000000
ENDCHAR
STARTCHAR 02-31
ENCODING 8767
SWIDTH 1010 0
DWIDTH 20 0
BBX 20 20 0 -3
BITMAP
000000
000000
000000
000000
1ff800
000600
000100
000100
000080
000080
000080
000080
000100
000100
000600
1ff800
000000
000000
000000
000000
ENDCHAR
STARTCHAR 02-32
ENCODING 8768
SWIDTH 1010 0
DWIDTH 20 0
BBX 20 20 0 -3
BITMAP
000000
000000
000000
080100
080100
080100
080100
080100
080100
080100
080100
080100
080100
040200
040200
030c00
00f000
000000
000000
000000
ENDCHAR
STARTCHAR 02-33
ENCODING 8769
SWIDTH 1010 0
DWIDTH 20 0
BBX 20 20 0 -3
BITMAP
000000
000000
000000
00f000
030c00
040200
040200
080100
080100
080100
080100
080100
080100
080100
080100
080100
080100
000000
000000
000000
ENDCHAR
STARTCHAR 02-42
ENCODING 8778
SWIDTH 1010 0
DWIDTH 20 0
BBX 20 20 0 -3
BITMAP
000000
000000
000000
004000
004000
00a000
00a000
011000
011000
020800
020800
040400
040400
080200
080200
100100
100100
000000
000000
000000
ENDCHAR
STARTCHAR 02-43
ENCODING 8779
SWIDTH 1010 0
DWIDTH 20 0
BBX 20 20 0 -3
BITMAP
000000
000000
000000
100100
100100
080200
080200
040400
040400
020800
020800
011000
011000
00a000
00a000
004000
004000
000000
000000
000000
ENDCHAR
STARTCHAR 02-44
ENCODING 8780
SWIDTH 1010 0
DWIDTH 20 0
BBX 20 20 0 -3
BITMAP
000000
000000
000000
000000
000000
000000
000000
000000
1fff80
000080
000080
000080
000080
000080
000000
000000
000000
000000
000000
000000
ENDCHAR
STARTCHAR 02-45
ENCODING 8781
SWIDTH 1010 0
DWIDTH 20 0
BBX 20 20 0 -3
BITMAP
000000
000000
000000
000000
000400
000200
000100
7fff80
000040
000020
000040
7fff80
000100
000200
000400
000000
000000
000000
000000
000000
ENDCHAR
STARTCHAR 02-46
ENCODING 8782
SWIDTH 1010 0
DWIDTH 20 0
BBX 20 20 0 -3
BITMAP
000000
000000
000000
000000
040400
080200
100100
3fff80
400040
800020
400040
3fff80
100100
080200
040400
000000
000000
000000
000000
000000
ENDCHAR
STARTCHAR 02-47
ENCODING 8783
SWIDTH 1010 0
DWIDTH 20 0
BBX 20 20 0 -3
BITMAP
000000
000000
200080
200080
100100
100100
080200
0ffe00
040400
040400
020800
020800
011000
011000
00a000
00a000
004000
004000
000000
000000
ENDCHAR
STARTCHAR 02-48
ENCODING 8784
SWIDTH 1010 0
DWIDTH 20 0
BBX 20 20 0 -3
BITMAP
000000
000000
000000
07fe00
000200
000200
000200
000200
000200
07fe00
000200
000200
000200
000200
000200
07fe00
000000
000000
000000
000000
ENDCHAR
STARTCHAR 02-60
ENCODING 8796
SWIDTH 1010 0
DWIDTH 20 0
BBX 20 20 0 -3
BITMAP
000000
000000
000000
000200
000400
000800
001000
002000
004000
008000
010000
020000
040000
080000
100000
3fff80
000000
000000
000000
000000
ENDCHAR
STARTCHAR 02-61
ENCODING 8797
SWIDTH 1010 0
DWIDTH 20 0
BBX 20 20 0 -3
BITMAP
000000
000000
000000
004000
004000
004000
004000
004000
004000
004000
004000
004000
004000
004000
004000
3fff80
000000
000000
000000
000000
ENDCHAR
STARTCHAR 02-62
ENCODING 8798
SWIDTH 1010 0
DWIDTH 20 0
BBX 20 20 0 -3
BITMAP
03f800
1c0700
6000c0
800020
000000
000000
000000
000000
000000
000000
000000
000000
000000
000000
000000
000000
000000
000000
000000
000000
ENDCHAR
STARTCHAR 02-63
ENCODING 8799
SWIDTH 1010 0
DWIDTH 20 0
BBX 20 20 0 -3
BITMAP
000000
000000
007000
018800
020400
000400
000400
000400
00e400
031400
040c00
040800
080800
080800
081000
081000
042000
03c000
000000
000000
ENDCHAR
STARTCHAR 02-64
ENCODING 8800
SWIDTH 1010 0
DWIDTH 20 0
BBX 20 20 0 -3
BITMAP
000000
000000
7fffc0
600080
300080
100100
180100
080200
0c0200
040400
060400
020800
030800
011000
019000
00a000
00e000
004000
004000
000000
ENDCHAR
STARTCHAR 02-65
ENCODING 8801
SWIDTH 1010 0
DWIDTH 20 0
BBX 20 20 0 -3
BITMAP
000000
000000
000000
000000
1fff80
000000
000000
000000
000000
1fff80
000000
000000
000000
000000
1fff80
000000
000000
000000
000000
000000
ENDCHAR
STARTCHAR 02-66
ENCODING 8802
SWIDTH 1010 0
DWIDTH 20 0
BBX 20 20 0 -3
BITMAP
000000
000000
000000
060000
060000
000000
000000
1fff80
000000
000000
000000
1fff80
000000
000000
000600
000600
000000
000000
000000
000000
ENDCHAR
STARTCHAR 02-67
ENCODING 8803
SWIDTH 1010 0
DWIDTH 20 0
BBX 20 20 0 -3
BITMAP
000000
000000
000820
0030c0
004100
018600
020800
0c3000
104000
618000
618000
104000
0c3000
020800
018600
004100
0030c0
000820
000000
000000
ENDCHAR
STARTCHAR 02-68
ENCODING 8804
SWIDTH 1010 0
DWIDTH 20 0
BBX 20 20 0 -3
BITMAP
000000
000000
410000
30c000
082000
061800
010400
00c300
002080
001860
001860
002080
00c300
010400
061800
082000
30c000
410000
000000
000000
ENDCHAR
STARTCHAR 02-69
ENCODING 8805
SWIDTH 1010 0
DWIDTH 20 0
BBX 20 20 0 -3
BITMAP
003ff0
002000
002000
002000
004000
004000
004000
004000
008000
008000
008000
108000
310000
590000
890000
0d0000
060000
060000
020000
020000
ENDCHAR
STARTCHAR 02-70
ENCODING 8806
SWIDTH 1010 0
DWIDTH 20 0
BBX 20 20 0 -3
BITMAP
000000
000000
000000
000000
000000
0e0700
100880
201040
402020
402020
404020
404020
208040
110080
0e0700
000000
000000
000000
000000
000000
ENDCHAR
STARTCHAR 02-71
ENCODING 8807
SWIDTH 1010 0
DWIDTH 20 0
BBX 20 20 0 -3
BITMAP
000000
000000
000000
000000
000000
0e0f00
111080
20a040
404000
404000
404000
404000
20a040
111080
0e0f00
000000
000000
000000
000000
000000
ENDCHAR
STARTCHAR 02-72
ENCODING 8808
SWIDTH 1010 0
DWIDTH 20 0
BBX 20 20 0 -3
BITMAP
000000
000000
000000
000000
1c0700
1c0700
1c0700
000000
000000
000000
000000
000000
000000
000000
00e000
00e000
00e000
000000
000000
000000
ENDCHAR
STARTCHAR 02-73
ENCODING 8809
SWIDTH 1010 0
DWIDTH 20 0
BBX 20 20 0 -3
BITMAP
007000
008800
011800
010000
010000
018000
008000
00c000
004000
006000
006000
002000
003000
001000
001800
000800
000800
018800
011000
00e000
ENDCHAR
STARTCHAR 02-74
ENCODING 8810
SWIDTH 1010 0
DWIDTH 20 0
BBX 20 20 0 -3
BITMAP
070e00
089100
11a300
102000
102000
183000
081000
0c1800
040800
060c00
060c00
020400
030600
010200
018300
008100
008100
18b100
112200
0e1c00
ENDCHAR
STARTCHAR 02-82
ENCODING 8818
SWIDTH 1010 0
DWIDTH 20 0
BBX 20 20 0 -3
BITMAP
000000
006000
009000
009000
006000
000000
006000
006000
00b000
009000
011800
010800
020c00
03fc00
040600
040200
080300
1f0fc0
000000
000000
ENDCHAR
STARTCHAR 02-83
ENCODING 8819
SWIDTH 1010 0
DWIDTH 20 0
BBX 20 20 0 -3
BITMAP
000000
380800
441000
441000
442000
444000
444000
448000
450000
390000
0271c0
048a20
048a20
088a20
108a20
108a20
208a20
408a20
4071c0
000000
ENDCHAR
STARTCHAR 02-84
ENCODING 8820
SWIDTH 1010 0
DWIDTH 20 0
BBX 20 20 0 -3
BITMAP
000800
020800
020800
020800
020800
020f00
03f800
1e0800
020800
020800
020800
020800
020f00
03f800
1e0800
020800
020800
020800
020000
000000
ENDCHAR
STARTCHAR 02-85
ENCODING 8821
SWIDTH 1010 0
DWIDTH 20 0
BBX 20 20 0 -3
BITMAP
010000
010000
010000
010000
010000
010000
010000
010000
013800
014400
018200
010200
010600
010c00
011800
013000
016000
018000
010000
000000
ENDCHAR
STARTCHAR 02-86
ENCODING 8822
SWIDTH 1010 0
DWIDTH 20 0
BBX 20 20 0 -3
BITMAP
004000
004000
006000
007000
007800
005c00
004e00
004600
004300
004100
004100
004200
004200
004400
03c800
0fc000
1f8000
1f8000
0e0000
000000
ENDCHAR
STARTCHAR 02-87
ENCODING 8823
SWIDTH 1010 0
DWIDTH 20 0
BBX 20 20 0 -3
BITMAP
004000
00e000
00e000
044400
0ffe00
044400
004000
004000
03f800
01f000
00e000
00e000
00e000
00e000
00e000
004000
004000
004000
004000
004000
ENDCHAR
STARTCHAR 02-88
ENCODING 8824
SWIDTH 1010 0
DWIDTH 20 0
BBX 20 20 0 -3
BITMAP
004000
00e000
00e000
044400
0ffe00
044400
00e000
00e000
00e000
004000
004000
00e000
00e000
00e000
044400
0ffe00
044400
00e000
00e000
004000
ENDCHAR
STARTCHAR 02-89
ENCODING 8825
SWIDTH 1010 0
DWIDTH 20 0
BBX 20 20 0 -3
BITMAP
000000
01fc00
07c400
07c400
0fc400
0fc400
07c400
07c400
01c400
004400
004400
004400
004400
004400
004400
004400
004400
004400
004400
004400
ENDCHAR
STARTCHAR 02-94
ENCODING 8830
SWIDTH 1010 0
DWIDTH 20 0
BBX 20 20 0 -3
BITMAP
03fc00
0c0300
100080
200040
400020
400020
800010
800010
800010
800010
800010
800010
800010
800010
400020
400020
200040
100080
0c0300
03fc00
ENDCHAR
STARTCHAR 03-16
ENCODING 9008
SWIDTH 1010 0
DWIDTH 20 0
BBX 20 20 0 -3
BITMAP
000000
01f000
060c00
040400
080200
080200
080200
080200
080200
080200
080200
080200
080200
080200
080200
040400
060c00
01f000
000000
000000
ENDCHAR
STARTCHAR 03-17
ENCODING 9009
SWIDTH 1010 0
DWIDTH 20 0
BBX 20 20 0 -3
BITMAP
000000
002000
00e000
032000
002000
002000
002000
002000
002000
002000
002000
002000
002000
002000
002000
002000
002000
01fc00
000000
000000
ENDCHAR
STARTCHAR 03-18
ENCODING 9010
SWIDTH 1010 0
DWIDTH 20 0
BBX 20 20 0 -3
BITMAP
000000
00f800
030600
040200
060100
060100
000300
000200
000600
000c00
001000
002000
00c000
010000
020100
040100
080200
0ffe00
000000
000000
ENDCHAR
STARTCHAR 03-19
ENCODING 9011
SWIDTH 1010 0
DWIDTH 20 0
BBX 20 20 0 -3
BITMAP
000000
00f000
030c00
020400
040200
060200
000200
000400
003800
000600
000200
000300
000100
000100
0c0300
0c0200
060600
01f800
000000
000000
ENDCHAR
STARTCHAR 03-20
ENCODING 9012
SWIDTH 1010 0
DWIDTH 20 0
BBX 20 20 0 -3
BITMAP
000000
001800
003800
002800
004800
008800
008800
010800
020800
020800
040800
080800
080800
1fff00
000800
000800
000800
003e00
000000
000000
ENDCHAR
STARTCHAR 03-21
ENCODING 9013
SWIDTH 1010 0
DWIDTH 20 0
BBX 20 20 0 -3
BITMAP
000000
07ff00
040000
040000
040000
040000
040000
05f800
060600
040200
000300
000100
000100
0c0100
0c0300
080200
060600
01f800
000000
000000
ENDCHAR
STARTCHAR 03-22
ENCODING 9014
SWIDTH 1010 0
DWIDTH 20 0
BBX 20 20 0 -3
BITMAP
000000
01f000
070c00
040200
0c0600
080600
080000
09f000
0a0800
0c0400
080200
080200
080200
080200
080200
040400
060800
01f000
000000
000000
ENDCHAR
STARTCHAR 03-23
ENCODING 9015
SWIDTH 1010 0
DWIDTH 20 0
BBX 20 20 0 -3
BITMAP
000000
07ff00
040200
080400
080400
000800
000800
001000
001000
002000
002000
002000
004000
004000
004000
004000
004000
004000
000000
000000
ENDCHAR
STARTCHAR 03-24
ENCODING 9016
SWIDTH 1010 0
DWIDTH 20 0
BBX 20 20 0 -3
BITMAP
000000
01f800
020400
040200
040200
040200
020400
010800
01f000
020c00
040200
080100
080100
080100
080100
040200
020400
01f800
000000
000000
ENDCHAR
STARTCHAR 03-25
ENCODING 9017
SWIDTH 1010 0
DWIDTH 20 0
BBX 20 20 0 -3
BITMAP
000000
00e000
031800
040400
080400
080200
080200
080200
080200
040600
060a00
01f200
000200
000200
080400
080c00
041800
03e000
000000
000000
ENDCHAR
STARTCHAR 03-33
ENCODING 9025
SWIDTH 1010 0
DWIDTH 20 0
BBX 20 20 0 -3
BITMAP
000000
000000
004000
004000
00e000
00a000
00a000
013000
011000
011800
020800
020800
07fc00
040400
040600
080200
080200
3e0f80
000000
000000
ENDCHAR
STARTCHAR 03-34
ENCODING 9026
SWIDTH 1010 0
DWIDTH 20 0
BBX 20 20 0 -3
BITMAP
000000
000000
0ff800
020400
020200
020200
020200
020400
020800
03f800
020400
020200
020100
020100
020100
020100
020200
0ffc00
000000
000000
ENDCHAR
STARTCHAR 03-35
ENCODING 9027
SWIDTH 1010 0
DWIDTH 20 0
BBX 20 20 0 -3
BITMAP
000000
000000
00fa00
010600
020200
040100
040100
080000
080000
080000
080000
080000
080000
040000
040100
020200
010c00
00f000
000000
000000
ENDCHAR
STARTCHAR 03-36
ENCODING 9028
SWIDTH 1010 0
DWIDTH 20 0
BBX 20 20 0 -3
BITMAP
000000
000000
0fe000
021800
020400
020200
020200
020100
020100
020100
020100
020100
020100
020200
020200
020400
021800
0fe000
000000
000000
ENDCHAR
STARTCHAR 03-37
ENCODING 9029
SWIDTH 1010 0
DWIDTH 20 0
BBX 20 20 0 -3
BITMAP
000000
000000
0fff00
020100
020100
020100
021000
021000
021000
03f000
021000
021000
021000
020000
020100
020100
020100
0fff00
000000
000000
ENDCHAR
STARTCHAR 03-38
ENCODING 9030
SWIDTH 1010 0
DWIDTH 20 0
BBX 20 20 0 -3
BITMAP
000000
000000
0fff00
020100
020100
020100
021000
021000
021000
03f000
021000
021000
021000
020000
020000
020000
020000
0fc000
000000
000000
ENDCHAR
STARTCHAR 03-39
ENCODING 9031
SWIDTH 1010 0
DWIDTH 20 0
BBX 20 20 0 -3
BITMAP
000000
000000
00fa00
010600
020300
040100
040000
080000
080000
080000
080f80
080100
080100
040100
040100
020300
010d00
00f100
000000
000000
ENDCHAR
STARTCHAR 03-40
ENCODING 9032
SWIDTH 1010 0
DWIDTH 20 0
BBX 20 20 0 -3
BITMAP
000000
000000
1f0f80
040200
040200
040200
040200
040200
040200
07fe00
040200
040200
040200
040200
040200
040200
040200
1f0f80
000000
000000
ENDCHAR
STARTCHAR 03-41
ENCODING 9033
SWIDTH 1010 0
DWIDTH 20 0
BBX 20 20 0 -3
BITMAP
000000
000000
01f000
004000
004000
004000
004000
004000
004000
004000
004000
004000
004000
004000
004000
004000
004000
01f000
000000
000000
ENDCHAR
STARTCHAR 03-42
ENCODING 9034
SWIDTH 1010 0
DWIDTH 20 0
BBX 20 20 0 -3
BITMAP
000000
000000
001f00
000400
000400
000400
000400
000400
000400
000400
000400
000400
000400
0c0400
0c0400
080800
041800
03e000
000000
000000
ENDCHAR
STARTCHAR 03-43
ENCODING 9035
SWIDTH 1010 0
DWIDTH 20 0
BBX 20 20 0 -3
BITMAP
000000
000000
1f3f00
040400
040800
041000
042000
044000
048000
070000
058000
04c000
046000
043000
041800
040c00
040600
1f1f80
000000
000000
ENDCHAR
STARTCHAR 03-44
ENCODING 9036
SWIDTH 1010 0
DWIDTH 20 0
BBX 20 20 0 -3
BITMAP
000000
000000
0f8000
020000
020000
020000
020000
020000
020000
020000
020000
020000
020000
020000
020100
020100
020100
0fff00
000000
000000
ENDCHAR
STARTCHAR 03-45
ENCODING 9037
SWIDTH 1010 0
DWIDTH 20 0
BBX 20 20 0 -3
BITMAP
000000
000000
7001e0
100180
180280
180280
1c0480
140480
160880
120880
131080
111080
11a080
10a080
10c080
104080
104080
7c03e0
000000
000000
ENDCHAR
STARTCHAR 03-46
ENCODING 9038
SWIDTH 1010 0
DWIDTH 20 0
BBX 20 20 0 -3
BITMAP
000000
000000
1c0f80
0e0200
0a0200
0b0200
098200
088200
08c200
086200
082200
083200
081a00
080a00
080e00
080600
080200
3e0200
000000
000000
ENDCHAR
STARTCHAR 03-47
ENCODING 9039
SWIDTH 1010 0
DWIDTH 20 0
BBX 20 20 0 -3
BITMAP
000000
000000
00f000
030c00
040200
080100
080100
180080
100080
100080
100080
100080
100180
080100
080100
040200
030c00
00f000
000000
000000
ENDCHAR
STARTCHAR 03-48
ENCODING 9040
SWIDTH 1010 0
DWIDTH 20 0
BBX 20 20 0 -3
BITMAP
000000
000000
0ff800
020600
020300
020100
020100
020300
020600
03f800
020000
020000
020000
020000
020000
020000
020000
0f8000
000000
000000
ENDCHAR
STARTCHAR 03-49
ENCODING 9041
SWIDTH 1010 0
DWIDTH 20 0
BBX 20 20 0 -3
BITMAP
000000
000000
00f000
030c00
040200
080100
080100
180080
100080
100080
100080
100080
100180
080100
086100
049200
030c00
00f440
000440
000380
ENDCHAR
STARTCHAR 03-50
ENCODING 9042
SWIDTH 1010 0
DWIDTH 20 0
BBX 20 20 0 -3
BITMAP
000000
000000
1ff800
040400
040200
040200
040200
040200
040400
07f800
042000
042000
041000
041000
040800
040c00
040600
1f0380
000000
000000
ENDCHAR
STARTCHAR 03-51
ENCODING 9043
SWIDTH 1010 0
DWIDTH 20 0
BBX 20 20 0 -3
BITMAP
000000
000000
01f200
060e00
080200
080200
080000
060000
038000
00f000
001c00
000600
000300
080100
080100
0c0300
0b0600
08f800
000000
000000
ENDCHAR
STARTCHAR 03-52
ENCODING 9044
SWIDTH 1010 0
DWIDTH 20 0
BBX 20 20 0 -3
BITMAP
000000
000000
3fff80
204080
204080
204080
004000
004000
004000
004000
004000
004000
004000
004000
004000
004000
004000
03f800
000000
000000
ENDCHAR
STARTCHAR 03-53
ENCODING 9045
SWIDTH 1010 0
DWIDTH 20 0
BBX 20 20 0 -3
BITMAP
000000
000000
3e0f80
080200
080200
080200
080200
080200
080200
080200
080200
080200
080200
080200
040400
040400
031800
00e000
000000
000000
ENDCHAR
STARTCHAR 03-54
ENCODING 9046
SWIDTH 1010 0
DWIDTH 20 0
BBX 20 20 0 -3
BITMAP
000000
000000
3e0f80
080200
080200
0c0400
040400
060800
020800
020800
031000
011000
01a000
00a000
00e000
00c000
004000
004000
000000
000000
ENDCHAR
STARTCHAR 03-55
ENCODING 9047
SWIDTH 1010 0
DWIDTH 20 0
BBX 20 20 0 -3
BITMAP
000000
000000
7df7c0
104100
104100
10c100
10e200
18a200
192200
092200
093400
0a1400
0a1400
0e1c00
0c1800
040800
040800
040800
000000
000000
ENDCHAR
STARTCHAR 03-56
ENCODING 9048
SWIDTH 1010 0
DWIDTH 20 0
BBX 20 20 0 -3
BITMAP
000000
000000
1f0f80
040200
060200
030400
010800
019000
00d000
006000
007000
009000
011800
010c00
020400
040600
040300
1f0fc0
000000
000000
ENDCHAR
STARTCHAR 03-57
ENCODING 9049
SWIDTH 1010 0
DWIDTH 20 0
BBX 20 20 0 -3
BITMAP
000000
000000
3f1f80
080600
0c0400
060800
020800
031000
01a000
00c000
00c000
004000
004000
004000
004000
004000
004000
01f000
000000
000000
ENDCHAR
STARTCHAR 03-58
ENCODING 9050
SWIDTH 1010 0
DWIDTH 20 0
BBX 20 20 0 -3
BITMAP
000000
000000
07ff00
040600
080c00
080800
001800
003000
002000
006000
00c000
008000
018000
030000
020100
060100
0c0200
1ffe00
000000
000000
ENDCHAR
STARTCHAR 03-65
ENCODING 9057
SWIDTH 1010 0
DWIDTH 20 0
BBX 20 20 0 -3
BITMAP
000000
000000
000000
000000
000000
000000
000000
01f800
020c00
060400
000400
003c00
01c400
020400
040400
040400
031d00
01e600
000000
000000
ENDCHAR
STARTCHAR 03-66
ENCODING 9058
SWIDTH 1010 0
DWIDTH 20 0
BBX 20 20 0 -3
BITMAP
000000
000000
0e0000
020000
020000
020000
020000
02f000
030800
020400
020200
020200
020200
020200
020200
020400
030800
0ef000
000000
000000
ENDCHAR
STARTCHAR 03-67
ENCODING 9059
SWIDTH 1010 0
DWIDTH 20 0
BBX 20 20 0 -3
BITMAP
000000
000000
000000
000000
000000
000000
000000
00f800
010400
030600
020600
020000
020000
020000
020000
030200
010400
00f800
000000
000000
ENDCHAR
STARTCHAR 03-68
ENCODING 9060
SWIDTH 1010 0
DWIDTH 20 0
BBX 20 20 0 -3
BITMAP
000000
000000
001c00
000400
000400
000400
000400
01e400
021c00
040400
040400
040400
040400
040400
040400
040400
020c00
01f700
000000
000000
ENDCHAR
STARTCHAR 03-69
ENCODING 9061
SWIDTH 1010 0
DWIDTH 20 0
BBX 20 20 0 -3
BITMAP
000000
000000
000000
000000
000000
000000
000000
01f000
020800
040400
040400
07fc00
040000
040000
040000
040400
020800
01f000
000000
000000
ENDCHAR
STARTCHAR 03-70
ENCODING 9062
SWIDTH 1010 0
DWIDTH 20 0
BBX 20 20 0 -3
BITMAP
000000
000000
007800
008400
008c00
008000
008000
07f800
008000
008000
008000
008000
008000
008000
008000
008000
008000
03e000
000000
000000
ENDCHAR
STARTCHAR 03-71
ENCODING 9063
SWIDTH 1010 0
DWIDTH 20 0
BBX 20 20 0 -3
BITMAP
000000
000000
000000
000000
000000
000000
000380
00f480
030800
040400
040400
021800
01e000
010000
01e000
061c00
080200
080200
040200
03fc00
ENDCHAR
STARTCHAR 03-72
ENCODING 9064
SWIDTH 1010 0
DWIDTH 20 0
BBX 20 20 0 -3
BITMAP
000000
000000
0e0000
020000
020000
020000
020000
02f000
030800
020400
020400
020400
020400
020400
020400
020400
020400
0f9f00
000000
000000
ENDCHAR
STARTCHAR 03-73
ENCODING 9065
SWIDTH 1010 0
DWIDTH 20 0
BBX 20 20 0 -3
BITMAP
000000
000000
002000
007000
002000
000000
000000
00e000
002000
002000
002000
002000
002000
002000
002000
002000
002000
01fc00
000000
000000
ENDCHAR
STARTCHAR 03-74
ENCODING 9066
SWIDTH 1010 0
DWIDTH 20 0
BBX 20 20 0 -3
BITMAP
000000
000000
001000
003800
001000
000000
000000
007800
000800
000800
000800
000800
000800
000800
000800
000800
000800
060800
041000
03e000
ENDCHAR
STARTCHAR 03-75
ENCODING 9067
SWIDTH 1010 0
DWIDTH 20 0
BBX 20 20 0 -3
BITMAP
000000
000000
0e0000
020000
020000
020000
020000
023e00
021000
022000
024000
028000
034000
022000
021000
020800
020400
0f9f00
000000
000000
ENDCHAR
STARTCHAR 03-76
ENCODING 9068
SWIDTH 1010 0
DWIDTH 20 0
BBX 20 20 0 -3
BITMAP
000000
000000
00e000
002000
002000
002000
002000
002000
002000
002000
002000
002000
002000
002000
002000
002000
002000
00f800
000000
000000
ENDCHAR
STARTCHAR 03-77
ENCODING 9069
SWIDTH 1010 0
DWIDTH 20 0
BBX 20 20 0 -3
BITMAP
000000
000000
000000
000000
000000
000000
000000
73cf00
0c3080
082080
082080
082080
082080
082080
082080
082080
082080
3cf3e0
000000
000000
ENDCHAR
STARTCHAR 03-78
ENCODING 9070
SWIDTH 1010 0
DWIDTH 20 0
BBX 20 20 0 -3
BITMAP
000000
000000
000000
000000
000000
000000
000000
0ef000
030800
020400
020400
020400
020400
020400
020400
020400
020400
0f9f00
000000
000000
ENDCHAR
STARTCHAR 03-79
ENCODING 9071
SWIDTH 1010 0
DWIDTH 20 0
BBX 20 20 0 -3
BITMAP
000000
000000
000000
000000
000000
000000
000000
01f000
020800
040400
040400
040400
040400
040400
040400
040400
020800
01f000
000000
000000
ENDCHAR
STARTCHAR 03-80
ENCODING 9072
SWIDTH 1010 0
DWIDTH 20 0
BBX 20 20 0 -3
BITMAP
000000
000000
000000
000000
000000
000000
000000
0ef000
030c00
020400
020200
020200
020200
020200
020400
030c00
02f000
020000
020000
0f8000
ENDCHAR
STARTCHAR 03-81
ENCODING 9073
SWIDTH 1010 0
DWIDTH 20 0
BBX 20 20 0 -3
BITMAP
000000
000000
000000
000000
000000
000000
000000
00f600
030c00
020400
040400
040400
040400
040400
020400
031c00
00e400
000400
000400
001f00
ENDCHAR
STARTCHAR 03-82
ENCODING 9074
SWIDTH 1010 0
DWIDTH 20 0
BBX 20 20 0 -3
BITMAP
000000
000000
000000
000000
000000
000000
000000
039c00
00a200
00c600
008000
008000
008000
008000
008000
008000
008000
03e000
000000
000000
ENDCHAR
STARTCHAR 03-83
ENCODING 9075
SWIDTH 1010 0
DWIDTH 20 0
BBX 20 20 0 -3
BITMAP
000000
000000
000000
000000
000000
000000
000000
01e800
021800
040800
040000
038000
007800
000400
040400
040400
060800
01f000
000000
000000
ENDCHAR
STARTCHAR 03-84
ENCODING 9076
SWIDTH 1010 0
DWIDTH 20 0
BBX 20 20 0 -3
BITMAP
000000
000000
008000
008000
008000
008000
018000
07f800
008000
008000
008000
008000
008000
008000
008000
008000
008400
007800
000000
000000
ENDCHAR
STARTCHAR 03-85
ENCODING 9077
SWIDTH 1010 0
DWIDTH 20 0
BBX 20 20 0 -3
BITMAP
000000
000000
000000
000000
000000
000000
000000
1c3800
040800
040800
040800
040800
040800
040800
040800
040800
021800
01ee00
000000
000000
ENDCHAR
STARTCHAR 03-86
ENCODING 9078
SWIDTH 1010 0
DWIDTH 20 0
BBX 20 20 0 -3
BITMAP
000000
000000
000000
000000
000000
000000
000000
1f1f00
040400
060800
020800
031000
011000
01a000
00a000
00c000
004000
004000
000000
000000
ENDCHAR
STARTCHAR 03-87
ENCODING 9079
SWIDTH 1010 0
DWIDTH 20 0
BBX 20 20 0 -3
BITMAP
000000
000000
000000
000000
000000
000000
000000
3ef7c0
084100
084100
08a200
0ca200
053400
051400
071c00
020800
020800
020800
000000
000000
ENDCHAR
STARTCHAR 03-88
ENCODING 9080
SWIDTH 1010 0
DWIDTH 20 0
BBX 20 20 0 -3
BITMAP
000000
000000
000000
000000
000000
000000
000000
0f9f00
020400
030800
019000
00e000
006000
007000
009800
010c00
020400
0f9f00
000000
000000
ENDCHAR
STARTCHAR 03-89
ENCODING 9081
SWIDTH 1010 0
DWIDTH 20 0
BBX 20 20 0 -3
BITMAP
000000
000000
000000
000000
000000
000000
000000
0f8f00
020400
020400
030800
010800
019000
009000
00a000
006000
004000
0c4000
088000
070000
ENDCHAR
STARTCHAR 03-90
ENCODING 9082
SWIDTH 1010 0
DWIDTH 20 0
BBX 20 20 0 -3
BITMAP
000000
000000
000000
000000
000000
000000
000000
07fc00
041800
043000
002000
006000
00c000
018000
010400
030400
060400
0ffc00
000000
000000
ENDCHAR
STARTCHAR 04-01
ENCODING 9249
SWIDTH 1010 0
DWIDTH 20 0
BBX 20 20 0 -3
BITMAP
000000
000000
000000
000000
018000
008000
009c00
1fe000
090000
011000
01f800
032600
052100
094100
118100
110100
128200
0c0c00
003000
000000
ENDCHAR
STARTCHAR 04-02
ENCODING 9250
SWIDTH 1010 0
DWIDTH 20 0
BBX 20 20 0 -3
BITMAP
030000
018000
010000
010c00
217000
3f8000
121000
021000
02fc00
071300
0a2080
124040
228040
210040
410040
428080
240100
380600
003800
000000
ENDCHAR
STARTCHAR 04-03
ENCODING 9251
SWIDTH 1010 0
DWIDTH 20 0
BBX 20 20 0 -3
BITMAP
000000
000000
000000
000000
000000
000000
180000
0c0800
080400
080200
080100
080100
080680
044180
048100
050000
030000
010000
000000
000000
ENDCHAR
STARTCHAR 04-04
ENCODING 9252
SWIDTH 1010 0
DWIDTH 20 0
BBX 20 20 0 -3
BITMAP
000000
000000
000000
400000
200400
300200
200100
200080
200080
200040
200040
2081a0
110060
120040
120000
0c0000
040000
000000
000000
000000
ENDCHAR
STARTCHAR 04-05
ENCODING 9253
SWIDTH 1010 0
DWIDTH 20 0
BBX 20 20 0 -3
BITMAP
000000
000000
000000
000000
038000
006000
01b000
000000
00e000
131800
0c0400
000400
000400
000800
000800
001000
002000
00c000
030000
000000
ENDCHAR
STARTCHAR 04-06
ENCODING 9254
SWIDTH 1010 0
DWIDTH 20 0
BBX 20 20 0 -3
BITMAP
018000
006000
003800
00cc00
000000
000000
007800
118400
1e0200
080100
000100
000100
000100
000200
000200
000400
000800
001000
006000
018000
ENDCHAR
STARTCHAR 04-07
ENCODING 9255
SWIDTH 1010 0
DWIDTH 20 0
BBX 20 20 0 -3
BITMAP
000000
000000
000000
000000
01c000
007000
004000
008800
083c00
07c800
021000
002000
004000
00c000
012000
022000
042000
082000
181f00
000000
ENDCHAR
STARTCHAR 04-08
ENCODING 9256
SWIDTH 1010 0
DWIDTH 20 0
BBX 20 20 0 -3
BITMAP
010000
00c000
003c00
002000
004000
000200
083f00
07c600
020800
001000
006000
008000
01c000
032000
062000
0c2000
182000
301060
300fc0
000000
ENDCHAR
STARTCHAR 04-09
ENCODING 9257
SWIDTH 1010 0
DWIDTH 20 0
BBX 20 20 0 -3
BITMAP
000000
000000
000000
000000
060000
030c00
020300
024180
238200
1e0000
020000
023c00
02c600
030100
060100
2a0100
324200
0a3c00
040000
000000
ENDCHAR
STARTCHAR 04-10
ENCODING 9258
SWIDTH 1010 0
DWIDTH 20 0
BBX 20 20 0 -3
BITMAP
000000
060000
030000
020300
0230c0
026060
2380a0
1e0100
020000
020000
023e00
02c180
030040
060040
4a0040
320080
2a6180
061e00
040000
000000
ENDCHAR
STARTCHAR 04-11
ENCODING 9259
SWIDTH 1010 0
DWIDTH 20 0
BBX 20 20 0 -3
BITMAP
000000
030000
018000
010000
010400
010200
43e100
3e1080
2210c0
021040
041060
0411e0
081040
081000
102000
222000
612000
40c000
008000
000000
ENDCHAR
STARTCHAR 04-12
ENCODING 9260
SWIDTH 1010 0
DWIDTH 20 0
BBX 20 20 0 -3
BITMAP
000080
060460
030320
020100
020800
020400
87c200
7c2100
442180
042080
0820c0
0823c0
102080
102000
204000
444000
c24000
818000
010000
000000
ENDCHAR
STARTCHAR 04-13
ENCODING 9261
SWIDTH 1010 0
DWIDTH 20 0
BBX 20 20 0 -3
BITMAP
018000
008000
004000
004e00
103800
0fe000
001380
000e00
30f800
1f0800
000400
000400
03f200
0c0f00
100300
100000
080000
060000
01f800
000000
ENDCHAR
STARTCHAR 04-14
ENCODING 9262
SWIDTH 1010 0
DWIDTH 20 0
BBX 20 20 0 -3
BITMAP
018080
008060
004220
004d80
103880
0fe000
001380
000e00
30f800
1f0800
000400
000400
03f200
0c0f00
100300
100000
080000
060000
01f800
000000
ENDCHAR
STARTCHAR 04-15
ENCODING 9263
SWIDTH 1010 0
DWIDTH 20 0
BBX 20 20 0 -3
BITMAP
000800
000c00
000800
001000
002000
004000
018000
060000
080000
080000
060000
010000
008000
004000
002000
001000
000800
000400
000400
000000
ENDCHAR
STARTCHAR 04-16
ENCODING 9264
SWIDTH 1010 0
DWIDTH 20 0
BBX 20 20 0 -3
BITMAP
001000
001880
001460
002320
004100
008000
030000
0c0000
100000
100000
0c0000
020000
010000
008000
004000
002000
001000
000800
000800
000000
ENDCHAR
STARTCHAR 04-17
ENCODING 9265
SWIDTH 1010 0
DWIDTH 20 0
BBX 20 20 0 -3
BITMAP
000800
100600
180300
100200
100200
1003c0
213e60
20c200
200200
200200
240200
240200
280200
280600
300400
100400
100800
100800
001000
002000
ENDCHAR
STARTCHAR 04-18
ENCODING 9266
SWIDTH 1010 0
DWIDTH 20 0
BBX 20 20 0 -3
BITMAP
001080
200c60
300520
2004c0
200440
200700
427cc0
418400
400400
400400
480400
480400
500400
500c00
600800
200800
201000
201000
002000
004000
ENDCHAR
STARTCHAR 04-19
ENCODING 9267
SWIDTH 1010 0
DWIDTH 20 0
BBX 20 20 0 -3
BITMAP
000000
000000
000000
060000
01fc00
000f00
003000
004000
000000
000000
000000
000000
100000
200000
200000
200000
100000
0c0180
03ff00
000000
ENDCHAR
STARTCHAR 04-20
ENCODING 9268
SWIDTH 1010 0
DWIDTH 20 0
BBX 20 20 0 -3
BITMAP
000080
000260
0001a0
060080
01fc00
000f00
003000
004000
000000
000000
000000
000000
100000
200000
200000
200000
100000
0c0180
03ff00
000000
ENDCHAR
STARTCHAR 04-21
ENCODING 9269
SWIDTH 1010 0
DWIDTH 20 0
BBX 20 20 0 -3
BITMAP
006000
002000
002200
001180
001380
180e00
0ff800
000800
000400
000400
00fa00
030700
040300
080180
080000
0c0000
040000
038000
007c00
000000
ENDCHAR
STARTCHAR 04-22
ENCODING 9270
SWIDTH 1010 0
DWIDTH 20 0
BBX 20 20 0 -3
BITMAP
00c080
004260
0041a0
002080
002600
301c00
1ff000
001000
000800
000800
01f400
060e00
080600
100300
100000
180000
080000
070000
00f800
000000
ENDCHAR
STARTCHAR 04-23
ENCODING 9271
SWIDTH 1010 0
DWIDTH 20 0
BBX 20 20 0 -3
BITMAP
000000
180000
0c0000
040000
040000
040000
040000
040000
0c0000
080000
080000
080000
080000
080080
080100
080200
040400
071800
01e000
000000
ENDCHAR
STARTCHAR 04-24
ENCODING 9272
SWIDTH 1010 0
DWIDTH 20 0
BBX 20 20 0 -3
BITMAP
000000
180200
0c0180
040880
040600
040200
040000
040000
0c0000
080000
080000
080000
080000
080080
080100
080200
040400
071800
01e000
000000
ENDCHAR
STARTCHAR 04-25
ENCODING 9273
SWIDTH 1010 0
DWIDTH 20 0
BBX 20 20 0 -3
BITMAP
006000
001000
001800
001000
0010c0
40ffe0
7f1000
101000
00f000
011000
011800
011800
011800
00e800
001000
001000
002000
004000
008000
010000
ENDCHAR
STARTCHAR 04-26
ENCODING 9274
SWIDTH 1010 0
DWIDTH 20 0
BBX 20 20 0 -3
BITMAP
00c080
002460
003320
002100
002000
81ffc0
fe2000
202000
01e000
022000
023000
023000
023000
01d000
002000
002000
004000
008000
010000
020000
ENDCHAR
STARTCHAR 04-27
ENCODING 9275
SWIDTH 1010 0
DWIDTH 20 0
BBX 20 20 0 -3
BITMAP
000000
001800
000c00
000c00
0c0800
060800
040980
043fe0
87c800
fe0800
640800
044800
043800
041000
040000
040000
020000
030000
00fe00
000000
ENDCHAR
STARTCHAR 04-28
ENCODING 9276
SWIDTH 1010 0
DWIDTH 20 0
BBX 20 20 0 -3
BITMAP
000080
001a60
000da0
000c80
0c0800
060800
040980
043fe0
87c800
fe0800
640800
044800
043800
041000
040000
040000
020000
030000
00fe00
000000
ENDCHAR
STARTCHAR 04-29
ENCODING 9277
SWIDTH 1010 0
DWIDTH 20 0
BBX 20 20 0 -3
BITMAP
000000
000c00
047600
078800
021000
002000
004000
008380
017fe0
47b000
784000
208000
008000
010000
010000
008000
008000
006000
001e00
000000
ENDCHAR
STARTCHAR 04-30
ENCODING 9278
SWIDTH 1010 0
DWIDTH 20 0
BBX 20 20 0 -3
BITMAP
000080
000c60
047620
078900
0210c0
002040
004000
008380
017fe0
47b000
784000
208000
008000
010000
010000
008000
008000
006000
001e00
000000
ENDCHAR
STARTCHAR 04-31
ENCODING 9279
SWIDTH 1010 0
DWIDTH 20 0
BBX 20 20 0 -3
BITMAP
000000
060000
030000
010000
013000
43c000
7e1f00
2401c0
040300
040400
080000
080000
080000
100000
108000
308000
208000
606000
601fc0
000000
ENDCHAR
STARTCHAR 04-32
ENCODING 9280
SWIDTH 1010 0
DWIDTH 20 0
BBX 20 20 0 -3
BITMAP
000080
060060
030220
010180
013080
43c000
7e1f00
2401c0
040300
040400
080000
080000
080000
100000
108000
308000
208000
606000
601fc0
000000
ENDCHAR
STARTCHAR 04-33
ENCODING 9281
SWIDTH 1010 0
DWIDTH 20 0
BBX 20 20 0 -3
BITMAP
030000
018000
010000
010000
010c00
223800
1fc000
020000
020000
060000
043e00
04c100
0d0080
0e0080
0c0080
000180
000300
000c00
00f000
000000
ENDCHAR
STARTCHAR 04-34
ENCODING 9282
SWIDTH 1010 0
DWIDTH 20 0
BBX 20 20 0 -3
BITMAP
030080
018060
010220
010180
010c80
223800
1fc000
020000
020000
060000
043e00
04c100
0d0080
0e0080
0c0080
000180
000300
000c00
00f000
000000
ENDCHAR
STARTCHAR 04-35
ENCODING 9283
SWIDTH 1010 0
DWIDTH 20 0
BBX 20 20 0 -3
BITMAP
000000
000000
000000
000000
000000
000000
000000
000000
000000
003e00
11c100
1e0080
080080
000080
000080
000100
000600
001800
00e000
000000
ENDCHAR
STARTCHAR 04-36
ENCODING 9284
SWIDTH 1010 0
DWIDTH 20 0
BBX 20 20 0 -3
BITMAP
000000
000000
000000
000000
001e00
00e180
470040
7c0020
200020
000020
000020
000040
000080
000300
000c00
007000
000000
000000
000000
000000
ENDCHAR
STARTCHAR 04-37
ENCODING 9285
SWIDTH 1010 0
DWIDTH 20 0
BBX 20 20 0 -3
BITMAP
000080
000460
000320
000100
000000
001e00
00e180
470040
7c0020
200020
000020
000020
000040
000080
000300
000c00
007000
000000
000000
000000
ENDCHAR
STARTCHAR 04-38
ENCODING 9286
SWIDTH 1010 0
DWIDTH 20 0
BBX 20 20 0 -3
BITMAP
000000
000000
0001c0
001fe0
41ec00
7e1000
102000
004000
004000
008000
008000
008000
008000
008000
004000
006000
003800
000f00
000000
000000
ENDCHAR
STARTCHAR 04-39
ENCODING 9287
SWIDTH 1010 0
DWIDTH 20 0
BBX 20 20 0 -3
BITMAP
000000
000000
0001c0
001fe0
41ec00
7e1080
102060
004220
004180
008080
008000
008000
008000
008000
004000
006000
003800
000f00
000000
000000
ENDCHAR
STARTCHAR 04-40
ENCODING 9288
SWIDTH 1010 0
DWIDTH 20 0
BBX 20 20 0 -3
BITMAP
000000
030000
018000
008000
008000
008000
008200
008100
008600
005800
006000
018000
020000
040000
080000
080000
080000
060100
01fe00
000000
ENDCHAR
STARTCHAR 04-41
ENCODING 9289
SWIDTH 1010 0
DWIDTH 20 0
BBX 20 20 0 -3
BITMAP
000000
030080
018460
008320
008100
008000
008200
008100
008600
005800
006000
018000
020000
040000
080000
080000
080000
060100
01fe00
000000
ENDCHAR
STARTCHAR 04-42
ENCODING 9290
SWIDTH 1010 0
DWIDTH 20 0
BBX 20 20 0 -3
BITMAP
000000
030000
018000
010000
016000
3f8700
120080
0201c0
040240
040400
080400
100800
300800
600800
400800
01fe00
020980
030880
00f000
000000
ENDCHAR
STARTCHAR 04-43
ENCODING 9291
SWIDTH 1010 0
DWIDTH 20 0
BBX 20 20 0 -3
BITMAP
000000
000000
200000
100000
181f00
1061c0
100300
200400
200000
200000
200000
240000
240000
288000
288000
308000
106000
101fc0
100000
000000
ENDCHAR
STARTCHAR 04-44
ENCODING 9292
SWIDTH 1010 0
DWIDTH 20 0
BBX 20 20 0 -3
BITMAP
000000
003000
001800
001000
101000
087e00
09a180
0a2040
044040
0c4020
148020
258020
230020
420040
451f80
492140
302260
001c20
000000
000000
ENDCHAR
STARTCHAR 04-45
ENCODING 9293
SWIDTH 1010 0
DWIDTH 20 0
BBX 20 20 0 -3
BITMAP
0c0000
060000
040000
040000
040000
051e00
9e6180
648080
050040
060040
040040
0c0040
140040
240080
441f80
a420c0
942160
0c1e20
080000
080000
ENDCHAR
STARTCHAR 04-46
ENCODING 9294
SWIDTH 1010 0
DWIDTH 20 0
BBX 20 20 0 -3
BITMAP
000000
000000
000000
00fc00
034300
046180
0840c0
104040
208060
208020
410020
410020
420040
220040
3c0080
080100
000600
003800
000000
000000
ENDCHAR
STARTCHAR 04-47
ENCODING 9295
SWIDTH 1010 0
DWIDTH 20 0
BBX 20 20 0 -3
BITMAP
000000
200600
100300
180200
100200
108260
10ff80
204200
200200
200200
200200
240200
240200
280200
287f00
3882c0
108660
107c20
100000
000000
ENDCHAR
STARTCHAR 04-48
ENCODING 9296
SWIDTH 1010 0
DWIDTH 20 0
BBX 20 20 0 -3
BITMAP
000080
401a60
2009a0
300c80
200800
220980
23fe00
410800
400800
400800
400800
480800
480800
500800
51fc00
720b00
221980
21f080
200000
000000
ENDCHAR
STARTCHAR 04-49
ENCODING 9297
SWIDTH 1010 0
DWIDTH 20 0
BBX 20 20 0 -3
BITMAP
0000c0
401920
200d20
3008c0
200800
220980
23fe00
410800
400800
400800
400800
480800
480800
500800
51fc00
720b00
221980
21f080
200000
000000
ENDCHAR
STARTCHAR 04-50
ENCODING 9298
SWIDTH 1010 0
DWIDTH 20 0
BBX 20 20 0 -3
BITMAP
000000
000000
008400
038400
6d0200
320200
040300
040280
0802c0
080260
100220
100400
100400
100400
100800
100800
081000
0c2000
03c000
000000
ENDCHAR
STARTCHAR 04-51
ENCODING 9299
SWIDTH 1010 0
DWIDTH 20 0
BBX 20 20 0 -3
BITMAP
000080
000060
008520
038480
6d0240
320240
040300
040280
0802c0
080260
100220
100400
100400
100400
100800
100800
081000
0c2000
03c000
000000
ENDCHAR
STARTCHAR 04-52
ENCODING 9300
SWIDTH 1010 0
DWIDTH 20 0
BBX 20 20 0 -3
BITMAP
000000
0000c0
008520
038520
6d02c0
320200
040300
040280
0802c0
080260
100220
100400
100400
100400
100800
100800
081000
0c2000
03c000
000000
ENDCHAR
STARTCHAR 04-53
ENCODING 9301
SWIDTH 1010 0
DWIDTH 20 0
BBX 20 20 0 -3
BITMAP
000000
008000
004000
002000
003000
006000
008000
010000
010000
008000
004000
007e00
01a180
461040
281060
3811e0
11f020
106000
000000
000000
ENDCHAR
STARTCHAR 04-54
ENCODING 9302
SWIDTH 1010 0
DWIDTH 20 0
BBX 20 20 0 -3
BITMAP
000000
008080
004060
002220
003180
006080
008000
010000
010000
008000
004000
007e00
01a180
461040
281060
3811e0
11f020
106000
000000
000000
ENDCHAR
STARTCHAR 04-55
ENCODING 9303
SWIDTH 1010 0
DWIDTH 20 0
BBX 20 20 0 -3
BITMAP
000000
008000
004180
002240
003240
006180
008000
010000
010000
008000
004000
007e00
01a180
461040
281060
3811e0
11f020
106000
000000
000000
ENDCHAR
STARTCHAR 04-56
ENCODING 9304
SWIDTH 1010 0
DWIDTH 20 0
BBX 20 20 0 -3
BITMAP
000000
000000
000000
000000
000000
030000
048000
084000
084000
102000
701000
200c00
000600
000300
0001c0
000060
000000
000000
000000
000000
ENDCHAR
STARTCHAR 04-57
ENCODING 9305
SWIDTH 1010 0
DWIDTH 20 0
BBX 20 20 0 -3
BITMAP
000000
000080
000060
000220
000180
030080
048000
084000
084000
102000
701000
200c00
000600
000300
0001c0
000060
000000
000000
000000
000000
ENDCHAR
STARTCHAR 04-58
ENCODING 9306
SWIDTH 1010 0
DWIDTH 20 0
BBX 20 20 0 -3
BITMAP
000000
000000
000300
000480
000480
030300
048000
084000
084000
102000
701000
200c00
000600
000300
0001c0
000060
000000
000000
000000
000000
ENDCHAR
STARTCHAR 04-59
ENCODING 9307
SWIDTH 1010 0
DWIDTH 20 0
BBX 20 20 0 -3
BITMAP
000000
200000
1047c0
183c80
100600
100200
302200
20c2c0
207f80
200200
200200
240200
240200
280200
287f00
3082c0
308260
107c20
100000
000000
ENDCHAR
STARTCHAR 04-60
ENCODING 9308
SWIDTH 1010 0
DWIDTH 20 0
BBX 20 20 0 -3
BITMAP
000000
400000
211e80
30f060
201920
2008c0
208840
630b00
41fe00
400800
400800
480800
480800
500800
51fc00
620b00
620980
21f080
200000
000000
ENDCHAR
STARTCHAR 04-61
ENCODING 9309
SWIDTH 1010 0
DWIDTH 20 0
BBX 20 20 0 -3
BITMAP
000000
400000
211ec0
30f120
201920
2008c0
208800
630b00
41fe00
400800
400800
480800
480800
500800
51fc00
620b00
620980
21f080
200000
000000
ENDCHAR
STARTCHAR 04-62
ENCODING 9310
SWIDTH 1010 0
DWIDTH 20 0
BBX 20 20 0 -3
BITMAP
006000
003000
002000
007f80
3fa1c0
082200
002000
022000
0c2700
07fc00
002000
002000
002000
002000
002000
07fc00
182780
082080
07c000
000000
ENDCHAR
STARTCHAR 04-63
ENCODING 9311
SWIDTH 1010 0
DWIDTH 20 0
BBX 20 20 0 -3
BITMAP
000000
000000
082000
07f000
062000
004000
004200
004180
008180
008100
07f900
190700
220280
420240
440460
380420
000800
001000
006000
000000
ENDCHAR
STARTCHAR 04-64
ENCODING 9312
SWIDTH 1010 0
DWIDTH 20 0
BBX 20 20 0 -3
BITMAP
000000
0e0000
030000
020000
028000
63c180
3e0240
020220
0202a0
1a0260
260220
220200
220100
240100
1c0080
080080
080080
040300
03fc00
000000
ENDCHAR
STARTCHAR 04-65
ENCODING 9313
SWIDTH 1010 0
DWIDTH 20 0
BBX 20 20 0 -3
BITMAP
000000
003000
001800
001000
101000
10fc00
0b2300
0c2080
084040
144040
248020
230020
410020
428040
424040
240180
180600
003800
000000
000000
ENDCHAR
STARTCHAR 04-66
ENCODING 9314
SWIDTH 1010 0
DWIDTH 20 0
BBX 20 20 0 -3
BITMAP
018000
00c000
00c000
008000
108000
0e8000
03e000
050000
090000
090200
050100
03f100
020080
020080
020080
020080
020100
010100
008600
007800
ENDCHAR
STARTCHAR 04-67
ENCODING 9315
SWIDTH 1010 0
DWIDTH 20 0
BBX 20 20 0 -3
BITMAP
000000
000000
000000
000000
008000
007000
082000
045e00
026100
038080
050080
391100
108e00
008000
004000
004000
006000
002000
002000
000000
ENDCHAR
STARTCHAR 04-68
ENCODING 9316
SWIDTH 1010 0
DWIDTH 20 0
BBX 20 20 0 -3
BITMAP
000000
00c000
003000
003800
184000
0c0f00
0230c0
02c020
030020
4d0020
7890c0
208f00
004000
004000
002000
002000
003000
001000
001000
000000
ENDCHAR
STARTCHAR 04-69
ENCODING 9317
SWIDTH 1010 0
DWIDTH 20 0
BBX 20 20 0 -3
BITMAP
000000
000000
000000
000000
00c000
012000
012000
42f000
232c00
262200
2a2200
2a2200
322200
122200
112400
10f800
004000
004000
008000
010000
ENDCHAR
STARTCHAR 04-70
ENCODING 9318
SWIDTH 1010 0
DWIDTH 20 0
BBX 20 20 0 -3
BITMAP
000000
003800
004400
008400
40be00
21c580
330440
350440
250420
290420
290420
288840
308840
304980
103e00
101000
001000
002000
004000
018000
ENDCHAR
STARTCHAR 04-71
ENCODING 9319
SWIDTH 1010 0
DWIDTH 20 0
BBX 20 20 0 -3
BITMAP
000000
000000
000000
000000
000000
008000
004000
006000
004000
004c00
007000
004000
004000
004000
004000
0fe000
105800
104400
0f8400
000000
ENDCHAR
STARTCHAR 04-72
ENCODING 9320
SWIDTH 1010 0
DWIDTH 20 0
BBX 20 20 0 -3
BITMAP
004000
002000
003000
002000
002000
002100
002f80
003800
002000
002000
002000
002000
002000
002000
0ff000
182e00
102180
106080
0f8000
000000
ENDCHAR
STARTCHAR 04-73
ENCODING 9321
SWIDTH 1010 0
DWIDTH 20 0
BBX 20 20 0 -3
BITMAP
010000
00c000
003000
001800
00f800
030000
040000
040000
040000
080000
087c00
098300
0a0100
0c0080
040080
000100
000100
000e00
00f000
000000
ENDCHAR
STARTCHAR 04-74
ENCODING 9322
SWIDTH 1010 0
DWIDTH 20 0
BBX 20 20 0 -3
BITMAP
080000
043800
064400
048200
050200
050100
050100
0a0100
0a0100
0a0100
0e0100
040200
040200
040200
000400
000400
000800
001000
002000
00c000
ENDCHAR
STARTCHAR 04-75
ENCODING 9323
SWIDTH 1010 0
DWIDTH 20 0
BBX 20 20 0 -3
BITMAP
000000
000800
087c00
078800
021000
002000
004000
008000
010000
02f800
070600
0c0100
180080
300080
300080
01e080
021100
031600
01f800
000000
ENDCHAR
STARTCHAR 04-76
ENCODING 9324
SWIDTH 1010 0
DWIDTH 20 0
BBX 20 20 0 -3
BITMAP
060000
030000
020000
020000
020000
038e00
6eb100
334100
028100
030100
020200
060200
0a0400
120400
220400
620420
420220
0a01c0
060000
040000
ENDCHAR
STARTCHAR 04-77
ENCODING 9325
SWIDTH 1010 0
DWIDTH 20 0
BBX 20 20 0 -3
BITMAP
000000
000800
087c00
078800
021000
002000
004000
008000
010000
02f800
070600
0c0100
180080
300080
200080
000100
000200
000c00
00f000
000000
ENDCHAR
STARTCHAR 04-78
ENCODING 9326
SWIDTH 1010 0
DWIDTH 20 0
BBX 20 20 0 -3
BITMAP
000000
000000
000000
000000
060000
030000
020000
030000
363c00
1ac200
030100
020100
060100
0a0100
120100
320200
2a0c00
063000
040000
000000
ENDCHAR
STARTCHAR 04-79
ENCODING 9327
SWIDTH 1010 0
DWIDTH 20 0
BBX 20 20 0 -3
BITMAP
060000
030000
030000
020000
020000
038000
6e9e00
336180
028040
030040
020020
060020
0a0020
120040
220040
620080
420300
0a1c00
060000
040000
ENDCHAR
STARTCHAR 04-80
ENCODING 9328
SWIDTH 1010 0
DWIDTH 20 0
BBX 20 20 0 -3
BITMAP
000000
001000
087800
079000
021000
002000
002000
004000
01fc00
068300
088080
110080
210040
420040
440040
443880
484480
304300
003c00
000000
ENDCHAR
STARTCHAR 04-81
ENCODING 9329
SWIDTH 1010 0
DWIDTH 20 0
BBX 20 20 0 -3
BITMAP
000000
000800
03fc00
011000
002000
004000
00f800
030600
0c0100
08c100
012200
012c00
00f000
008000
030000
040780
0b1840
30a060
204180
000200
ENDCHAR
STARTCHAR 04-82
ENCODING 9330
SWIDTH 1010 0
DWIDTH 20 0
BBX 20 20 0 -3
BITMAP
008000
006000
004000
004000
109c00
1fe000
088080
0100c0
03c180
062600
0c1800
187000
109000
011000
021000
040000
040000
020000
01fe00
000000
ENDCHAR
STARTCHAR 04-83
ENCODING 9331
SWIDTH 1010 0
DWIDTH 20 0
BBX 20 20 0 -3
BITMAP
000000
00c000
006000
004000
008000
008000
010000
010000
020000
020000
058000
064020
0c2020
082020
102040
102040
201080
601100
400e00
000000
ENDCHAR
STARTCHAR 05-01
ENCODING 9505
SWIDTH 1010 0
DWIDTH 20 0
BBX 20 20 0 -3
BITMAP
000000
000000
000000
000000
000000
000000
000600
1fff00
0c0400
008800
005000
004000
004000
004000
008000
008000
010000
020000
040000
000000
ENDCHAR
STARTCHAR 05-02
ENCODING 9506
SWIDTH 1010 0
DWIDTH 20 0
BBX 20 20 0 -3
BITMAP
000000
000000
000180
203fe0
1fc0c0
0c0100
004200
003400
003000
002000
006000
004000
004000
008000
008000
010000
010000
020000
040000
000000
ENDCHAR
STARTCHAR 05-03
ENCODING 9507
SWIDTH 1010 0
DWIDTH 20 0
BBX 20 20 0 -3
BITMAP
000000
000000
000000
000000
000000
000800
000c00
001800
003000
006000
00c000
016000
023000
0c2000
302000
002000
002000
002000
002000
000000
ENDCHAR
STARTCHAR 05-04
ENCODING 9508
SWIDTH 1010 0
DWIDTH 20 0
BBX 20 20 0 -3
BITMAP
000200
000100
000180
000300
000600
000c00
001800
003000
004800
018c00
020800
0c0800
300800
000800
000800
000800
000800
000800
000800
000000
ENDCHAR
STARTCHAR 05-05
ENCODING 9509
SWIDTH 1010 0
DWIDTH 20 0
BBX 20 20 0 -3
BITMAP
000000
000000
000000
000000
00c000
006000
004000
004200
18ff00
0f0200
080200
080200
080400
000400
000800
001000
002000
00c000
030000
000000
ENDCHAR
STARTCHAR 05-06
ENCODING 9510
SWIDTH 1010 0
DWIDTH 20 0
BBX 20 20 0 -3
BITMAP
000000
00c000
006000
004000
204080
10ffc0
1f0080
100080
100180
100100
100300
000200
000400
000400
000800
001000
002000
00c000
030000
000000
ENDCHAR
STARTCHAR 05-07
ENCODING 9511
SWIDTH 1010 0
DWIDTH 20 0
BBX 20 20 0 -3
BITMAP
000000
000000
000000
000000
000000
000000
000000
000400
0ffe00
044000
006000
004000
004000
004000
004000
01ff00
3e0180
100000
000000
000000
ENDCHAR
STARTCHAR 05-08
ENCODING 9512
SWIDTH 1010 0
DWIDTH 20 0
BBX 20 20 0 -3
BITMAP
000000
000000
000000
000000
000600
1fff00
084000
006000
006000
004000
004000
004000
004000
004000
00ffc0
7f0060
100000
000000
000000
000000
ENDCHAR
STARTCHAR 05-09
ENCODING 9513
SWIDTH 1010 0
DWIDTH 20 0
BBX 20 20 0 -3
BITMAP
000000
000000
000000
000000
002000
001800
001000
001000
001100
1fff80
083000
005000
009000
011000
021000
041000
189000
007000
002000
000000
ENDCHAR
STARTCHAR 05-10
ENCODING 9514
SWIDTH 1010 0
DWIDTH 20 0
BBX 20 20 0 -3
BITMAP
001000
000800
000c00
000800
000800
0008c0
7fffe0
181800
003800
006800
00c800
018800
030800
060800
080800
100800
604800
003800
001000
000000
ENDCHAR
STARTCHAR 05-11
ENCODING 9515
SWIDTH 1010 0
DWIDTH 20 0
BBX 20 20 0 -3
BITMAP
000000
00c000
006000
004000
004000
004080
007fc0
7fc080
188080
008080
018180
010100
030100
020300
040200
080600
106400
201c00
400800
000000
ENDCHAR
STARTCHAR 05-12
ENCODING 9516
SWIDTH 1010 0
DWIDTH 20 0
BBX 20 20 0 -3
BITMAP
000080
018060
00c220
008180
008080
008100
00ff80
ff8100
310100
010100
030300
020200
060200
040600
080400
100c00
20c800
403800
801000
000000
ENDCHAR
STARTCHAR 05-13
ENCODING 9517
SWIDTH 1010 0
DWIDTH 20 0
BBX 20 20 0 -3
BITMAP
000000
018000
00c000
004000
004700
007c00
3fe000
182000
002040
0027e0
007800
039000
7c1000
301000
001800
000800
000800
000c00
000800
000000
ENDCHAR
STARTCHAR 05-14
ENCODING 9518
SWIDTH 1010 0
DWIDTH 20 0
BBX 20 20 0 -3
BITMAP
000080
030260
0181a0
008080
008e00
00f800
7fc000
304000
004080
004fc0
00f000
072000
f82000
602000
003000
001000
001000
001800
001000
000000
ENDCHAR
STARTCHAR 05-15
ENCODING 9519
SWIDTH 1010 0
DWIDTH 20 0
BBX 20 20 0 -3
BITMAP
000000
018000
00c000
008100
019f80
036100
020300
040200
080600
100400
200800
000800
001000
002000
004000
008000
010000
060000
180000
000000
ENDCHAR
STARTCHAR 05-16
ENCODING 9520
SWIDTH 1010 0
DWIDTH 20 0
BBX 20 20 0 -3
BITMAP
000080
030060
018120
0100c0
033e40
06c200
040600
080400
100c00
200800
401000
001000
002000
004000
008000
010000
020000
0c0000
300000
000000
ENDCHAR
STARTCHAR 05-17
ENCODING 9521
SWIDTH 1010 0
DWIDTH 20 0
BBX 20 20 0 -3
BITMAP
000000
030000
018000
010000
030000
020180
063fe0
07c800
080c00
100800
201800
401000
001000
002000
002000
004000
008000
010000
060000
000000
ENDCHAR
STARTCHAR 05-18
ENCODING 9522
SWIDTH 1010 0
DWIDTH 20 0
BBX 20 20 0 -3
BITMAP
000080
030460
018320
010100
030000
020180
063fe0
07c800
080c00
100800
201800
401000
001000
002000
002000
004000
008000
010000
060000
000000
ENDCHAR
STARTCHAR 05-19
ENCODING 9523
SWIDTH 1010 0
DWIDTH 20 0
BBX 20 20 0 -3
BITMAP
000000
000000
000000
000000
000080
1fffc0
0c0080
000080
000100
000100
000100
000200
000200
000200
3fff00
180100
000000
000000
000000
000000
ENDCHAR
STARTCHAR 05-20
ENCODING 9524
SWIDTH 1010 0
DWIDTH 20 0
BBX 20 20 0 -3
BITMAP
000080
000460
000320
000100
000000
1fff80
0c0080
000080
000100
000100
000100
000200
000200
000200
3fff00
180100
000000
000000
000000
000000
ENDCHAR
STARTCHAR 05-21
ENCODING 9525
SWIDTH 1010 0
DWIDTH 20 0
BBX 20 20 0 -3
BITMAP
000000
000c00
060600
030200
010200
010240
413fe0
7fe200
210200
010600
010400
030400
010400
000800
000800
001000
002000
004000
018000
000000
ENDCHAR
STARTCHAR 05-22
ENCODING 9526
SWIDTH 1010 0
DWIDTH 20 0
BBX 20 20 0 -3
BITMAP
000080
001a60
0c0da0
060480
020400
020480
827fc0
ffc400
420400
020c00
020800
060800
020800
001000
001000
002000
004000
008000
030000
000000
ENDCHAR
STARTCHAR 05-23
ENCODING 9527
SWIDTH 1010 0
DWIDTH 20 0
BBX 20 20 0 -3
BITMAP
000000
000000
000000
060000
018000
00c000
004000
000020
180040
060080
030100
010200
000400
000800
001000
006000
118000
0f0000
040000
000000
ENDCHAR
STARTCHAR 05-24
ENCODING 9528
SWIDTH 1010 0
DWIDTH 20 0
BBX 20 20 0 -3
BITMAP
000000
000080
000460
060320
018100
00c000
004000
000020
180040
060080
030100
010200
000400
000800
001000
006000
118000
0f0000
040000
000000
ENDCHAR
STARTCHAR 05-25
ENCODING 9529
SWIDTH 1010 0
DWIDTH 20 0
BBX 20 20 0 -3
BITMAP
000000
000000
000000
000200
0fff00
070600
000c00
000800
001800
003000
002000
004800
008400
010200
020100
040180
0800c0
3000c0
000000
000000
ENDCHAR
STARTCHAR 05-26
ENCODING 9530
SWIDTH 1010 0
DWIDTH 20 0
BBX 20 20 0 -3
BITMAP
000080
000260
0001a0
000480
1ffe00
0e0c00
001800
001000
003000
006000
004000
009000
010800
020400
040200
080300
100180
600180
000000
000000
ENDCHAR
STARTCHAR 05-27
ENCODING 9531
SWIDTH 1010 0
DWIDTH 20 0
BBX 20 20 0 -3
BITMAP
000000
000000
030000
018000
010000
010000
010180
011fe0
01e0c0
7f0100
310600
010800
010000
010000
010000
010000
00c180
007f00
000000
000000
ENDCHAR
STARTCHAR 05-28
ENCODING 9532
SWIDTH 1010 0
DWIDTH 20 0
BBX 20 20 0 -3
BITMAP
000080
000060
030220
018180
010080
010000
010180
011fe0
01e0c0
7f0100
310600
010800
010000
010000
010000
010000
00c180
007f00
000000
000000
ENDCHAR
STARTCHAR 05-29
ENCODING 9533
SWIDTH 1010 0
DWIDTH 20 0
BBX 20 20 0 -3
BITMAP
000000
000000
000200
100100
080180
040180
020100
030300
010200
010600
000400
000800
000800
001000
002000
004000
008000
010000
060000
000000
ENDCHAR
STARTCHAR 05-30
ENCODING 9534
SWIDTH 1010 0
DWIDTH 20 0
BBX 20 20 0 -3
BITMAP
000080
000260
0009a0
400480
200600
100600
080400
0c0c00
040800
041800
001000
002000
002000
004000
008000
010000
020000
040000
180000
000000
ENDCHAR
STARTCHAR 05-31
ENCODING 9535
SWIDTH 1010 0
DWIDTH 20 0
BBX 20 20 0 -3
BITMAP
000000
018000
00c000
008100
019f80
016100
020100
040300
0b8200
106600
203400
000c00
000800
001000
002000
004000
018000
060000
180000
000000
ENDCHAR
STARTCHAR 05-32
ENCODING 9536
SWIDTH 1010 0
DWIDTH 20 0
BBX 20 20 0 -3
BITMAP
000080
030060
018120
0100c0
033f40
02c200
040200
080600
170400
20cc00
406800
001800
001000
002000
004000
008000
030000
0c0000
300000
000000
ENDCHAR
STARTCHAR 05-33
ENCODING 9537
SWIDTH 1010 0
DWIDTH 20 0
BBX 20 20 0 -3
BITMAP
000000
000200
001f00
00e000
073800
001000
001000
00ff80
7f20e0
302000
002000
006000
004000
004000
008000
008000
010000
020000
040000
000000
ENDCHAR
STARTCHAR 05-34
ENCODING 9538
SWIDTH 1010 0
DWIDTH 20 0
BBX 20 20 0 -3
BITMAP
000080
000860
003d20
01c0c0
0e7040
002000
002000
01ff00
fe41c0
604000
004000
00c000
008000
008000
010000
010000
020000
040000
080000
000000
ENDCHAR
STARTCHAR 05-35
ENCODING 9539
SWIDTH 1010 0
DWIDTH 20 0
BBX 20 20 0 -3
BITMAP
000000
000000
000000
000000
000000
000000
010000
008400
104300
084200
040600
040400
000800
000800
001000
002000
004000
008000
030000
000000
ENDCHAR
STARTCHAR 05-36
ENCODING 9540
SWIDTH 1010 0
DWIDTH 20 0
BBX 20 20 0 -3
BITMAP
000000
000000
010200
008100
208180
104100
084100
084300
080200
000600
000400
000800
000800
001000
002000
004000
008000
030000
0c0000
000000
ENDCHAR
STARTCHAR 05-37
ENCODING 9541
SWIDTH 1010 0
DWIDTH 20 0
BBX 20 20 0 -3
BITMAP
000080
000260
0201a0
010480
410200
208300
108200
108600
100400
000c00
000800
001000
001000
002000
004000
008000
010000
060000
180000
000000
ENDCHAR
STARTCHAR 05-38
ENCODING 9542
SWIDTH 1010 0
DWIDTH 20 0
BBX 20 20 0 -3
BITMAP
000000
000000
000600
0fff00
060000
000000
000000
00ff80
7f20e0
303000
002000
006000
004000
004000
008000
008000
010000
020000
040000
000000
ENDCHAR
STARTCHAR 05-39
ENCODING 9543
SWIDTH 1010 0
DWIDTH 20 0
BBX 20 20 0 -3
BITMAP
000080
000060
000c20
1fff00
0c00c0
000040
000000
01ff00
fe41c0
606000
004000
00c000
008000
008000
010000
010000
020000
040000
080000
000000
ENDCHAR
STARTCHAR 05-40
ENCODING 9544
SWIDTH 1010 0
DWIDTH 20 0
BBX 20 20 0 -3
BITMAP
018000
00c000
00c000
008000
008000
008000
008000
008000
00e000
009c00
008700
008100
008000
008000
008000
008000
018000
018000
008000
000000
ENDCHAR
STARTCHAR 05-41
ENCODING 9545
SWIDTH 1010 0
DWIDTH 20 0
BBX 20 20 0 -3
BITMAP
018000
00c080
00c060
008220
008180
008080
008000
008000
00e000
009c00
008700
008100
008000
008000
008000
008000
018000
018000
008000
000000
ENDCHAR
STARTCHAR 05-42
ENCODING 9546
SWIDTH 1010 0
DWIDTH 20 0
BBX 20 20 0 -3
BITMAP
000000
006000
003000
002000
002000
002000
00ff80
7f20e0
302000
002000
004000
004000
004000
008000
008000
010000
010000
020000
040000
000000
ENDCHAR
STARTCHAR 05-43
ENCODING 9547
SWIDTH 1010 0
DWIDTH 20 0
BBX 20 20 0 -3
BITMAP
000000
000000
000000
000000
000000
080600
0fff00
060000
000000
000000
000000
000000
000000
000000
40ff80
3f00e0
100000
000000
000000
000000
ENDCHAR
STARTCHAR 05-44
ENCODING 9548
SWIDTH 1010 0
DWIDTH 20 0
BBX 20 20 0 -3
BITMAP
000000
000000
000100
003f80
0fc100
060200
000600
000400
00c800
003000
001800
002400
004200
008300
010180
060080
080000
300000
000000
000000
ENDCHAR
STARTCHAR 05-45
ENCODING 9549
SWIDTH 1010 0
DWIDTH 20 0
BBX 20 20 0 -3
BITMAP
00c000
003000
001000
000200
003f00
0fc600
040c00
001800
003000
006000
00dc00
012300
0221c0
0c2040
302000
002000
002000
002000
002000
000000
ENDCHAR
STARTCHAR 05-46
ENCODING 9550
SWIDTH 1010 0
DWIDTH 20 0
BBX 20 20 0 -3
BITMAP
000000
000000
000300
000180
000100
000300
000200
000600
000400
000800
000800
001000
002000
004000
008000
010000
020000
0c0000
300000
000000
ENDCHAR
STARTCHAR 05-47
ENCODING 9551
SWIDTH 1010 0
DWIDTH 20 0
BBX 20 20 0 -3
BITMAP
000000
000000
000000
000000
001000
040800
030400
020200
020100
060100
040080
0800c0
080040
100060
200020
c00020
000000
000000
000000
000000
ENDCHAR
STARTCHAR 05-48
ENCODING 9552
SWIDTH 1010 0
DWIDTH 20 0
BBX 20 20 0 -3
BITMAP
000000
000080
000460
000320
001100
040800
030400
020200
020100
060100
040080
0800c0
080040
100060
200020
c00020
000000
000000
000000
000000
ENDCHAR
STARTCHAR 05-49
ENCODING 9553
SWIDTH 1010 0
DWIDTH 20 0
BBX 20 20 0 -3
BITMAP
000000
0000c0
000120
000120
0010c0
040800
030400
020200
020100
060100
040080
0800c0
080040
100060
200020
c00020
000000
000000
000000
000000
ENDCHAR
STARTCHAR 05-50
ENCODING 9554
SWIDTH 1010 0
DWIDTH 20 0
BBX 20 20 0 -3
BITMAP
000000
180000
0c0000
0c0000
080000
080000
080200
081f00
0fe000
080000
080000
080000
080000
080000
080000
080000
060300
01fe00
000000
000000
ENDCHAR
STARTCHAR 05-51
ENCODING 9555
SWIDTH 1010 0
DWIDTH 20 0
BBX 20 20 0 -3
BITMAP
000080
180060
0c0220
0c0180
080080
080000
080200
081f00
0fe000
080000
080000
080000
080000
080000
080000
080000
060300
01fe00
000000
000000
ENDCHAR
STARTCHAR 05-52
ENCODING 9556
SWIDTH 1010 0
DWIDTH 20 0
BBX 20 20 0 -3
BITMAP
000000
1800c0
0c0120
0c0120
0800c0
080000
080200
081f00
0fe000
080000
080000
080000
080000
080000
080000
080000
060300
01fe00
000000
000000
ENDCHAR
STARTCHAR 05-53
ENCODING 9557
SWIDTH 1010 0
DWIDTH 20 0
BBX 20 20 0 -3
BITMAP
000000
000000
000000
000080
203fc0
3fc080
180080
000180
000100
000300
000200
000600
000400
000800
001000
002000
004000
018000
060000
000000
ENDCHAR
STARTCHAR 05-54
ENCODING 9558
SWIDTH 1010 0
DWIDTH 20 0
BBX 20 20 0 -3
BITMAP
000080
000260
0001a0
000280
407f00
7f8200
300200
000200
000600
000400
000c00
000800
001000
001000
002000
004000
008000
030000
0c0000
000000
ENDCHAR
STARTCHAR 05-55
ENCODING 9559
SWIDTH 1010 0
DWIDTH 20 0
BBX 20 20 0 -3
BITMAP
0000c0
000120
000120
0002c0
407f00
7f8200
300200
000200
000600
000400
000c00
000800
001000
001000
002000
004000
008000
030000
0c0000
000000
ENDCHAR
STARTCHAR 05-56
ENCODING 9560
SWIDTH 1010 0
DWIDTH 20 0
BBX 20 20 0 -3
BITMAP
000000
000000
000000
000000
010000
038000
024000
042000
081000
100800
700400
200200
000180
0000e0
000020
000000
000000
000000
000000
000000
ENDCHAR
STARTCHAR 05-57
ENCODING 9561
SWIDTH 1010 0
DWIDTH 20 0
BBX 20 20 0 -3
BITMAP
000000
000080
000060
000220
010180
038080
024000
042000
081000
100800
700400
200200
000180
0000e0
000020
000000
000000
000000
000000
000000
ENDCHAR
STARTCHAR 05-58
ENCODING 9562
SWIDTH 1010 0
DWIDTH 20 0
BBX 20 20 0 -3
BITMAP
000000
000000
000180
000240
010240
038180
024000
042000
081000
100800
700400
200200
000180
0000e0
000020
000000
000000
000000
000000
000000
ENDCHAR
STARTCHAR 05-59
ENCODING 9563
SWIDTH 1010 0
DWIDTH 20 0
BBX 20 20 0 -3
BITMAP
000000
00c000
006000
006000
004000
004000
007f00
7fc1c0
184000
004000
004400
084200
0c4100
084080
1040c0
204040
414000
00c000
008000
000000
ENDCHAR
STARTCHAR 05-60
ENCODING 9564
SWIDTH 1010 0
DWIDTH 20 0
BBX 20 20 0 -3
BITMAP
000080
00c260
0061a0
006080
004000
004000
007f00
7fc1c0
184000
004000
004400
084200
0c4100
084080
1040c0
204040
414000
00c000
008000
000000
ENDCHAR
STARTCHAR 05-61
ENCODING 9565
SWIDTH 1010 0
DWIDTH 20 0
BBX 20 20 0 -3
BITMAP
0000c0
00c120
006120
0060c0
004000
004000
007f00
7fc1c0
184000
004000
004400
084200
0c4100
084080
1040c0
204040
414000
00c000
008000
000000
ENDCHAR
STARTCHAR 05-62
ENCODING 9566
SWIDTH 1010 0
DWIDTH 20 0
BBX 20 20 0 -3
BITMAP
000000
000000
000000
000000
000040
003fe0
7fc180
180100
000200
000400
000800
033000
00c000
003000
001800
000c00
000400
000000
000000
000000
ENDCHAR
STARTCHAR 05-63
ENCODING 9567
SWIDTH 1010 0
DWIDTH 20 0
BBX 20 20 0 -3
BITMAP
000000
000000
030000
00e000
001800
000e00
000200
000000
030000
00e000
003800
000c00
000400
000000
0e0000
01c000
003000
001c00
000600
000200
ENDCHAR
STARTCHAR 05-64
ENCODING 9568
SWIDTH 1010 0
DWIDTH 20 0
BBX 20 20 0 -3
BITMAP
000000
000000
00c000
006000
004000
00c000
008000
008000
010000
010000
010800
020600
020100
040080
047fc0
7f8040
300040
000000
000000
000000
ENDCHAR
STARTCHAR 05-65
ENCODING 9569
SWIDTH 1010 0
DWIDTH 20 0
BBX 20 20 0 -3
BITMAP
000000
000000
000300
000180
000100
000300
000200
000600
018400
006c00
001800
001400
002200
004300
008100
010000
020000
0c0000
300000
000000
ENDCHAR
STARTCHAR 05-66
ENCODING 9570
SWIDTH 1010 0
DWIDTH 20 0
BBX 20 20 0 -3
BITMAP
000000
000000
000000
000600
1fff00
0c8000
00c000
008000
008180
009fe0
7fe000
308000
008000
008000
008000
008000
0040c0
003f80
000000
000000
ENDCHAR
STARTCHAR 05-67
ENCODING 9571
SWIDTH 1010 0
DWIDTH 20 0
BBX 20 20 0 -3
BITMAP
000000
000000
000000
000000
000000
030000
018000
008000
008100
009f80
03e200
3c8400
108800
004000
004000
004000
002000
002000
002000
000000
ENDCHAR
STARTCHAR 05-68
ENCODING 9572
SWIDTH 1010 0
DWIDTH 20 0
BBX 20 20 0 -3
BITMAP
000000
030000
070000
010000
010040
0087e0
00b8c0
01c100
7e8200
304400
004800
004000
002000
002000
002000
003000
001000
001000
001000
000000
ENDCHAR
STARTCHAR 05-69
ENCODING 9573
SWIDTH 1010 0
DWIDTH 20 0
BBX 20 20 0 -3
BITMAP
000000
000000
000000
000000
000000
000000
000000
000000
000800
07fc00
020800
000800
001800
001000
001000
01fe00
1e0380
080000
000000
000000
ENDCHAR
STARTCHAR 05-70
ENCODING 9574
SWIDTH 1010 0
DWIDTH 20 0
BBX 20 20 0 -3
BITMAP
000000
000000
000000
000000
000200
0fff00
060400
000400
000c00
000800
000800
001000
001000
01ff80
7e00e0
300000
000000
000000
000000
000000
ENDCHAR
STARTCHAR 05-71
ENCODING 9575
SWIDTH 1010 0
DWIDTH 20 0
BBX 20 20 0 -3
BITMAP
000000
000000
000000
000000
000000
000000
000200
0fff00
060200
000200
000400
07fc00
020400
000800
000800
000800
1ffc00
0c0400
000000
000000
ENDCHAR
STARTCHAR 05-72
ENCODING 9576
SWIDTH 1010 0
DWIDTH 20 0
BBX 20 20 0 -3
BITMAP
000000
000000
000000
000080
1fffc0
0c0080
000080
000080
000100
0fff00
060100
000100
000200
000200
000200
3fff00
180100
000000
000000
000000
ENDCHAR
STARTCHAR 05-73
ENCODING 9577
SWIDTH 1010 0
DWIDTH 20 0
BBX 20 20 0 -3
BITMAP
000000
000600
0fff00
060000
000000
000080
201fc0
3fe080
180080
000180
000100
000300
000200
000400
000800
001000
002000
00c000
030000
000000
ENDCHAR
STARTCHAR 05-74
ENCODING 9578
SWIDTH 1010 0
DWIDTH 20 0
BBX 20 20 0 -3
BITMAP
000000
000c00
0c0600
060200
020200
020200
020200
020200
020200
020400
020400
020400
000c00
000800
001000
001000
002000
004000
018000
000000
ENDCHAR
STARTCHAR 05-75
ENCODING 9579
SWIDTH 1010 0
DWIDTH 20 0
BBX 20 20 0 -3
BITMAP
000000
000000
006000
003000
0c3000
062000
062000
042000
042000
042000
0c2020
082040
082080
102100
102200
202c00
403800
801000
000000
000000
ENDCHAR
STARTCHAR 05-76
ENCODING 9580
SWIDTH 1010 0
DWIDTH 20 0
BBX 20 20 0 -3
BITMAP
000000
000000
0c0000
060000
020000
020000
020000
020000
020000
040040
040080
040100
040200
040400
041800
043000
04c000
0f8000
060000
000000
ENDCHAR
STARTCHAR 05-77
ENCODING 9581
SWIDTH 1010 0
DWIDTH 20 0
BBX 20 20 0 -3
BITMAP
000000
000000
000000
000000
200080
103fc0
1fe080
100080
100080
100080
080180
080100
080100
080100
080100
0fff00
080100
000000
000000
000000
ENDCHAR
STARTCHAR 05-78
ENCODING 9582
SWIDTH 1010 0
DWIDTH 20 0
BBX 20 20 0 -3
BITMAP
000000
000000
000000
000000
000000
000000
080200
043f00
07c200
040200
040600
040400
000400
000800
000800
001000
002000
004000
018000
000000
ENDCHAR
STARTCHAR 05-79
ENCODING 9583
SWIDTH 1010 0
DWIDTH 20 0
BBX 20 20 0 -3
BITMAP
000000
000000
100080
083fc0
0fc080
080080
080080
080180
080100
080300
000200
000200
000400
000400
000800
001000
002000
00c000
030000
000000
ENDCHAR
STARTCHAR 05-80
ENCODING 9584
SWIDTH 1010 0
DWIDTH 20 0
BBX 20 20 0 -3
BITMAP
000000
003000
001800
001000
001000
003f00
1fd180
041000
021000
031000
021000
027fc0
7f9060
301000
001000
001000
003000
003000
001000
000000
ENDCHAR
STARTCHAR 05-81
ENCODING 9585
SWIDTH 1010 0
DWIDTH 20 0
BBX 20 20 0 -3
BITMAP
000000
000000
000000
000000
001f00
1fe380
0c0600
00c800
005000
006000
004000
004000
004000
004000
00ff80
7f00e0
300000
000000
000000
000000
ENDCHAR
STARTCHAR 05-82
ENCODING 9586
SWIDTH 1010 0
DWIDTH 20 0
BBX 20 20 0 -3
BITMAP
000000
000000
000100
003f80
1fc100
060100
000200
000200
007f00
1f8400
060400
000800
000800
001000
002000
004000
008000
030000
0c0000
000000
ENDCHAR
STARTCHAR 05-83
ENCODING 9587
SWIDTH 1010 0
DWIDTH 20 0
BBX 20 20 0 -3
BITMAP
000000
000000
000000
180000
060000
030000
010040
000080
000100
000200
000400
000800
001000
002000
00c000
230000
1e0000
080000
000000
000000
ENDCHAR
STARTCHAR 05-84
ENCODING 9588
SWIDTH 1010 0
DWIDTH 20 0
BBX 20 20 0 -3
BITMAP
000080
018260
00c1a0
008080
408200
21ff00
3e0200
200200
200200
200600
200400
000400
000800
000800
001000
002000
004000
018000
060000
000000
ENDCHAR
STARTCHAR 05-85
ENCODING 9589
SWIDTH 1010 0
DWIDTH 20 0
BBX 20 20 0 -3
BITMAP
000000
000000
000000
000000
000000
00c000
006000
004000
004200
007f00
1fc200
088200
008200
010200
010400
020400
044400
083800
101000
000000
ENDCHAR
STARTCHAR 05-86
ENCODING 9590
SWIDTH 1010 0
DWIDTH 20 0
BBX 20 20 0 -3
BITMAP
000000
000000
000000
000000
000000
010000
018000
010000
030200
023f00
07e000
083000
102000
202000
004000
004000
008000
010000
060000
000000
ENDCHAR
STARTCHAR 06-01
ENCODING 9761
SWIDTH 1010 0
DWIDTH 20 0
BBX 20 20 0 -3
BITMAP
000000
000000
004000
004000
00e000
00a000
00a000
013000
011000
011800
020800
020800
07fc00
040400
040600
080200
080200
3e0f80
000000
000000
ENDCHAR
STARTCHAR 06-02
ENCODING 9762
SWIDTH 1010 0
DWIDTH 20 0
BBX 20 20 0 -3
BITMAP
000000
000000
0ff800
020400
020200
020200
020200
020400
020800
03f800
020400
020200
020100
020100
020100
020100
020200
0ffc00
000000
000000
ENDCHAR
STARTCHAR 06-03
ENCODING 9763
SWIDTH 1010 0
DWIDTH 20 0
BBX 20 20 0 -3
BITMAP
000000
000000
0fff00
020100
020100
020100
020000
020000
020000
020000
020000
020000
020000
020000
020000
020000
020000
0f8000
000000
000000
ENDCHAR
STARTCHAR 06-04
ENCODING 9764
SWIDTH 1010 0
DWIDTH 20 0
BBX 20 20 0 -3
BITMAP
000000
000000
004000
004000
00e000
00a000
013000
011000
011800
020800
020c00
040400
040600
080200
080300
100100
100180
3fff80
000000
000000
ENDCHAR
STARTCHAR 06-05
ENCODING 9765
SWIDTH 1010 0
DWIDTH 20 0
BBX 20 20 0 -3
BITMAP
000000
000000
0fff00
020100
020100
020100
021000
021000
021000
03f000
021000
021000
021000
020000
020100
020100
020100
0fff00
000000
000000
ENDCHAR
STARTCHAR 06-06
ENCODING 9766
SWIDTH 1010 0
DWIDTH 20 0
BBX 20 20 0 -3
BITMAP
000000
000000
0fff00
080600
080c00
080800
001800
003000
002000
006000
00c000
008000
018000
030000
020100
060100
0c0100
1fff00
000000
000000
ENDCHAR
STARTCHAR 06-07
ENCODING 9767
SWIDTH 1010 0
DWIDTH 20 0
BBX 20 20 0 -3
BITMAP
000000
000000
1f0f80
040200
040200
040200
040200
040200
040200
07fe00
040200
040200
040200
040200
040200
040200
040200
1f0f80
000000
000000
ENDCHAR
STARTCHAR 06-08
ENCODING 9768
SWIDTH 1010 0
DWIDTH 20 0
BBX 20 20 0 -3
BITMAP
000000
000000
00f000
030c00
040200
080100
080100
110880
110880
11f880
110880
110880
110880
080100
080100
040200
030c00
00f000
000000
000000
ENDCHAR
STARTCHAR 06-09
ENCODING 9769
SWIDTH 1010 0
DWIDTH 20 0
BBX 20 20 0 -3
BITMAP
000000
000000
03f800
004000
004000
004000
004000
004000
004000
004000
004000
004000
004000
004000
004000
004000
004000
03f800
000000
000000
ENDCHAR
STARTCHAR 06-10
ENCODING 9770
SWIDTH 1010 0
DWIDTH 20 0
BBX 20 20 0 -3
BITMAP
000000
000000
1f3f00
040400
040800
041000
042000
044000
048000
070000
058000
04c000
046000
043000
041800
040c00
040600
1f1f80
000000
000000
ENDCHAR
STARTCHAR 06-11
ENCODING 9771
SWIDTH 1010 0
DWIDTH 20 0
BBX 20 20 0 -3
BITMAP
000000
000000
004000
004000
00e000
00a000
00b000
011000
011000
011800
020800
020c00
060400
040400
040600
080200
080200
3e0f80
000000
000000
ENDCHAR
STARTCHAR 06-12
ENCODING 9772
SWIDTH 1010 0
DWIDTH 20 0
BBX 20 20 0 -3
BITMAP
000000
000000
7001e0
100180
180280
180280
1c0480
140480
160880
120880
131080
111080
11a080
10a080
10c080
104080
104080
7c03e0
000000
000000
ENDCHAR
STARTCHAR 06-13
ENCODING 9773
SWIDTH 1010 0
DWIDTH 20 0
BBX 20 20 0 -3
BITMAP
000000
000000
1c0f80
0e0200
0a0200
0b0200
098200
088200
08c200
086200
082200
083200
081a00
080a00
080e00
080600
080200
3e0200
000000
000000
ENDCHAR
STARTCHAR 06-14
ENCODING 9774
SWIDTH 1010 0
DWIDTH 20 0
BBX 20 20 0 -3
BITMAP
000000
000000
1fff00
100100
100100
100100
000000
020800
020800
03f800
020800
020800
000000
100100
100100
100100
100100
1fff00
000000
000000
ENDCHAR
STARTCHAR 06-15
ENCODING 9775
SWIDTH 1010 0
DWIDTH 20 0
BBX 20 20 0 -3
BITMAP
000000
000000
00f000
030c00
040200
080100
080100
180080
100080
100080
100080
100080
100180
080100
080100
040200
030c00
00f000
000000
000000
ENDCHAR
STARTCHAR 06-16
ENCODING 9776
SWIDTH 1010 0
DWIDTH 20 0
BBX 20 20 0 -3
BITMAP
000000
000000
1fff00
040400
040400
040400
040400
040400
040400
040400
040400
040400
040400
040400
040400
040400
040400
1f1f00
000000
000000
ENDCHAR
STARTCHAR 06-17
ENCODING 9777
SWIDTH 1010 0
DWIDTH 20 0
BBX 20 20 0 -3
BITMAP
000000
000000
0ffc00
020200
020100
020100
020100
020100
020200
03fc00
020000
020000
020000
020000
020000
020000
020000
0f8000
000000
000000
ENDCHAR
STARTCHAR 06-18
ENCODING 9778
SWIDTH 1010 0
DWIDTH 20 0
BBX 20 20 0 -3
BITMAP
000000
000000
1fff00
0c0100
060100
030100
018000
00c000
006000
003000
004000
008000
010000
020100
040100
080100
100100
1fff00
000000
000000
ENDCHAR
STARTCHAR 06-19
ENCODING 9779
SWIDTH 1010 0
DWIDTH 20 0
BBX 20 20 0 -3
BITMAP
000000
000000
3fff80
204080
204080
204080
004000
004000
004000
004000
004000
004000
004000
004000
004000
004000
004000
01f000
000000
000000
ENDCHAR
STARTCHAR 06-20
ENCODING 9780
SWIDTH 1010 0
DWIDTH 20 0
BBX 20 20 0 -3
BITMAP
000000
000000
071c00
18a300
204080
204080
404040
404040
004000
004000
004000
004000
004000
004000
004000
004000
004000
03f800
000000
000000
ENDCHAR
STARTCHAR 06-21
ENCODING 9781
SWIDTH 1010 0
DWIDTH 20 0
BBX 20 20 0 -3
BITMAP
000000
000000
01f000
004000
004000
03f800
0c4600
104100
204080
204080
204080
204080
104100
0c4600
03f800
004000
004000
01f000
000000
000000
ENDCHAR
STARTCHAR 06-22
ENCODING 9782
SWIDTH 1010 0
DWIDTH 20 0
BBX 20 20 0 -3
BITMAP
000000
000000
1f0f80
040200
060200
030400
010800
019000
00d000
006000
007000
009000
011800
010c00
020400
040600
040300
1f0fc0
000000
000000
ENDCHAR
STARTCHAR 06-23
ENCODING 9783
SWIDTH 1010 0
DWIDTH 20 0
BBX 20 20 0 -3
BITMAP
000000
000000
01f000
384380
444440
044400
044400
044400
044400
044400
024800
024800
01f000
004000
004000
004000
004000
01f000
000000
000000
ENDCHAR
STARTCHAR 06-24
ENCODING 9784
SWIDTH 1010 0
DWIDTH 20 0
BBX 20 20 0 -3
BITMAP
000000
000000
01f800
060600
080100
080100
100080
100080
100080
080100
080100
040200
020400
110880
109080
109080
109080
1f9f80
000000
000000
ENDCHAR
STARTCHAR 06-33
ENCODING 9793
SWIDTH 1010 0
DWIDTH 20 0
BBX 20 20 0 -3
BITMAP
000000
000000
000000
000000
000000
000000
000000
00e300
011200
021200
041400
041400
081800
081000
082900
044a00
038400
000000
000000
000000
ENDCHAR
STARTCHAR 06-34
ENCODING 9794
SWIDTH 1010 0
DWIDTH 20 0
BBX 20 20 0 -3
BITMAP
000000
001e00
002100
004100
004100
008100
008200
013400
010800
020400
020200
040200
040200
040200
080400
090400
18f800
100000
100000
100000
ENDCHAR
STARTCHAR 06-35
ENCODING 9795
SWIDTH 1010 0
DWIDTH 20 0
BBX 20 20 0 -3
BITMAP
000000
000000
000000
000000
000000
000000
000000
000000
078300
084600
104400
004800
005000
006000
004000
008000
008000
018000
010000
010000
ENDCHAR
STARTCHAR 06-36
ENCODING 9796
SWIDTH 1010 0
DWIDTH 20 0
BBX 20 20 0 -3
BITMAP
000000
00f000
010c00
010200
008300
004100
002000
007000
018800
020800
040400
080400
080400
080800
080800
043000
03c000
000000
000000
000000
ENDCHAR
STARTCHAR 06-37
ENCODING 9797
SWIDTH 1010 0
DWIDTH 20 0
BBX 20 20 0 -3
BITMAP
000000
000000
000000
000000
000000
000000
000000
00fc00
010200
020000
010000
00f800
030000
040000
040000
030600
00f800
000000
000000
000000
ENDCHAR
STARTCHAR 06-38
ENCODING 9798
SWIDTH 1010 0
DWIDTH 20 0
BBX 20 20 0 -3
BITMAP
000000
010000
020200
040600
040800
03f000
002000
004000
008000
010000
020000
040000
040000
030000
00c000
003000
000800
000800
000800
007000
ENDCHAR
STARTCHAR 06-39
ENCODING 9799
SWIDTH 1010 0
DWIDTH 20 0
BBX 20 20 0 -3
BITMAP
000000
000000
000000
000000
000000
000000
000000
071c00
08a200
00c100
018100
010200
020200
020400
040400
040800
0c0800
001000
001000
003000
ENDCHAR
STARTCHAR 06-40
ENCODING 9800
SWIDTH 1010 0
DWIDTH 20 0
BBX 20 20 0 -3
BITMAP
000000
003800
00c400
010200
010200
020200
040200
040200
07fe00
080400
080400
080400
080800
081000
081000
046000
038000
000000
000000
000000
ENDCHAR
STARTCHAR 06-41
ENCODING 9801
SWIDTH 1010 0
DWIDTH 20 0
BBX 20 20 0 -3
BITMAP
000000
000000
000000
000000
000000
000000
000000
008000
008000
010000
010000
020000
020200
040400
040800
023000
01c000
000000
000000
000000
ENDCHAR
STARTCHAR 06-42
ENCODING 9802
SWIDTH 1010 0
DWIDTH 20 0
BBX 20 20 0 -3
BITMAP
000000
000000
000000
000000
000000
000000
000000
010c00
011200
022200
024000
03c000
044000
044000
044200
082400
081800
000000
000000
000000
ENDCHAR
STARTCHAR 06-43
ENCODING 9803
SWIDTH 1010 0
DWIDTH 20 0
BBX 20 20 0 -3
BITMAP
000000
006000
001000
001000
001000
001000
001000
003000
005800
004800
008800
010800
010400
020400
020600
040200
0c0300
000000
000000
000000
ENDCHAR
STARTCHAR 06-44
ENCODING 9804
SWIDTH 1010 0
DWIDTH 20 0
BBX 20 20 0 -3
BITMAP
000000
000000
000000
000000
000000
000000
000000
030400
020400
020400
020800
040800
040800
041000
0c1080
0a2900
09c600
080000
100000
100000
ENDCHAR
STARTCHAR 06-45
ENCODING 9805
SWIDTH 1010 0
DWIDTH 20 0
BBX 20 20 0 -3
BITMAP
000000
000000
000000
000000
000000
000000
000000
060100
020100
010200
010200
020400
020800
041000
046000
0d8000
060000
000000
000000
000000
ENDCHAR
STARTCHAR 06-46
ENCODING 9806
SWIDTH 1010 0
DWIDTH 20 0
BBX 20 20 0 -3
BITMAP
000000
001e00
002000
004000
002000
00fe00
010000
020000
010000
00fe00
070000
080000
080000
040000
03c000
003800
000400
000400
001800
03e000
ENDCHAR
STARTCHAR 06-47
ENCODING 9807
SWIDTH 1010 0
DWIDTH 20 0
BBX 20 20 0 -3
BITMAP
000000
000000
000000
000000
000000
000000
000000
007800
018400
020200
020200
040200
040200
040400
040400
021800
01e000
000000
000000
000000
ENDCHAR
STARTCHAR 06-48
ENCODING 9808
SWIDTH 1010 0
DWIDTH 20 0
BBX 20 20 0 -3
BITMAP
000000
000000
000000
000000
000000
000000
000100
07fe00
088800
010800
011000
021000
022000
022000
042100
042200
0c1c00
000000
000000
000000
ENDCHAR
STARTCHAR 06-49
ENCODING 9809
SWIDTH 1010 0
DWIDTH 20 0
BBX 20 20 0 -3
BITMAP
000000
000000
000000
000000
000000
000000
000000
007800
008400
010200
020200
020200
040200
040400
040400
0d1800
08e000
080000
080000
180000
ENDCHAR
STARTCHAR 06-50
ENCODING 9810
SWIDTH 1010 0
DWIDTH 20 0
BBX 20 20 0 -3
BITMAP
000000
000000
000000
000000
000000
000100
000180
007f00
018800
020400
020200
040200
040400
040400
040800
021000
01e000
000000
000000
000000
ENDCHAR
STARTCHAR 06-51
ENCODING 9811
SWIDTH 1010 0
DWIDTH 20 0
BBX 20 20 0 -3
BITMAP
000000
000000
000000
000000
000000
000000
000100
07fe00
084000
008000
008000
010000
010000
020400
020800
013000
00c000
000000
000000
000000
ENDCHAR
STARTCHAR 06-52
ENCODING 9812
SWIDTH 1010 0
DWIDTH 20 0
BBX 20 20 0 -3
BITMAP
000000
000000
000000
000000
000000
000000
000000
060400
010200
010200
020200
040200
040400
040400
040800
023000
01c000
000000
000000
000000
ENDCHAR
STARTCHAR 06-53
ENCODING 9813
SWIDTH 1010 0
DWIDTH 20 0
BBX 20 20 0 -3
BITMAP
000000
000c00
000800
000800
001000
001000
001000
01fc00
062200
042100
082100
084100
084200
044600
03f800
008000
008000
010000
010000
030000
ENDCHAR
STARTCHAR 06-54
ENCODING 9814
SWIDTH 1010 0
DWIDTH 20 0
BBX 20 20 0 -3
BITMAP
000000
000000
000000
000000
000000
000000
000000
038300
044600
004400
004800
005000
006000
004000
00c000
014000
024000
044000
082200
101c00
ENDCHAR
STARTCHAR 06-55
ENCODING 9815
SWIDTH 1010 0
DWIDTH 20 0
BBX 20 20 0 -3
BITMAP
000000
000c00
000800
000800
001000
001000
001000
0c2200
122200
022200
024200
044400
084400
088800
049000
03e000
010000
010000
010000
030000
ENDCHAR
STARTCHAR 06-56
ENCODING 9816
SWIDTH 1010 0
DWIDTH 20 0
BBX 20 20 0 -3
BITMAP
000000
000000
000000
000000
000000
000000
000000
030100
042080
082080
082040
104040
104080
104080
10c100
092200
061c00
000000
000000
000000
ENDCHAR
STARTCHAR 07-01
ENCODING 10017
SWIDTH 1010 0
DWIDTH 20 0
BBX 20 20 0 -3
BITMAP
000000
000000
004000
004000
00e000
00a000
00a000
013000
011000
011800
020800
020800
07fc00
040400
040600
080200
080200
3e0f80
000000
000000
ENDCHAR
STARTCHAR 07-02
ENCODING 10018
SWIDTH 1010 0
DWIDTH 20 0
BBX 20 20 0 -3
BITMAP
000000
000000
0ffe00
020200
020200
020200
020000
020000
020000
03fc00
020200
020100
020100
020100
020100
020100
020200
0ffc00
000000
000000
ENDCHAR
STARTCHAR 07-03
ENCODING 10019
SWIDTH 1010 0
DWIDTH 20 0
BBX 20 20 0 -3
BITMAP
000000
000000
0ff800
020400
020200
020200
020200
020400
020800
03f800
020400
020200
020100
020100
020100
020100
020200
0ffc00
000000
000000
ENDCHAR
STARTCHAR 07-04
ENCODING 10020
SWIDTH 1010 0
DWIDTH 20 0
BBX 20 20 0 -3
BITMAP
000000
000000
0ffe00
020200
020100
020100
020000
020000
020000
020000
020000
020000
020000
020000
020000
020000
020000
0f8000
000000
000000
ENDCHAR
STARTCHAR 07-05
ENCODING 10021
SWIDTH 1010 0
DWIDTH 20 0
BBX 20 20 0 -3
BITMAP
000000
000000
03ff80
008200
008200
008200
008200
008200
010200
010200
010200
020200
020200
020200
040200
040200
080200
3fff80
200080
200080
ENDCHAR
STARTCHAR 07-06
ENCODING 10022
SWIDTH 1010 0
DWIDTH 20 0
BBX 20 20 0 -3
BITMAP
000000
000000
1ffe00
040200
040100
040100
042000
042000
042000
07e000
042000
042000
042000
040100
040100
040100
040200
1ffe00
000000
000000
ENDCHAR
STARTCHAR 07-07
ENCODING 10023
SWIDTH 1010 0
DWIDTH 20 0
BBX 20 20 0 -3
BITMAP
061800
061800
000000
1ffe00
040200
040100
040100
042000
042000
042000
07a000
046000
042000
042000
040100
040100
040200
1ffe00
000000
000000
ENDCHAR
STARTCHAR 07-08
ENCODING 10024
SWIDTH 1010 0
DWIDTH 20 0
BBX 20 20 0 -3
BITMAP
000000
000000
31f180
484240
6842c0
044400
044400
044400
024800
01f000
015000
024800
024800
044400
044400
084200
104100
7ce7c0
000000
000000
ENDCHAR
STARTCHAR 07-09
ENCODING 10025
SWIDTH 1010 0
DWIDTH 20 0
BBX 20 20 0 -3
BITMAP
000000
000000
03f800
040400
080200
080300
000300
000200
000400
00f800
000400
000200
000300
000100
080300
080200
040400
03f800
000000
000000
ENDCHAR
STARTCHAR 07-10
ENCODING 10026
SWIDTH 1010 0
DWIDTH 20 0
BBX 20 20 0 -3
BITMAP
000000
000000
3c0f80
080600
080a00
081200
081200
082200
084200
084200
088200
088200
090200
0a0200
0a0200
0c0200
080200
3e0f80
000000
000000
ENDCHAR
STARTCHAR 07-11
ENCODING 10027
SWIDTH 1010 0
DWIDTH 20 0
BBX 20 20 0 -3
BITMAP
033000
021000
01e000
3c0f80
080200
080600
080a00
081200
082200
082200
084200
088200
088200
090200
0a0200
0c0200
080200
3e0f80
000000
000000
ENDCHAR
STARTCHAR 07-12
ENCODING 10028
SWIDTH 1010 0
DWIDTH 20 0
BBX 20 20 0 -3
BITMAP
000000
000000
1f0600
040900
041300
042000
042000
044000
048000
070000
048000
044000
042000
041000
040800
040400
040600
1f0f80
000000
000000
ENDCHAR
STARTCHAR 07-13
ENCODING 10029
SWIDTH 1010 0
DWIDTH 20 0
BBX 20 20 0 -3
BITMAP
000000
000000
03ff80
008200
008200
008200
008200
008200
008200
008200
010200
010200
010200
010200
020200
320200
240200
180f80
000000
000000
ENDCHAR
STARTCHAR 07-14
ENCODING 10030
SWIDTH 1010 0
DWIDTH 20 0
BBX 20 20 0 -3
BITMAP
000000
000000
7803c0
180300
1c0300
140500
140500
160900
120900
131100
111180
21a080
20a080
20c080
204080
204080
200080
f803e0
000000
000000
ENDCHAR
STARTCHAR 07-15
ENCODING 10031
SWIDTH 1010 0
DWIDTH 20 0
BBX 20 20 0 -3
BITMAP
000000
000000
3e0f80
080200
080200
080200
080200
080200
080200
0ffe00
080200
080200
080200
080200
080200
080200
080200
3e0f80
000000
000000
ENDCHAR
STARTCHAR 07-16
ENCODING 10032
SWIDTH 1010 0
DWIDTH 20 0
BBX 20 20 0 -3
BITMAP
000000
000000
00f000
030c00
040200
080100
080100
180080
100080
100080
100080
100080
100180
080100
080100
040200
030c00
00f000
000000
000000
ENDCHAR
STARTCHAR 07-17
ENCODING 10033
SWIDTH 1010 0
DWIDTH 20 0
BBX 20 20 0 -3
BITMAP
000000
000000
1fff80
040200
040200
040200
040200
040200
040200
040200
040200
040200
040200
040200
040200
040200
040200
1f0f80
000000
000000
ENDCHAR
STARTCHAR 07-18
ENCODING 10034
SWIDTH 1010 0
DWIDTH 20 0
BBX 20 20 0 -3
BITMAP
000000
000000
0ffc00
020200
020100
020100
020100
020100
020200
03fc00
020000
020000
020000
020000
020000
020000
020000
0f8000
000000
000000
ENDCHAR
STARTCHAR 07-19
ENCODING 10035
SWIDTH 1010 0
DWIDTH 20 0
BBX 20 20 0 -3
BITMAP
000000
000000
01fc00
020300
040100
080100
080080
100000
100000
100000
100000
100000
100000
080000
080080
040100
020600
01f800
000000
000000
ENDCHAR
STARTCHAR 07-20
ENCODING 10036
SWIDTH 1010 0
DWIDTH 20 0
BBX 20 20 0 -3
BITMAP
000000
000000
3fff80
204080
204080
204080
004000
004000
004000
004000
004000
004000
004000
004000
004000
004000
004000
01f000
000000
000000
ENDCHAR
STARTCHAR 07-21
ENCODING 10037
SWIDTH 1010 0
DWIDTH 20 0
BBX 20 20 0 -3
BITMAP
000000
000000
1f87c0
040100
060100
020200
030200
010400
018400
008800
00c800
005000
003000
002000
182000
184000
108000
0f0000
000000
000000
ENDCHAR
STARTCHAR 07-22
ENCODING 10038
SWIDTH 1010 0
DWIDTH 20 0
BBX 20 20 0 -3
BITMAP
000000
000000
01f000
004000
004000
03f800
0c4600
104100
204080
204080
204080
204080
104100
0c4600
03f800
004000
004000
01f000
000000
000000
ENDCHAR
STARTCHAR 07-23
ENCODING 10039
SWIDTH 1010 0
DWIDTH 20 0
BBX 20 20 0 -3
BITMAP
000000
000000
1f0f80
040200
060400
020800
030800
019000
00a000
00c000
006000
00b000
011000
011800
020c00
040400
040600
1f0f80
000000
000000
ENDCHAR
STARTCHAR 07-24
ENCODING 10040
SWIDTH 1010 0
DWIDTH 20 0
BBX 20 20 0 -3
BITMAP
000000
000000
1f0f80
040200
040200
040200
040200
040200
040200
040200
040200
040200
040200
040200
040200
040200
040200
1fff80
000080
000080
ENDCHAR
STARTCHAR 07-25
ENCODING 10041
SWIDTH 1010 0
DWIDTH 20 0
BBX 20 20 0 -3
BITMAP
000000
000000
1f0f80
040200
040200
040200
040200
040200
040200
040200
040e00
021200
01e200
000200
000200
000200
000200
000f80
000000
000000
ENDCHAR
STARTCHAR 07-26
ENCODING 10042
SWIDTH 1010 0
DWIDTH 20 0
BBX 20 20 0 -3
BITMAP
000000
000000
f9f3e0
204080
204080
204080
204080
204080
204080
204080
204080
204080
204080
204080
204080
204080
204080
ffffe0
000000
000000
ENDCHAR
STARTCHAR 07-27
ENCODING 10043
SWIDTH 1010 0
DWIDTH 20 0
BBX 20 20 0 -3
BITMAP
000000
000000
f9f3e0
204080
204080
204080
204080
204080
204080
204080
204080
204080
204080
204080
204080
204080
204080
ffffe0
000020
000020
ENDCHAR
STARTCHAR 07-28
ENCODING 10044
SWIDTH 1010 0
DWIDTH 20 0
BBX 20 20 0 -3
BITMAP
000000
000000
3fc000
210000
210000
210000
010000
010000
010000
01fe00
010100
010080
010080
010080
010080
010080
010100
07fe00
000000
000000
ENDCHAR
STARTCHAR 07-29
ENCODING 10045
SWIDTH 1010 0
DWIDTH 20 0
BBX 20 20 0 -3
BITMAP
000000
000000
7c07c0
100100
100100
100100
100100
100100
100100
1fc100
102100
101100
101100
101100
101100
102100
102100
7fc7c0
000000
000000
ENDCHAR
STARTCHAR 07-30
ENCODING 10046
SWIDTH 1010 0
DWIDTH 20 0
BBX 20 20 0 -3
BITMAP
000000
000000
0f8000
020000
020000
020000
020000
020000
020000
03fc00
020200
020100
020100
020100
020100
020100
020600
0ff800
000000
000000
ENDCHAR
STARTCHAR 07-31
ENCODING 10047
SWIDTH 1010 0
DWIDTH 20 0
BBX 20 20 0 -3
BITMAP
000000
000000
03f000
0c0c00
100200
000200
000100
000100
038100
044700
003900
000100
000100
000100
000200
100200
0c0c00
03f000
000000
000000
ENDCHAR
STARTCHAR 07-32
ENCODING 10048
SWIDTH 1010 0
DWIDTH 20 0
BBX 20 20 0 -3
BITMAP
000000
000000
7c1e00
102100
104080
104080
108040
108040
108040
1f8040
108040
108040
108040
108040
104080
104080
102100
7c1e00
000000
000000
ENDCHAR
STARTCHAR 07-33
ENCODING 10049
SWIDTH 1010 0
DWIDTH 20 0
BBX 20 20 0 -3
BITMAP
000000
000000
03ff80
040200
080200
080200
080200
080200
040200
03fe00
008200
008200
010200
010200
020200
040200
080200
300f80
000000
000000
ENDCHAR
STARTCHAR 07-49
ENCODING 10065
SWIDTH 1010 0
DWIDTH 20 0
BBX 20 20 0 -3
BITMAP
000000
000000
000000
000000
000000
000000
000000
00f000
030800
020400
060400
003c00
01c400
020400
040400
040400
021d00
01e600
000000
000000
ENDCHAR
STARTCHAR 07-50
ENCODING 10066
SWIDTH 1010 0
DWIDTH 20 0
BBX 20 20 0 -3
BITMAP
000000
000200
000c00
007000
018000
020000
020000
04f800
070400
040400
040200
040200
040200
040200
040200
020400
030800
00f000
000000
000000
ENDCHAR
STARTCHAR 07-51
ENCODING 10067
SWIDTH 1010 0
DWIDTH 20 0
BBX 20 20 0 -3
BITMAP
000000
000000
000000
000000
000000
000000
000000
07f000
010800
010400
010400
010800
01f800
010400
010400
010400
010400
07f800
000000
000000
ENDCHAR
STARTCHAR 07-52
ENCODING 10068
SWIDTH 1010 0
DWIDTH 20 0
BBX 20 20 0 -3
BITMAP
000000
000000
000000
000000
000000
000000
000000
03fe00
008200
008200
008200
008000
008000
008000
008000
008000
008000
03e000
000000
000000
ENDCHAR
STARTCHAR 07-53
ENCODING 10069
SWIDTH 1010 0
DWIDTH 20 0
BBX 20 20 0 -3
BITMAP
000000
000000
000000
000000
000000
000000
000000
03ff00
008400
008400
008400
008400
010400
010400
010400
020400
020400
0fff00
080100
080100
ENDCHAR
STARTCHAR 07-54
ENCODING 10070
SWIDTH 1010 0
DWIDTH 20 0
BBX 20 20 0 -3
BITMAP
000000
000000
000000
000000
000000
000000
000000
01f000
020800
040400
040400
07fc00
040000
040000
040000
040400
020800
01f000
000000
000000
ENDCHAR
STARTCHAR 07-55
ENCODING 10071
SWIDTH 1010 0
DWIDTH 20 0
BBX 20 20 0 -3
BITMAP
000000
000000
000000
031800
031800
000000
000000
01f000
020800
040400
040400
07fc00
040000
040000
040000
040400
020800
01f000
000000
000000
ENDCHAR
STARTCHAR 07-56
ENCODING 10072
SWIDTH 1010 0
DWIDTH 20 0
BBX 20 20 0 -3
BITMAP
000000
000000
000000
000000
000000
000000
000000
19f300
244480
324980
024800
015000
01f000
024800
044400
084200
104100
7df7c0
000000
000000
ENDCHAR
STARTCHAR 07-57
ENCODING 10073
SWIDTH 1010 0
DWIDTH 20 0
BBX 20 20 0 -3
BITMAP
000000
000000
000000
000000
000000
000000
000000
01f000
020800
040400
000400
000800
007000
000800
000400
040400
020800
01f000
000000
000000
ENDCHAR
STARTCHAR 07-58
ENCODING 10074
SWIDTH 1010 0
DWIDTH 20 0
BBX 20 20 0 -3
BITMAP
000000
000000
000000
000000
000000
000000
000000
0f9f00
020c00
021400
022400
022400
024400
028400
028400
030400
020400
0f9f00
000000
000000
ENDCHAR
STARTCHAR 07-59
ENCODING 10075
SWIDTH 1010 0
DWIDTH 20 0
BBX 20 20 0 -3
BITMAP
000000
000000
000000
039c00
020400
01f800
000000
0f9f00
020c00
021400
022400
022400
024400
028400
028400
030400
020400
0f1f00
000000
000000
ENDCHAR
STARTCHAR 07-60
ENCODING 10076
SWIDTH 1010 0
DWIDTH 20 0
BBX 20 20 0 -3
BITMAP
000000
000000
000000
000000
000000
000000
000000
0f8c00
021600
022400
022000
024000
038000
024000
022000
021000
020800
0f3e00
000000
000000
ENDCHAR
STARTCHAR 07-61
ENCODING 10077
SWIDTH 1010 0
DWIDTH 20 0
BBX 20 20 0 -3
BITMAP
000000
000000
000000
000000
000000
000000
000000
03fe00
008800
008800
008800
008800
008800
010800
010800
090800
1a0800
0c3e00
000000
000000
ENDCHAR
STARTCHAR 07-62
ENCODING 10078
SWIDTH 1010 0
DWIDTH 20 0
BBX 20 20 0 -3
BITMAP
000000
000000
000000
000000
000000
000000
000000
0f9f80
020600
020e00
050a00
051200
049200
04a300
086100
084100
084100
3e07c0
000000
000000
ENDCHAR
STARTCHAR 07-63
ENCODING 10079
SWIDTH 1010 0
DWIDTH 20 0
BBX 20 20 0 -3
BITMAP
000000
000000
000000
000000
000000
000000
000000
0f9f00
020400
020400
020400
020400
03fc00
020400
020400
020400
020400
0f9f00
000000
000000
ENDCHAR
STARTCHAR 07-64
ENCODING 10080
SWIDTH 1010 0
DWIDTH 20 0
BBX 20 20 0 -3
BITMAP
000000
000000
000000
000000
000000
000000
000000
01f000
020800
040400
040400
040400
040400
040400
040400
040400
020800
01f000
000000
000000
ENDCHAR
STARTCHAR 07-65
ENCODING 10081
SWIDTH 1010 0
DWIDTH 20 0
BBX 20 20 0 -3
BITMAP
000000
000000
000000
000000
000000
000000
000000
0fff00
020400
020400
020400
020400
020400
020400
020400
020400
020400
0f9f00
000000
000000
ENDCHAR
STARTCHAR 07-66
ENCODING 10082
SWIDTH 1010 0
DWIDTH 20 0
BBX 20 20 0 -3
BITMAP
000000
000000
000000
000000
000000
000000
000000
0ef000
030c00
020400
020200
020200
020200
020200
020400
030c00
02f000
020000
020000
0f8000
ENDCHAR
STARTCHAR 07-67
ENCODING 10083
SWIDTH 1010 0
DWIDTH 20 0
BBX 20 20 0 -3
BITMAP
000000
000000
000000
000000
000000
000000
000000
01f000
020800
040400
040c00
040000
040000
040000
040000
040400
020800
01f000
000000
000000
ENDCHAR
STARTCHAR 07-68
ENCODING 10084
SWIDTH 1010 0
DWIDTH 20 0
BBX 20 20 0 -3
BITMAP
000000
000000
000000
000000
000000
000000
000000
0ffe00
084200
084200
084200
004000
004000
004000
004000
004000
004000
01f000
000000
000000
ENDCHAR
STARTCHAR 07-69
ENCODING 10085
SWIDTH 1010 0
DWIDTH 20 0
BBX 20 20 0 -3
BITMAP
000000
000000
000000
000000
000000
000000
000000
078f00
020400
020400
010800
010800
009000
009000
006000
006000
004000
0c4000
088000
070000
ENDCHAR
STARTCHAR 07-70
ENCODING 10086
SWIDTH 1010 0
DWIDTH 20 0
BBX 20 20 0 -3
BITMAP
000000
004000
01c000
004000
004000
004000
004000
075c00
08e200
104100
104100
104100
104100
104100
08e200
075c00
004000
004000
004000
01f000
ENDCHAR
STARTCHAR 07-71
ENCODING 10087
SWIDTH 1010 0
DWIDTH 20 0
BBX 20 20 0 -3
BITMAP
000000
000000
000000
000000
000000
000000
000000
0f9f00
020400
030800
019000
00e000
006000
007000
009800
010c00
020400
0f9f00
000000
000000
ENDCHAR
STARTCHAR 07-72
ENCODING 10088
SWIDTH 1010 0
DWIDTH 20 0
BBX 20 20 0 -3
BITMAP
000000
000000
000000
000000
000000
000000
000000
0f9f00
020400
020400
020400
020400
020400
020400
020400
020400
020400
0fff00
000100
000100
ENDCHAR
STARTCHAR 07-73
ENCODING 10089
SWIDTH 1010 0
DWIDTH 20 0
BBX 20 20 0 -3
BITMAP
000000
000000
000000
000000
000000
000000
000000
0f9f00
020400
020400
020400
020400
020400
021c00
01e400
000400
000400
001f00
000000
000000
ENDCHAR
STARTCHAR 07-74
ENCODING 10090
SWIDTH 1010 0
DWIDTH 20 0
BBX 20 20 0 -3
BITMAP
000000
000000
000000
000000
000000
000000
000000
7df7c0
104100
104100
104100
104100
104100
104100
104100
104100
104100
7fffc0
000000
000000
ENDCHAR
STARTCHAR 07-75
ENCODING 10091
SWIDTH 1010 0
DWIDTH 20 0
BBX 20 20 0 -3
BITMAP
000000
000000
000000
000000
000000
000000
000000
7df7c0
104100
104100
104100
104100
104100
104100
104100
104100
104100
7fffc0
000040
000040
ENDCHAR
STARTCHAR 07-76
ENCODING 10092
SWIDTH 1010 0
DWIDTH 20 0
BBX 20 20 0 -3
BITMAP
000000
000000
000000
000000
000000
000000
000000
1fe000
108000
108000
108000
008000
00fc00
008200
008100
008100
008200
03fc00
000000
000000
ENDCHAR
STARTCHAR 07-77
ENCODING 10093
SWIDTH 1010 0
DWIDTH 20 0
BBX 20 20 0 -3
BITMAP
000000
000000
000000
000000
000000
000000
000000
3e0f80
080200
080200
080200
080200
0f8200
084200
082200
082200
084200
3f8f80
000000
000000
ENDCHAR
STARTCHAR 07-78
ENCODING 10094
SWIDTH 1010 0
DWIDTH 20 0
BBX 20 20 0 -3
BITMAP
000000
000000
000000
000000
000000
000000
000000
07c000
010000
010000
010000
010000
01f800
010400
010200
010200
010400
07f800
000000
000000
ENDCHAR
STARTCHAR 07-79
ENCODING 10095
SWIDTH 1010 0
DWIDTH 20 0
BBX 20 20 0 -3
BITMAP
000000
000000
000000
000000
000000
000000
000000
03f000
040800
000400
000200
00ce00
013200
000200
000200
000400
040800
03f000
000000
000000
ENDCHAR
STARTCHAR 07-80
ENCODING 10096
SWIDTH 1010 0
DWIDTH 20 0
BBX 20 20 0 -3
BITMAP
000000
000000
000000
000000
000000
000000
000000
1f3c00
044200
044200
048100
048100
078100
048100
048100
044200
044200
1f3c00
000000
000000
ENDCHAR
STARTCHAR 07-81
ENCODING 10097
SWIDTH 1010 0
DWIDTH 20 0
BBX 20 20 0 -3
BITMAP
000000
000000
000000
000000
000000
000000
000000
01ff00
020400
040400
040400
020400
01fc00
004400
008400
010400
020400
0c1f00
000000
000000
ENDCHAR
STARTCHAR 08-01
ENCODING 10273
SWIDTH 1010 0
DWIDTH 20 0
BBX 20 20 0 -3
BITMAP
000000
000000
000000
000000
000000
000000
000000
000000
000000
fffff0
000000
000000
000000
000000
000000
000000
000000
000000
000000
000000
ENDCHAR
STARTCHAR 08-02
ENCODING 10274
SWIDTH 1010 0
DWIDTH 20 0
BBX 20 20 0 -3
BITMAP
004000
004000
004000
004000
004000
004000
004000
004000
004000
004000
004000
004000
004000
004000
004000
004000
004000
004000
004000
004000
ENDCHAR
STARTCHAR 08-03
ENCODING 10275
SWIDTH 1010 0
DWIDTH 20 0
BBX 20 20 0 -3
BITMAP
000000
000000
000000
000000
000000
000000
000000
000000
000000
007ff0
004000
004000
004000
004000
004000
004000
004000
004000
004000
004000
ENDCHAR
STARTCHAR 08-04
ENCODING 10276
SWIDTH 1010 0
DWIDTH 20 0
BBX 20 20 0 -3
BITMAP
000000
000000
000000
000000
000000
000000
000000
000000
000000
ffc000
004000
004000
004000
004000
004000
004000
004000
004000
004000
004000
ENDCHAR
STARTCHAR 08-05
ENCODING 10277
SWIDTH 1010 0
DWIDTH 20 0
BBX 20 20 0 -3
BITMAP
004000
004000
004000
004000
004000
004000
004000
004000
004000
ffc000
000000
000000
000000
000000
000000
000000
000000
000000
000000
000000
ENDCHAR
STARTCHAR 08-06
ENCODING 10278
SWIDTH 1010 0
DWIDTH 20 0
BBX 20 20 0 -3
BITMAP
004000
004000
004000
004000
004000
004000
004000
004000
004000
007ff0
000000
000000
000000
000000
000000
000000
000000
000000
000000
000000
ENDCHAR
STARTCHAR 08-07
ENCODING 10279
SWIDTH 1010 0
DWIDTH 20 0
BBX 20 20 0 -3
BITMAP
004000
004000
004000
004000
004000
004000
004000
004000
004000
007ff0
004000
004000
004000
004000
004000
004000
004000
004000
004000
004000
ENDCHAR
STARTCHAR 08-08
ENCODING 10280
SWIDTH 1010 0
DWIDTH 20 0
BBX 20 20 0 -3
BITMAP
000000
000000
000000
000000
000000
000000
000000
000000
000000
fffff0
004000
004000
004000
004000
004000
004000
004000
004000
004000
004000
ENDCHAR
STARTCHAR 08-09
ENCODING 10281
SWIDTH 1010 0
DWIDTH 20 0
BBX 20 20 0 -3
BITMAP
004000
004000
004000
004000
004000
004000
004000
004000
004000
ffc000
004000
004000
004000
004000
004000
004000
004000
004000
004000
004000
ENDCHAR
STARTCHAR 08-10
ENCODING 10282
SWIDTH 1010 0
DWIDTH 20 0
BBX 20 20 0 -3
BITMAP
004000
004000
004000
004000
004000
004000
004000
004000
004000
fffff0
000000
000000
000000
000000
000000
000000
000000
000000
000000
000000
ENDCHAR
STARTCHAR 08-11
ENCODING 10283
SWIDTH 1010 0
DWIDTH 20 0
BBX 20 20 0 -3
BITMAP
004000
004000
004000
004000
004000
004000
004000
004000
004000
fffff0
004000
004000
004000
004000
004000
004000
004000
004000
004000
004000
ENDCHAR
STARTCHAR 08-12
ENCODING 10284
SWIDTH 1010 0
DWIDTH 20 0
BBX 20 20 0 -3
BITMAP
000000
000000
000000
000000
000000
000000
000000
000000
000000
fffff0
fffff0
000000
000000
000000
000000
000000
000000
000000
000000
000000
ENDCHAR
STARTCHAR 08-13
ENCODING 10285
SWIDTH 1010 0
DWIDTH 20 0
BBX 20 20 0 -3
BITMAP
006000
006000
006000
006000
006000
006000
006000
006000
006000
006000
006000
006000
006000
006000
006000
006000
006000
006000
006000
006000
ENDCHAR
STARTCHAR 08-14
ENCODING 10286
SWIDTH 1010 0
DWIDTH 20 0
BBX 20 20 0 -3
BITMAP
000000
000000
000000
000000
000000
000000
000000
000000
000000
007ff0
007ff0
006000
006000
006000
006000
006000
006000
006000
006000
006000
ENDCHAR
STARTCHAR 08-15
ENCODING 10287
SWIDTH 1010 0
DWIDTH 20 0
BBX 20 20 0 -3
BITMAP
000000
000000
000000
000000
000000
000000
000000
000000
000000
ffe000
ffe000
006000
006000
006000
006000
006000
006000
006000
006000
006000
ENDCHAR
STARTCHAR 08-16
ENCODING 10288
SWIDTH 1010 0
DWIDTH 20 0
BBX 20 20 0 -3
BITMAP
006000
006000
006000
006000
006000
006000
006000
006000
006000
ffe000
ffe000
000000
000000
000000
000000
000000
000000
000000
000000
000000
ENDCHAR
STARTCHAR 08-17
ENCODING 10289
SWIDTH 1010 0
DWIDTH 20 0
BBX 20 20 0 -3
BITMAP
006000
006000
006000
006000
006000
006000
006000
006000
006000
007ff0
007ff0
000000
000000
000000
000000
000000
000000
000000
000000
000000
ENDCHAR
STARTCHAR 08-18
ENCODING 10290
SWIDTH 1010 0
DWIDTH 20 0
BBX 20 20 0 -3
BITMAP
006000
006000
006000
006000
006000
006000
006000
006000
006000
007ff0
007ff0
006000
006000
006000
006000
006000
006000
006000
006000
006000
ENDCHAR
STARTCHAR 08-19
ENCODING 10291
SWIDTH 1010 0
DWIDTH 20 0
BBX 20 20 0 -3
BITMAP
000000
000000
000000
000000
000000
000000
000000
000000
000000
fffff0
fffff0
006000
006000
006000
006000
006000
006000
006000
006000
006000
ENDCHAR
STARTCHAR 08-20
ENCODING 10292
SWIDTH 1010 0
DWIDTH 20 0
BBX 20 20 0 -3
BITMAP
006000
006000
006000
006000
006000
006000
006000
006000
006000
ffe000
ffe000
006000
006000
006000
006000
006000
006000
006000
006000
006000
ENDCHAR
STARTCHAR 08-21
ENCODING 10293
SWIDTH 1010 0
DWIDTH 20 0
BBX 20 20 0 -3
BITMAP
006000
006000
006000
006000
006000
006000
006000
006000
006000
fffff0
fffff0
000000
000000
000000
000000
000000
000000
000000
000000
000000
ENDCHAR
STARTCHAR 08-22
ENCODING 10294
SWIDTH 1010 0
DWIDTH 20 0
BBX 20 20 0 -3
BITMAP
006000
006000
006000
006000
006000
006000
006000
006000
006000
fffff0
fffff0
006000
006000
006000
006000
006000
006000
006000
006000
006000
ENDCHAR
STARTCHAR 08-23
ENCODING 10295
SWIDTH 1010 0
DWIDTH 20 0
BBX 20 20 0 -3
BITMAP
006000
006000
006000
006000
006000
006000
006000
006000
006000
007ff0
006000
006000
006000
006000
006000
006000
006000
006000
006000
006000
ENDCHAR
STARTCHAR 08-24
ENCODING 10296
SWIDTH 1010 0
DWIDTH 20 0
BBX 20 20 0 -3
BITMAP
000000
000000
000000
000000
000000
000000
000000
000000
000000
fffff0
fffff0
004000
004000
004000
004000
004000
004000
004000
004000
004000
ENDCHAR
STARTCHAR 08-25
ENCODING 10297
SWIDTH 1010 0
DWIDTH 20 0
BBX 20 20 0 -3
BITMAP
006000
006000
006000
006000
006000
006000
006000
006000
006000
ffe000
006000
006000
006000
006000
006000
006000
006000
006000
006000
006000
ENDCHAR
STARTCHAR 08-26
ENCODING 10298
SWIDTH 1010 0
DWIDTH 20 0
BBX 20 20 0 -3
BITMAP
004000
004000
004000
004000
004000
004000
004000
004000
004000
fffff0
fffff0
000000
000000
000000
000000
000000
000000
000000
000000
000000
ENDCHAR
STARTCHAR 08-27
ENCODING 10299
SWIDTH 1010 0
DWIDTH 20 0
BBX 20 20 0 -3
BITMAP
004000
004000
004000
004000
004000
004000
004000
004000
004000
fffff0
fffff0
004000
004000
004000
004000
004000
004000
004000
004000
004000
ENDCHAR
STARTCHAR 08-28
ENCODING 10300
SWIDTH 1010 0
DWIDTH 20 0
BBX 20 20 0 -3
BITMAP
004000
004000
004000
004000
004000
004000
004000
004000
004000
007ff0
007ff0
004000
004000
004000
004000
004000
004000
004000
004000
004000
ENDCHAR
STARTCHAR 08-29
ENCODING 10301
SWIDTH 1010 0
DWIDTH 20 0
BBX 20 20 0 -3
BITMAP
000000
000000
000000
000000
000000
000000
000000
000000
000000
fffff0
006000
006000
006000
006000
006000
006000
006000
006000
006000
006000
ENDCHAR
STARTCHAR 08-30
ENCODING 10302
SWIDTH 1010 0
DWIDTH 20 0
BBX 20 20 0 -3
BITMAP
004000
004000
004000
004000
004000
004000
004000
004000
004000
ffc000
ffc000
004000
004000
004000
004000
004000
004000
004000
004000
004000
ENDCHAR
STARTCHAR 08-31
ENCODING 10303
SWIDTH 1010 0
DWIDTH 20 0
BBX 20 20 0 -3
BITMAP
006000
006000
006000
006000
006000
006000
006000
006000
006000
fffff0
000000
000000
000000
000000
000000
000000
000000
000000
000000
000000
ENDCHAR
STARTCHAR 08-32
ENCODING 10304
SWIDTH 1010 0
DWIDTH 20 0
BBX 20 20 0 -3
BITMAP
006000
006000
006000
006000
006000
006000
006000
006000
006000
fffff0
006000
006000
006000
006000
006000
006000
006000
006000
006000
006000
ENDCHAR
STARTCHAR 16-01
ENCODING 12321
SWIDTH 1010 0
DWIDTH 20 0
BBX 20 20 0 -3
BITMAP
000080
7fffc0
021000
021000
021000
221100
3fff80
221100
221100
221100
221100
221100
3fff00
221100
021000
021000
021000
021040
ffffe0
000000
ENDCHAR
STARTCHAR 16-02
ENCODING 12322
SWIDTH 1010 0
DWIDTH 20 0
BBX 20 20 0 -3
BITMAP
000040
01ffe0
441200
7e1200
441200
449240
44ffe0
449240
449240
449240
449240
449240
44ffc0
449240
7c1200
441200
401200
001240
03ffe0
000000
ENDCHAR
STARTCHAR 16-03
ENCODING 12323
SWIDTH 1010 0
DWIDTH 20 0
BBX 20 20 0 -3
BITMAP
180600
100400
100480
107fc0
120400
ff8400
220400
220440
22ffe0
220000
420600
440400
640480
d47fc0
8c0400
0a0400
110400
210440
40ffe0
800000
ENDCHAR
STARTCHAR 16-04
ENCODING 12324
SWIDTH 1010 0
DWIDTH 20 0
BBX 20 20 0 -3
BITMAP
000000
880040
fdffe0
880080
900080
908880
a0fc80
a08880
908880
888880
848880
848880
848880
8cf880
f88880
908080
800080
800080
800780
800100
ENDCHAR
STARTCHAR 16-05
ENCODING 12325
SWIDTH 1010 0
DWIDTH 20 0
BBX 20 20 0 -3
BITMAP
00c000
008000
008080
ffffc0
000000
100400
1ffe00
100400
100400
100400
1ffc00
122480
0721c0
0c1300
341400
c40800
040600
07c300
7c01e0
100080
ENDCHAR
STARTCHAR 16-06
ENCODING 12326
SWIDTH 1010 0
DWIDTH 20 0
BBX 20 20 0 -3
BITMAP
000300
003fc0
3fc200
088300
444440
7fffe0
c08040
866240
142900
260d00
63f800
010200
03ff00
060400
1a0800
619000
006000
039e00
1c03e0
e00080
ENDCHAR
STARTCHAR 16-07
ENCODING 12327
SWIDTH 1010 0
DWIDTH 20 0
BBX 20 20 0 -3
BITMAP
182000
103000
102100
104080
fc4fc0
13f840
110000
106000
104080
14ffc0
190800
300800
d00840
53ffe0
101800
101400
102200
104180
7180e0
260040
ENDCHAR
STARTCHAR 16-08
ENCODING 12328
SWIDTH 1010 0
DWIDTH 20 0
BBX 20 20 0 -3
BITMAP
180c00
100c00
100a00
101a00
111100
ffa100
222080
2240c0
224260
22bf40
420000
440000
644080
d47fc0
8c4080
0a4080
124080
224080
407f80
804080
ENDCHAR
STARTCHAR 16-09
ENCODING 12329
SWIDTH 1010 0
DWIDTH 20 0
BBX 20 20 0 -3
BITMAP
003000
402100
203f80
304100
10c200
032400
001800
103600
f8c1e0
131840
101000
13ff80
101000
13ff80
101000
17ffc0
101000
281000
470000
80ffe0
ENDCHAR
STARTCHAR 16-10
ENCODING 12330
SWIDTH 1010 0
DWIDTH 20 0
BBX 20 20 0 -3
BITMAP
060600
040440
ffffe0
040400
040400
012000
3fa100
021200
840840
481480
37fb00
6081e0
808040
008100
7fff80
012000
021000
040c00
1807c0
e00100
ENDCHAR
STARTCHAR 16-11
ENCODING 12331
SWIDTH 1010 0
DWIDTH 20 0
BBX 20 20 0 -3
BITMAP
030c00
020800
020840
ffffe0
020800
020800
000040
ffffe0
012000
212080
3fffc0
222080
222280
242280
282380
301e80
200080
200080
3fff80
200080
ENDCHAR
STARTCHAR 16-12
ENCODING 12332
SWIDTH 1010 0
DWIDTH 20 0
BBX 20 20 0 -3
BITMAP
042200
1e3f00
f04400
108880
11ffc0
148880
feff80
108880
30ff80
380840
35ffe0
550840
51ffc0
510840
91ffc0
110840
100800
100840
100c60
1007c0
ENDCHAR
STARTCHAR 16-13
ENCODING 12333
SWIDTH 1010 0
DWIDTH 20 0
BBX 20 20 0 -3
BITMAP
000080
7fffc0
011000
111100
1fff80
111100
111100
111100
1fff00
111100
011040
ffffe0
008000
044100
262080
242040
640440
440400
860600
03fc00
ENDCHAR
STARTCHAR 16-14
ENCODING 12334
SWIDTH 1010 0
DWIDTH 20 0
BBX 20 20 0 -3
BITMAP
190040
11ffe0
110040
110040
15ffc0
ff0000
110080
117fc0
110800
150d00
191080
f17fc0
512440
130400
120480
127fc0
120400
140440
75ffe0
280000
ENDCHAR
STARTCHAR 16-15
ENCODING 12335
SWIDTH 1010 0
DWIDTH 20 0
BBX 20 20 0 -3
BITMAP
210040
11ffe0
090040
090040
81ffc0
410000
210080
257fc0
250800
090d00
091080
117fc0
112440
a30400
620480
227fc0
220400
240440
25ffe0
280000
ENDCHAR
STARTCHAR 16-16
ENCODING 12336
SWIDTH 1010 0
DWIDTH 20 0
BBX 20 20 0 -3
BITMAP
180000
102080
103fc0
102080
102080
122080
ff2080
123f80
122080
122080
122080
122080
123f80
122080
322000
220040
220040
430060
41ffc0
800000
ENDCHAR
STARTCHAR 16-17
ENCODING 12337
SWIDTH 1010 0
DWIDTH 20 0
BBX 20 20 0 -3
BITMAP
060c00
040840
ffffe0
040800
058800
010200
3fff00
020240
ffffe0
000000
1ffe00
100200
1ffe00
002000
3fff80
082000
082040
ffffe0
002000
002000
ENDCHAR
STARTCHAR 16-18
ENCODING 12338
SWIDTH 1010 0
DWIDTH 20 0
BBX 20 20 0 -3
BITMAP
030c00
020840
ffffe0
020800
020800
000080
7fffc0
000000
080100
0fff80
080100
080100
080100
0fff00
180100
100000
100000
200000
400000
800000
ENDCHAR
STARTCHAR 16-19
ENCODING 12339
SWIDTH 1010 0
DWIDTH 20 0
BBX 20 20 0 -3
BITMAP
301000
241d00
3e2080
6447c0
49f840
fc4600
540c00
55ffe0
541200
7c2100
5444e0
558e40
541100
7c6180
440600
001840
aae060
aa0180
a80e00
81f000
ENDCHAR
STARTCHAR 16-20
ENCODING 12340
SWIDTH 1010 0
DWIDTH 20 0
BBX 20 20 0 -3
BITMAP
180c00
100800
100880
15ffc0
fe8200
104380
186200
342400
342440
35ffe0
740800
500800
500800
900880
10ffc0
100800
100800
100800
100800
100800
ENDCHAR
STARTCHAR 16-21
ENCODING 12341
SWIDTH 1010 0
DWIDTH 20 0
BBX 20 20 0 -3
BITMAP
000000
100040
1fffe0
100000
100000
101800
101000
101000
101000
101000
301100
23ff80
201000
201000
201000
601000
401000
401040
9fffe0
000000
ENDCHAR
STARTCHAR 16-22
ENCODING 12342
SWIDTH 1010 0
DWIDTH 20 0
BBX 20 20 0 -3
BITMAP
0c0e00
080c00
090a00
ff9900
081180
0820e0
7f2040
414180
411100
7f0d00
410500
414100
7f3100
081140
0901e0
ff8f00
087100
080100
080100
080100
ENDCHAR
STARTCHAR 16-23
ENCODING 12343
SWIDTH 1010 0
DWIDTH 20 0
BBX 20 20 0 -3
BITMAP
180100
13ff80
102100
102100
142200
fe2200
106240
1057e0
105440
125040
1448c0
18c880
f08d80
508700
118200
110700
110d80
1218c0
f22060
24c040
ENDCHAR
STARTCHAR 16-24
ENCODING 12344
SWIDTH 1010 0
DWIDTH 20 0
BBX 20 20 0 -3
BITMAP
006000
004000
404040
7fffe0
c00040
800080
0c0000
092100
1fbf80
112100
212100
412100
b22100
0a2f00
042200
042000
082040
102040
202060
c01fc0
ENDCHAR
STARTCHAR 16-25
ENCODING 12345
SWIDTH 1010 0
DWIDTH 20 0
BBX 20 20 0 -3
BITMAP
0c2100
083f80
082100
082100
092100
ffa100
112100
113f00
312100
232100
222100
422100
762100
4c3f00
462100
0a2100
132100
232100
402140
80ffe0
ENDCHAR
STARTCHAR 16-26
ENCODING 12346
SWIDTH 1010 0
DWIDTH 20 0
BBX 20 20 0 -3
BITMAP
0c0300
080200
080200
490200
7fa240
493fe0
492000
492000
492000
492000
7f2000
492000
082000
082000
0a2000
092000
0fa000
f8b000
409fc0
000000
ENDCHAR
STARTCHAR 16-27
ENCODING 12347
SWIDTH 1010 0
DWIDTH 20 0
BBX 20 20 0 -3
BITMAP
0c0400
080600
140400
120c00
210880
2d0840
481040
bf13e0
217c20
3f3020
210000
3f1040
211fe0
201040
241040
221040
231040
2d1040
f11fc0
401040
ENDCHAR
STARTCHAR 16-28
ENCODING 12348
SWIDTH 1010 0
DWIDTH 20 0
BBX 20 20 0 -3
BITMAP
103000
182000
102000
a04040
447fe0
268040
2c8440
097e40
104440
144440
224440
ff7c40
494440
0844c0
4c4480
6a7c80
494580
890100
080f00
080200
ENDCHAR
STARTCHAR 16-29
ENCODING 12349
SWIDTH 1010 0
DWIDTH 20 0
BBX 20 20 0 -3
BITMAP
080c00
0c0800
100880
54ffc0
260800
280840
29ffe0
101200
141240
222260
fe59c0
529080
103fc0
582080
545100
558a00
540400
901b00
1061e0
118040
ENDCHAR
STARTCHAR 16-30
ENCODING 12350
SWIDTH 1010 0
DWIDTH 20 0
BBX 20 20 0 -3
BITMAP
180600
120400
3f0400
240400
488440
bfc7e0
248400
248400
248400
3f8400
24a480
24bfc0
24a080
3fa080
20a080
002080
2aa080
2aa080
6abf80
402080
ENDCHAR
STARTCHAR 16-31
ENCODING 12351
SWIDTH 1010 0
DWIDTH 20 0
BBX 20 20 0 -3
BITMAP
001a00
001100
001100
001040
ffffe0
001000
001000
211080
3f90c0
211980
210900
210b00
3f0e00
210400
200e00
019240
0e2340
f841c0
4180e0
060040
ENDCHAR
STARTCHAR 16-32
ENCODING 12352
SWIDTH 1010 0
DWIDTH 20 0
BBX 20 20 0 -3
BITMAP
000040
ffffe0
020800
420840
7fffe0
420840
420840
420840
7fffc0
484440
044600
064800
025040
ffffe0
00d000
034c00
0c4700
3041e0
c04040
004000
ENDCHAR
STARTCHAR 16-33
ENCODING 12353
SWIDTH 1010 0
DWIDTH 20 0
BBX 20 20 0 -3
BITMAP
180e00
100c00
100a00
141a00
fe1100
043180
0c20c0
0a4060
134140
12bf80
3c0000
540000
922080
133fc0
122080
102080
102080
102080
103f80
102080
ENDCHAR
STARTCHAR 16-34
ENCODING 12354
SWIDTH 1010 0
DWIDTH 20 0
BBX 20 20 0 -3
BITMAP
006000
004000
404040
7fffe0
400040
c18080
810100
030000
020040
ffffe0
040400
040800
081000
082000
1e4000
11e000
011800
060600
180300
e00100
ENDCHAR
STARTCHAR 16-35
ENCODING 12355
SWIDTH 1010 0
DWIDTH 20 0
BBX 20 20 0 -3
BITMAP
003000
202040
3fffe0
200000
206000
204100
2fff80
208800
212400
222300
27fee0
3a2240
23fe00
222200
222200
43fe00
422240
402040
802060
001fc0
ENDCHAR
STARTCHAR 16-36
ENCODING 12356
SWIDTH 1010 0
DWIDTH 20 0
BBX 20 20 0 -3
BITMAP
180c00
100800
108840
10ffe0
118040
fd1880
101000
101000
101040
15ffe0
182100
f02100
504200
104200
10f400
108c00
101300
102080
70c0c0
230040
ENDCHAR
STARTCHAR 16-37
ENCODING 12357
SWIDTH 1010 0
DWIDTH 20 0
BBX 20 20 0 -3
BITMAP
000c00
440800
7e0880
44ffc0
444100
442180
441200
441200
7c0440
45ffe0
440000
444100
447f80
444100
7c4100
447f00
404100
004100
007f00
004100
ENDCHAR
STARTCHAR 16-38
ENCODING 12358
SWIDTH 1010 0
DWIDTH 20 0
BBX 20 20 0 -3
BITMAP
006000
404040
7fffe0
c00080
818100
010040
ffffe0
020c00
0fb000
08e000
039c00
1c0600
e06200
004040
ffffe0
01d000
074e00
1c43e0
e04040
004000
ENDCHAR
STARTCHAR 16-39
ENCODING 12359
SWIDTH 1010 0
DWIDTH 20 0
BBX 20 20 0 -3
BITMAP
411040
7f9fe0
411040
411040
7f1fc0
411040
411040
7f1fc0
404040
404840
47fc40
421040
412440
4ffe40
400040
43f840
420840
43f840
420bc0
43f880
ENDCHAR
STARTCHAR 16-40
ENCODING 12360
SWIDTH 1010 0
DWIDTH 20 0
BBX 20 20 0 -3
BITMAP
330600
220400
222440
ffbfe0
226040
224440
3e0600
2a0400
080840
7f7fe0
490880
490880
7f1080
491100
082900
ffa600
080500
080880
083040
08c040
ENDCHAR
STARTCHAR 16-41
ENCODING 12361
SWIDTH 1010 0
DWIDTH 20 0
BBX 20 20 0 -3
BITMAP
006000
004000
004000
004040
ffffe0
00e000
015000
024c00
0c4300
3040e0
c04040
004000
080200
0fff00
080200
080200
080200
080200
0ffe00
080200
ENDCHAR
STARTCHAR 16-42
ENCODING 12362
SWIDTH 1010 0
DWIDTH 20 0
BBX 20 20 0 -3
BITMAP
000000
1800c0
100080
100080
100080
110080
108180
104100
106100
102300
100200
100200
100600
100500
108880
131040
1c2040
f04060
418020
060020
ENDCHAR
STARTCHAR 16-43
ENCODING 12363
SWIDTH 1010 0
DWIDTH 20 0
BBX 20 20 0 -3
BITMAP
0c0000
080080
09ffc0
181080
101080
101080
33ffe0
301080
501080
501080
901080
11ff80
101080
101000
102000
102000
104000
104000
108000
130000
ENDCHAR
STARTCHAR 16-44
ENCODING 12364
SWIDTH 1010 0
DWIDTH 20 0
BBX 20 20 0 -3
BITMAP
0c0c00
080800
080800
180800
100880
31ffc0
300000
300100
510180
508100
908100
104300
104200
104200
104200
100400
100400
100440
13ffe0
100000
ENDCHAR
STARTCHAR 16-45
ENCODING 12365
SWIDTH 1010 0
DWIDTH 20 0
BBX 20 20 0 -3
BITMAP
0c0c00
080800
080800
180840
13ffe0
301000
301000
302840
502860
504880
90c500
114600
124400
144200
104200
104100
104180
1078c0
13c060
110040
ENDCHAR
STARTCHAR 16-46
ENCODING 12366
SWIDTH 1010 0
DWIDTH 20 0
BBX 20 20 0 -3
BITMAP
0c1800
081100
08ff80
182100
102140
33ffe0
300000
308080
50ffc0
508080
908080
10ff80
100400
100480
10ffc0
104400
104440
13ffe0
100400
100400
ENDCHAR
STARTCHAR 16-47
ENCODING 12367
SWIDTH 1010 0
DWIDTH 20 0
BBX 20 20 0 -3
BITMAP
400040
7fffe0
400040
419840
411040
411040
411440
4ffe40
411040
411040
411240
5fff40
421040
421040
441040
481040
501040
400040
7fffc0
400040
ENDCHAR
STARTCHAR 16-48
ENCODING 12368
SWIDTH 1010 0
DWIDTH 20 0
BBX 20 20 0 -3
BITMAP
006000
004040
7fffe0
004000
004080
3fffc0
004080
104080
1fff80
104000
204040
3fffe0
20c040
00a040
012380
021100
040800
080600
3001e0
c00040
ENDCHAR
STARTCHAR 16-49
ENCODING 12369
SWIDTH 1010 0
DWIDTH 20 0
BBX 20 20 0 -3
BITMAP
001800
00fe00
1f4000
004040
ffffe0
00e000
015000
024c00
0c4700
3041e0
c14040
010000
020040
ffffe0
040c00
0c1800
1be000
009e00
070380
780080
ENDCHAR
STARTCHAR 16-50
ENCODING 12370
SWIDTH 1010 0
DWIDTH 20 0
BBX 20 20 0 -3
BITMAP
000d00
000880
000880
200800
3fffe0
200800
208800
2fc880
200cc0
230480
224580
3fe500
248700
248200
2f0640
698740
42cd40
4458c0
8810e0
006060
ENDCHAR
STARTCHAR 16-51
ENCODING 12371
SWIDTH 1010 0
DWIDTH 20 0
BBX 20 20 0 -3
BITMAP
2040c0
3fe080
204080
204080
3fc080
205fe0
200080
210080
2f8080
200880
208480
3fc680
220280
2a8080
6e4080
4a4080
524080
420080
8e0780
040100
ENDCHAR
STARTCHAR 16-52
ENCODING 12372
SWIDTH 1010 0
DWIDTH 20 0
BBX 20 20 0 -3
BITMAP
182200
103300
102200
106200
144440
527fe0
52c400
52c400
514480
d27fc0
904400
104400
104480
107fc0
104400
104400
104400
104440
107fe0
104000
ENDCHAR
STARTCHAR 16-53
ENCODING 12373
SWIDTH 1010 0
DWIDTH 20 0
BBX 20 20 0 -3
BITMAP
006000
004100
3fff80
040400
020600
020840
ffffe0
000000
0ffe00
080200
0ffe00
080200
0ffe00
004000
062100
243080
241440
440440
c60600
03fc00
ENDCHAR
STARTCHAR 16-54
ENCODING 12374
SWIDTH 1010 0
DWIDTH 20 0
BBX 20 20 0 -3
BITMAP
2040c0
3fe080
204080
3fc080
201fe0
208080
2fc880
200480
5fe480
410480
594080
912080
270780
020100
00c000
263100
2410c0
440440
c40600
03fc00
ENDCHAR
STARTCHAR 16-55
ENCODING 12375
SWIDTH 1010 0
DWIDTH 20 0
BBX 20 20 0 -3
BITMAP
080200
0fff00
080200
080200
0ffe00
080200
080200
0ffe00
090200
010040
03ffe0
044440
084440
308840
c10840
021080
0c2080
30c100
030f00
000200
ENDCHAR
STARTCHAR 16-56
ENCODING 12376
SWIDTH 1010 0
DWIDTH 20 0
BBX 20 20 0 -3
BITMAP
180c00
100800
100880
10ffc0
141800
fe3600
106180
318080
380040
35ffe0
740080
548880
50fc80
508880
908880
10f880
108880
108080
100780
100100
ENDCHAR
STARTCHAR 16-57
ENCODING 12377
SWIDTH 1010 0
DWIDTH 20 0
BBX 20 20 0 -3
BITMAP
186000
044000
044000
004400
3ffe00
008400
008400
010500
03ff80
020100
040100
080140
1fffe0
200040
c24840
092440
112440
6120c0
400780
000100
ENDCHAR
STARTCHAR 16-58
ENCODING 12378
SWIDTH 1010 0
DWIDTH 20 0
BBX 20 20 0 -3
BITMAP
100100
1fff80
104100
104100
1fff00
104100
104100
1fff00
100100
000040
ffffe0
084100
0841c0
082300
083400
081800
098c00
0e0700
f801e0
200040
ENDCHAR
STARTCHAR 16-59
ENCODING 12379
SWIDTH 1010 0
DWIDTH 20 0
BBX 20 20 0 -3
BITMAP
100100
1fff80
104100
104100
1fff00
104100
104100
1fff00
100100
030c00
020880
7fffc0
020800
020840
ffffe0
040000
070c00
0c0300
100180
600080
ENDCHAR
STARTCHAR 16-60
ENCODING 12380
SWIDTH 1010 0
DWIDTH 20 0
BBX 20 20 0 -3
BITMAP
043000
1e2100
f07f80
104300
10c200
152600
fe1400
100800
301000
382600
34c440
720fe0
5218c0
503080
50c980
900500
100200
100400
101800
10e000
ENDCHAR
STARTCHAR 16-61
ENCODING 12381
SWIDTH 1010 0
DWIDTH 20 0
BBX 20 20 0 -3
BITMAP
081100
0c1980
101300
a43200
462440
243fe0
286200
186200
10a280
243fc0
222200
ff2200
492280
083fc0
4a2200
692200
492200
892240
083fe0
082000
ENDCHAR
STARTCHAR 16-62
ENCODING 12382
SWIDTH 1010 0
DWIDTH 20 0
BBX 20 20 0 -3
BITMAP
080c00
0c0900
107f80
a41100
461140
24ffe0
280000
182080
103fc0
242080
222080
ff3f80
490400
080480
4c7fc0
6a2400
4b2440
8affe0
080400
080400
ENDCHAR
STARTCHAR 16-63
ENCODING 12383
SWIDTH 1010 0
DWIDTH 20 0
BBX 20 20 0 -3
BITMAP
200080
3fffc0
204080
3fff80
204080
204080
3fff80
200080
080200
0fff00
080200
080200
0ffe00
080200
080200
0ffe00
080200
080200
081e00
080400
ENDCHAR
STARTCHAR 16-64
ENCODING 12384
SWIDTH 1010 0
DWIDTH 20 0
BBX 20 20 0 -3
BITMAP
060600
040440
ffffe0
040400
001000
00fe00
1fc000
004040
ffffe0
01d000
064e00
1841e0
e30040
020000
ffffe0
040c00
0f1800
08f000
038c00
7c0300
ENDCHAR
STARTCHAR 16-65
ENCODING 12385
SWIDTH 1010 0
DWIDTH 20 0
BBX 20 20 0 -3
BITMAP
006000
004000
004000
004040
ffffe0
012000
032080
0620e0
0c1180
181200
681400
881800
080800
080c00
080400
080600
080300
09e180
7e00e0
300040
ENDCHAR
STARTCHAR 16-66
ENCODING 12386
SWIDTH 1010 0
DWIDTH 20 0
BBX 20 20 0 -3
BITMAP
110040
79ffe0
010840
09ffc0
fd0840
010840
11ffc0
780000
008080
10ffc0
788080
008080
88ff80
fc8080
888080
88ff80
888080
f88080
888780
808100
ENDCHAR
STARTCHAR 16-67
ENCODING 12387
SWIDTH 1010 0
DWIDTH 20 0
BBX 20 20 0 -3
BITMAP
003000
402100
21ff80
104100
104140
03ffe0
000000
10ff80
f88080
108080
10ff80
100400
100480
13ffc0
108400
108440
13ffe0
280400
470400
80ffe0
ENDCHAR
STARTCHAR 16-68
ENCODING 12388
SWIDTH 1010 0
DWIDTH 20 0
BBX 20 20 0 -3
BITMAP
000c00
408880
20ffc0
108880
10ff80
000840
03ffe0
100000
f8ff80
108080
10ff80
108080
10ff80
108080
10ff80
104200
107100
298080
c60080
41ffe0
ENDCHAR
STARTCHAR 16-69
ENCODING 12389
SWIDTH 1010 0
DWIDTH 20 0
BBX 20 20 0 -3
BITMAP
400040
7fffe0
400000
430000
420200
47ff00
442000
482000
402100
4fff80
406000
405000
408800
408400
410200
420300
4c0100
400040
7fffe0
400000
ENDCHAR
STARTCHAR 16-70
ENCODING 12390
SWIDTH 1010 0
DWIDTH 20 0
BBX 20 20 0 -3
BITMAP
030c00
020800
020800
020800
020880
7fffc0
020800
020800
020800
020800
020800
020840
ffffe0
040800
040800
040800
080800
080800
100800
200800
ENDCHAR
STARTCHAR 16-71
ENCODING 12391
SWIDTH 1010 0
DWIDTH 20 0
BBX 20 20 0 -3
BITMAP
006000
004000
004000
004040
ffffe0
008000
00c400
110e00
0a1800
041100
062180
024300
018400
020800
0c1000
706c00
008300
030080
0c00c0
700040
ENDCHAR
STARTCHAR 16-72
ENCODING 12392
SWIDTH 1010 0
DWIDTH 20 0
BBX 20 20 0 -3
BITMAP
300680
200440
200440
200400
23ffe0
280400
fc0400
222440
23f460
222440
2224c0
222480
23e500
222700
380200
e07540
478940
0210c0
002060
00c020
ENDCHAR
STARTCHAR 16-73
ENCODING 12393
SWIDTH 1010 0
DWIDTH 20 0
BBX 20 20 0 -3
BITMAP
006000
004040
ffffe0
030400
020200
047f00
3f8100
100100
080200
0fff00
080200
080200
0ffe00
080200
080200
0ffe00
080200
080200
081e00
080400
ENDCHAR
STARTCHAR 16-74
ENCODING 12394
SWIDTH 1010 0
DWIDTH 20 0
BBX 20 20 0 -3
BITMAP
0c0840
080fe0
084840
ffe880
100900
108900
1fca00
308900
308880
308840
5f8840
508820
508820
908860
1f8fc0
108880
108800
108800
178800
110800
ENDCHAR
STARTCHAR 16-75
ENCODING 12395
SWIDTH 1010 0
DWIDTH 20 0
BBX 20 20 0 -3
BITMAP
004c80
7c68c0
128d00
112a40
114a80
308900
214a40
23efe0
7d2a20
640900
650880
a5ffe0
250880
258cc0
3d4580
252300
232640
020d40
0238e0
04c040
ENDCHAR
STARTCHAR 16-76
ENCODING 12396
SWIDTH 1010 0
DWIDTH 20 0
BBX 20 20 0 -3
BITMAP
000000
000000
000000
000000
000000
000000
000000
000000
000040
ffffe0
000000
000000
000000
000000
000000
000000
000000
000000
000000
000000
ENDCHAR
STARTCHAR 16-77
ENCODING 12397
SWIDTH 1010 0
DWIDTH 20 0
BBX 20 20 0 -3
BITMAP
006000
004000
004040
ffffe0
004000
004100
3fff80
000000
400040
7fffe0
c00040
8c0880
081d00
083000
08c000
0f0000
080100
080100
0c0180
07ff00
ENDCHAR
STARTCHAR 16-78
ENCODING 12398
SWIDTH 1010 0
DWIDTH 20 0
BBX 20 20 0 -3
BITMAP
208200
104380
084200
080440
83ffe0
404200
204200
248100
248180
0900c0
0a0060
140040
110080
a1ffc0
612480
212480
212480
212480
27ffe0
200000
ENDCHAR
STARTCHAR 16-79
ENCODING 12399
SWIDTH 1010 0
DWIDTH 20 0
BBX 20 20 0 -3
BITMAP
003000
402200
207f00
104200
108400
010880
02ffc0
108880
f88880
108880
10ff80
102400
102400
104400
104440
108440
110460
2803c0
470000
80ffe0
ENDCHAR
STARTCHAR 16-80
ENCODING 12400
SWIDTH 1010 0
DWIDTH 20 0
BBX 20 20 0 -3
BITMAP
040040
1e03e0
f01e00
13e040
111060
1488c0
fe4480
104500
300100
38d240
349fe0
729040
529040
509040
509fc0
909040
109040
109040
109fc0
109040
ENDCHAR
STARTCHAR 16-81
ENCODING 12401
SWIDTH 1010 0
DWIDTH 20 0
BBX 20 20 0 -3
BITMAP
060600
040440
ffffe0
040400
040400
006000
404000
204040
10ffe0
108840
010880
020900
000800
021800
041400
082200
304300
e08180
4100e0
060040
ENDCHAR
STARTCHAR 16-82
ENCODING 12402
SWIDTH 1010 0
DWIDTH 20 0
BBX 20 20 0 -3
BITMAP
030c00
020800
020840
ffffe0
020800
020800
000100
3fff80
004000
004000
004000
004040
ffffe0
004000
004000
004000
004000
004000
03c000
008000
ENDCHAR
STARTCHAR 16-83
ENCODING 12403
SWIDTH 1010 0
DWIDTH 20 0
BBX 20 20 0 -3
BITMAP
301040
24fbe0
3e1040
441040
485140
be71c0
2a5140
2a4100
2afbe0
3e8a20
2a0820
2a4920
2a28a0
3e0820
2228a0
005960
aa9240
aa1040
aaf3c0
802080
ENDCHAR
STARTCHAR 16-84
ENCODING 12404
SWIDTH 1010 0
DWIDTH 20 0
BBX 20 20 0 -3
BITMAP
020000
030000
060400
040200
080100
080080
10ff80
ff90c0
621080
021000
021000
021000
041000
041000
081000
081000
101040
101040
201860
400fc0
ENDCHAR
STARTCHAR 16-85
ENCODING 12405
SWIDTH 1010 0
DWIDTH 20 0
BBX 20 20 0 -3
BITMAP
010000
038000
4c2080
703fc0
402080
402080
402080
402080
422080
7f2080
402080
402080
402080
402080
402080
422780
7f2100
402000
402000
002000
ENDCHAR
STARTCHAR 16-86
ENCODING 12406
SWIDTH 1010 0
DWIDTH 20 0
BBX 20 20 0 -3
BITMAP
010040
01ffe0
890040
fd0c40
890840
890840
890a40
897f40
890840
890840
891840
891440
891240
f92240
892140
814140
010040
010040
01ffc0
010040
ENDCHAR
STARTCHAR 16-87
ENCODING 12407
SWIDTH 1010 0
DWIDTH 20 0
BBX 20 20 0 -3
BITMAP
080200
0fff00
080200
080200
0ffe00
080200
100100
1fff80
100100
1fff00
100100
1fff00
100100
100100
1fff00
120100
071c00
0c0300
3000c0
c00040
ENDCHAR
STARTCHAR 16-88
ENCODING 12408
SWIDTH 1010 0
DWIDTH 20 0
BBX 20 20 0 -3
BITMAP
400040
7fffe0
400040
406040
404040
404040
404240
5fff40
404040
404040
40a040
40a040
411040
410840
420440
440740
580240
400040
7fffc0
400040
ENDCHAR
STARTCHAR 16-89
ENCODING 12409
SWIDTH 1010 0
DWIDTH 20 0
BBX 20 20 0 -3
BITMAP
188040
10ffe0
108040
108c40
148840
fe8840
248a40
24bf40
248840
248840
249840
289440
689240
589240
4ca140
12a140
12c040
228040
40ffc0
808040
ENDCHAR
STARTCHAR 16-90
ENCODING 12410
SWIDTH 1010 0
DWIDTH 20 0
BBX 20 20 0 -3
BITMAP
008180
7fc100
008100
008100
008100
208100
3f8100
208100
200100
200100
208100
7fc100
408100
008100
008100
008100
010100
010100
1e0100
040100
ENDCHAR
STARTCHAR 16-91
ENCODING 12411
SWIDTH 1010 0
DWIDTH 20 0
BBX 20 20 0 -3
BITMAP
0c1800
081000
141000
121040
213fe0
2d2440
484480
bf4500
218400
3f0400
210c00
3f0a00
210a00
200a00
240900
221100
231080
2d20c0
f12060
404040
ENDCHAR
STARTCHAR 16-92
ENCODING 12412
SWIDTH 1010 0
DWIDTH 20 0
BBX 20 20 0 -3
BITMAP
200100
1007c0
09f800
080080
8110c0
408900
204900
244a00
240480
0803c0
08fe00
100800
100840
a3ffe0
600800
200800
200800
200880
21ffc0
200000
ENDCHAR
STARTCHAR 16-93
ENCODING 12413
SWIDTH 1010 0
DWIDTH 20 0
BBX 20 20 0 -3
BITMAP
184180
106100
148100
129100
113900
114100
109100
110900
17fd00
130500
100100
13f900
120900
33f900
220900
23f900
220940
420940
427960
8210c0
ENDCHAR
STARTCHAR 16-94
ENCODING 12414
SWIDTH 1010 0
DWIDTH 20 0
BBX 20 20 0 -3
BITMAP
030c00
020840
ffffe0
020800
440600
7e0400
440a00
481180
506ee0
498040
447f80
460100
420200
42ffc0
7e0000
45ffe0
401100
402080
41ffc0
404040
ENDCHAR
STARTCHAR 17-01
ENCODING 12577
SWIDTH 1010 0
DWIDTH 20 0
BBX 20 20 0 -3
BITMAP
840c00
fe0800
850840
89ffe0
930040
920080
a00100
91ff80
880000
840000
840040
87ffe0
8c4400
f84400
90c400
808400
808440
810440
820460
8c03c0
ENDCHAR
STARTCHAR 17-02
ENCODING 12578
SWIDTH 1010 0
DWIDTH 20 0
BBX 20 20 0 -3
BITMAP
440c00
7e1800
441400
482200
484180
5082e0
637f40
500000
487f80
4c0100
440200
44ff80
440000
7dffe0
483000
402100
404080
4087c0
43f860
418020
ENDCHAR
STARTCHAR 17-03
ENCODING 12579
SWIDTH 1010 0
DWIDTH 20 0
BBX 20 20 0 -3
BITMAP
440080
7e0fc0
45f880
4890c0
484900
504a00
480080
44ffc0
440080
42ff80
420080
42ff80
421080
7c0800
490c80
416040
424120
464120
444180
403f00
ENDCHAR
STARTCHAR 17-04
ENCODING 12580
SWIDTH 1010 0
DWIDTH 20 0
BBX 20 20 0 -3
BITMAP
0c1080
081fc0
091080
ff9080
421f80
231080
242040
253fe0
ffa040
003fc0
422040
7f3fc0
422040
423fc0
7e2040
420900
420c80
7e10c0
422040
004040
ENDCHAR
STARTCHAR 17-05
ENCODING 12581
SWIDTH 1010 0
DWIDTH 20 0
BBX 20 20 0 -3
BITMAP
000300
440200
7e0200
440200
440240
45ffe0
440200
440200
440200
44c200
442200
443200
441200
440200
7c0200
440200
400200
000200
001e00
000400
ENDCHAR
STARTCHAR 17-06
ENCODING 12582
SWIDTH 1010 0
DWIDTH 20 0
BBX 20 20 0 -3
BITMAP
00c000
008000
008000
008000
010040
ffffe0
020000
020000
040000
040000
080100
17ff80
240100
c40100
040100
040100
040100
040100
07ff00
040100
ENDCHAR
STARTCHAR 17-07
ENCODING 12583
SWIDTH 1010 0
DWIDTH 20 0
BBX 20 20 0 -3
BITMAP
006000
004000
404040
7fffe0
400040
c00080
800500
0ffe00
004000
004000
004000
004080
7fffc0
004000
004000
004000
004000
004000
03c000
008000
ENDCHAR
STARTCHAR 17-08
ENCODING 12584
SWIDTH 1010 0
DWIDTH 20 0
BBX 20 20 0 -3
BITMAP
004000
006000
048400
07fe00
040400
040400
040400
07fc00
040400
040080
07ffc0
040000
040040
07ffe0
001040
288840
2444c0
422080
c20780
800100
ENDCHAR
STARTCHAR 17-09
ENCODING 12585
SWIDTH 1010 0
DWIDTH 20 0
BBX 20 20 0 -3
BITMAP
010040
ffbfe0
010040
010040
010040
411040
210840
110440
110440
0300c0
050140
090240
110440
210840
c17040
411040
010040
010040
0f03c0
020080
ENDCHAR
STARTCHAR 17-10
ENCODING 12586
SWIDTH 1010 0
DWIDTH 20 0
BBX 20 20 0 -3
BITMAP
000000
400080
21ffc0
100800
100800
000800
000800
100840
fbffe0
100800
100800
100800
100800
100800
100800
103800
101000
280000
470000
80ffe0
ENDCHAR
STARTCHAR 17-11
ENCODING 12587
SWIDTH 1010 0
DWIDTH 20 0
BBX 20 20 0 -3
BITMAP
000040
ffffe0
004000
004000
404040
7fffe0
404040
505040
484840
444440
444440
404040
505040
484840
444440
444440
404040
404040
4043c0
404080
ENDCHAR
STARTCHAR 17-12
ENCODING 12588
SWIDTH 1010 0
DWIDTH 20 0
BBX 20 20 0 -3
BITMAP
008000
01c000
271040
381fe0
219040
211040
211040
211040
211040
211040
211040
211040
2f1040
f11040
4213c0
021080
041000
081000
101000
601000
ENDCHAR
STARTCHAR 17-13
ENCODING 12589
SWIDTH 1010 0
DWIDTH 20 0
BBX 20 20 0 -3
BITMAP
420400
230600
242880
093fc0
ffa080
093f80
492080
7f3f80
482080
892040
ffbfe0
892000
192040
193fe0
2f0040
2a5540
485540
8850c0
088380
080100
ENDCHAR
STARTCHAR 17-14
ENCODING 12590
SWIDTH 1010 0
DWIDTH 20 0
BBX 20 20 0 -3
BITMAP
006000
404040
7fffe0
421080
841140
181060
e00fc0
180000
103f80
122080
ff3f80
102080
113f80
ffa080
103f80
180a00
240a40
221240
422260
80c1c0
ENDCHAR
STARTCHAR 17-15
ENCODING 12591
SWIDTH 1010 0
DWIDTH 20 0
BBX 20 20 0 -3
BITMAP
000000
000400
7ffe00
010400
010400
010400
020400
020400
020440
ffffe0
040400
040400
040400
040400
080400
080400
080400
080440
ffffe0
000000
ENDCHAR
STARTCHAR 17-16
ENCODING 12592
SWIDTH 1010 0
DWIDTH 20 0
BBX 20 20 0 -3
BITMAP
001100
021980
ff1300
103200
102440
103fe0
106200
3e6200
22a280
233fc0
622200
622200
a22280
223fc0
222200
3e2200
222200
202240
003fe0
002000
ENDCHAR
STARTCHAR 17-17
ENCODING 12593
SWIDTH 1010 0
DWIDTH 20 0
BBX 20 20 0 -3
BITMAP
010000
038000
260080
381fc0
200080
200080
200080
200080
200080
220080
3f1f80
200080
200080
200080
200080
200080
200080
200080
3fff80
200080
ENDCHAR
STARTCHAR 17-18
ENCODING 12594
SWIDTH 1010 0
DWIDTH 20 0
BBX 20 20 0 -3
BITMAP
204100
107f80
084100
084900
004f00
804900
404900
254940
25ffe0
090040
092240
093f40
112240
b12240
612240
213e40
212240
212040
2103c0
210080
ENDCHAR
STARTCHAR 17-19
ENCODING 12595
SWIDTH 1010 0
DWIDTH 20 0
BBX 20 20 0 -3
BITMAP
000c00
880900
fc0f80
890840
89ffe0
892040
892280
893f00
89e080
8920c0
891f80
890000
fb1b00
8a9240
825260
045280
045300
081240
11ffe0
000000
ENDCHAR
STARTCHAR 17-20
ENCODING 12596
SWIDTH 1010 0
DWIDTH 20 0
BBX 20 20 0 -3
BITMAP
008080
88ffc0
fc8080
888080
888080
88ff80
888080
888080
888080
88ff80
888080
888080
888080
f8ff80
888080
800000
006300
00c0c0
010060
060020
ENDCHAR
STARTCHAR 17-21
ENCODING 12597
SWIDTH 1010 0
DWIDTH 20 0
BBX 20 20 0 -3
BITMAP
109100
fc67e0
319180
580360
949540
106100
009000
7fffc0
420840
7fffc0
000000
3f80c0
208080
3fbfe0
208080
3f9080
220880
210880
fe8380
408100
ENDCHAR
STARTCHAR 17-22
ENCODING 12598
SWIDTH 1010 0
DWIDTH 20 0
BBX 20 20 0 -3
BITMAP
030c00
020840
ffffe0
020800
020800
204180
3fe100
204140
205fe0
3fc100
200100
27d100
200900
2fe500
210500
498100
4d4100
512100
a72700
020200
ENDCHAR
STARTCHAR 17-23
ENCODING 12599
SWIDTH 1010 0
DWIDTH 20 0
BBX 20 20 0 -3
BITMAP
302080
243fc0
3e2080
243f80
4a2080
7f3f80
d24040
527fe0
525240
7e5240
527fc0
520000
520040
7effe0
422080
001100
aa0a00
aa0e00
aa31e0
81c040
ENDCHAR
STARTCHAR 17-24
ENCODING 12600
SWIDTH 1010 0
DWIDTH 20 0
BBX 20 20 0 -3
BITMAP
180c00
100840
100860
107fc0
110880
ff8900
220a00
220c40
22ffe0
220800
441000
443080
6461c0
99a600
8c3800
122000
122040
222040
403060
801fc0
ENDCHAR
STARTCHAR 17-25
ENCODING 12601
SWIDTH 1010 0
DWIDTH 20 0
BBX 20 20 0 -3
BITMAP
200040
3fffe0
200000
244880
27efc0
244900
244900
27c900
244900
244940
27dfe0
244200
240380
250300
248500
444500
45c940
5e4940
881160
0060c0
ENDCHAR
STARTCHAR 17-26
ENCODING 12602
SWIDTH 1010 0
DWIDTH 20 0
BBX 20 20 0 -3
BITMAP
200d00
100880
080880
080800
01ffe0
840800
448840
24ffe0
288840
088840
08ffc0
108840
908840
608840
20ffc0
208840
208840
208840
208bc0
208880
ENDCHAR
STARTCHAR 17-27
ENCODING 12603
SWIDTH 1010 0
DWIDTH 20 0
BBX 20 20 0 -3
BITMAP
000400
001f00
087000
0fc400
084400
084400
084400
084400
084200
084200
084200
104200
104100
105100
104900
204480
207e80
4f82c0
440260
800040
ENDCHAR
STARTCHAR 17-28
ENCODING 12604
SWIDTH 1010 0
DWIDTH 20 0
BBX 20 20 0 -3
BITMAP
411040
7f9fe0
411040
411040
7f1fc0
411040
411040
7f1fc0
411040
400840
47fc40
404040
405040
43f840
404040
404440
4ffe40
400040
4003c0
400080
ENDCHAR
STARTCHAR 17-29
ENCODING 12605
SWIDTH 1010 0
DWIDTH 20 0
BBX 20 20 0 -3
BITMAP
004200
882300
fc2400
8bffe0
882400
892480
89ffc0
894480
898780
890080
89ff80
890080
89ff80
f90280
880240
83ffe0
008200
004200
005e00
000400
ENDCHAR
STARTCHAR 17-30
ENCODING 12606
SWIDTH 1010 0
DWIDTH 20 0
BBX 20 20 0 -3
BITMAP
000000
000200
1fff00
000000
000000
000000
000000
000040
ffffe0
018000
010000
020000
020000
040c00
040200
080100
107f80
ff80c0
600040
000040
ENDCHAR
STARTCHAR 17-31
ENCODING 12607
SWIDTH 1010 0
DWIDTH 20 0
BBX 20 20 0 -3
BITMAP
000000
410040
21ffe0
130040
120c80
000800
01ffc0
100800
f8ff80
108880
10ff80
108880
10ff80
108880
100840
13ffe0
100800
280800
470000
80ffe0
ENDCHAR
STARTCHAR 17-32
ENCODING 12608
SWIDTH 1010 0
DWIDTH 20 0
BBX 20 20 0 -3
BITMAP
000100
1fff80
404040
7fffe0
c04040
9e4f40
004000
1e4f00
004000
000100
3fff80
000000
000040
ffffe0
060000
040400
080200
103f00
7fc080
300080
ENDCHAR
STARTCHAR 17-33
ENCODING 12609
SWIDTH 1010 0
DWIDTH 20 0
BBX 20 20 0 -3
BITMAP
030c00
020840
ffffe0
020800
020800
080100
0c0780
181c00
10e800
300800
380800
500840
53ffe0
900800
100800
100800
100800
100880
11ffc0
100000
ENDCHAR
STARTCHAR 17-34
ENCODING 12610
SWIDTH 1010 0
DWIDTH 20 0
BBX 20 20 0 -3
BITMAP
0c0040
087fe0
161080
111080
309080
2c9f80
481080
491080
bf9080
211f80
3f1080
211080
211080
3f10e0
201780
227880
212080
278080
f88080
408080
ENDCHAR
STARTCHAR 17-35
ENCODING 12611
SWIDTH 1010 0
DWIDTH 20 0
BBX 20 20 0 -3
BITMAP
0a0000
0f0040
48bfe0
7fd040
809040
bf10c0
201080
360880
418980
888900
140500
230600
41c200
bf8700
210500
3f0980
210880
3f10c0
212060
3f4040
ENDCHAR
STARTCHAR 17-36
ENCODING 12612
SWIDTH 1010 0
DWIDTH 20 0
BBX 20 20 0 -3
BITMAP
110200
088300
044400
444840
7fffe0
c00040
880480
0ffe00
080400
080400
0ffc00
08c400
008000
210100
3fff80
200100
200100
200100
3fff00
200100
ENDCHAR
STARTCHAR 17-37
ENCODING 12613
SWIDTH 1010 0
DWIDTH 20 0
BBX 20 20 0 -3
BITMAP
411040
7f9fe0
411040
7f1fc0
411040
7f1fc0
411040
7f1fc0
240900
320c80
421040
80a040
010000
ffffe0
020400
040800
0fd000
083e00
03c380
7c0080
ENDCHAR
STARTCHAR 17-38
ENCODING 12614
SWIDTH 1010 0
DWIDTH 20 0
BBX 20 20 0 -3
BITMAP
208080
3fc0c0
208180
3f8300
208400
3f9800
040040
044060
ffe0c0
000100
3f8200
208400
209840
3f8060
0400c0
250080
348100
448200
9c8c00
083000
ENDCHAR
STARTCHAR 17-39
ENCODING 12615
SWIDTH 1010 0
DWIDTH 20 0
BBX 20 20 0 -3
BITMAP
000c00
000800
880800
fc8880
88ffc0
888880
888880
888880
888880
f88880
888880
8bffe0
881400
881400
882200
f82100
004180
0080c0
010060
060040
ENDCHAR
STARTCHAR 17-40
ENCODING 12616
SWIDTH 1010 0
DWIDTH 20 0
BBX 20 20 0 -3
BITMAP
006000
004000
204080
3fffc0
204080
204080
3fff80
204080
204080
204080
3fff80
202000
202100
002380
001600
000840
003440
00c340
0701e0
f80060
ENDCHAR
STARTCHAR 17-41
ENCODING 12617
SWIDTH 1010 0
DWIDTH 20 0
BBX 20 20 0 -3
BITMAP
108200
084300
044600
044400
400840
7fffe0
c00040
806080
004000
004040
ffffe0
00e000
00d000
014800
024400
044200
084180
3040e0
c04040
004000
ENDCHAR
STARTCHAR 17-42
ENCODING 12618
SWIDTH 1010 0
DWIDTH 20 0
BBX 20 20 0 -3
BITMAP
038000
007000
001800
000800
004000
1fe000
004080
0041c0
014300
7fe400
016800
025000
024800
044400
044300
084180
1040e0
204040
c3c000
008000
ENDCHAR
STARTCHAR 17-43
ENCODING 12619
SWIDTH 1010 0
DWIDTH 20 0
BBX 20 20 0 -3
BITMAP
207000
100e00
080200
080000
000800
85fc40
440860
2408c0
282c80
0bfd00
082d00
102a00
904a00
604900
208880
2088c0
210860
220840
207800
201000
ENDCHAR
STARTCHAR 17-44
ENCODING 12620
SWIDTH 1010 0
DWIDTH 20 0
BBX 20 20 0 -3
BITMAP
200c00
100800
090840
09ffe0
810840
410840
25ffc0
250840
090840
090840
09ffc0
110840
900900
500580
600600
200400
200a40
203140
20c0c0
270060
ENDCHAR
STARTCHAR 17-45
ENCODING 12621
SWIDTH 1010 0
DWIDTH 20 0
BBX 20 20 0 -3
BITMAP
003300
082240
fdffe0
202200
202200
200800
200800
208880
f8ffc0
208880
208880
208880
23ffe0
281400
301400
e02200
404100
008180
0100e0
060040
ENDCHAR
STARTCHAR 17-46
ENCODING 12622
SWIDTH 1010 0
DWIDTH 20 0
BBX 20 20 0 -3
BITMAP
000200
7fff00
080200
080240
0827e0
1ff440
102040
2640c0
218080
466780
982100
000000
100100
1fff80
111100
111100
111100
111140
ffffe0
000000
ENDCHAR
STARTCHAR 17-47
ENCODING 12623
SWIDTH 1010 0
DWIDTH 20 0
BBX 20 20 0 -3
BITMAP
600040
427fe0
470600
780400
412880
41bfc0
3f2080
002080
023f80
0f2080
782080
083f80
092080
ffa080
1c3f80
1a2080
291300
491880
882040
08c040
ENDCHAR
STARTCHAR 17-48
ENCODING 12624
SWIDTH 1010 0
DWIDTH 20 0
BBX 20 20 0 -3
BITMAP
600040
427fe0
470600
780400
412880
41bfc0
3f2080
002080
023f80
7f2080
002080
013f80
ffa080
082080
4a3f80
692080
491300
891880
382040
10c040
ENDCHAR
STARTCHAR 17-49
ENCODING 12625
SWIDTH 1010 0
DWIDTH 20 0
BBX 20 20 0 -3
BITMAP
060600
040400
040440
ffffe0
040400
046400
004000
084200
0fff00
084200
084200
084200
084240
ffffe0
01a000
031000
060c00
080700
3001e0
c00040
ENDCHAR
STARTCHAR 17-50
ENCODING 12626
SWIDTH 1010 0
DWIDTH 20 0
BBX 20 20 0 -3
BITMAP
10c080
1883c0
109000
23f800
211000
411000
97fc40
1803e0
33f080
221080
621080
63f080
a04080
204080
23f080
214080
214080
27f880
204380
204100
ENDCHAR
STARTCHAR 17-51
ENCODING 12627
SWIDTH 1010 0
DWIDTH 20 0
BBX 20 20 0 -3
BITMAP
107000
780e00
000200
080000
fc0800
01fc40
100860
7808c0
002c80
13fd00
782d00
002a00
884a00
fc4900
888880
8888c0
890860
8a0840
f87800
881000
ENDCHAR
STARTCHAR 17-52
ENCODING 12628
SWIDTH 1010 0
DWIDTH 20 0
BBX 20 20 0 -3
BITMAP
184100
102180
281300
241200
428480
42ffc0
808080
7e8080
108080
148080
feff80
10a480
142400
962400
542400
584400
124440
1c8440
f10460
4203c0
ENDCHAR
STARTCHAR 17-53
ENCODING 12629
SWIDTH 1010 0
DWIDTH 20 0
BBX 20 20 0 -3
BITMAP
200c00
100800
080840
0bffe0
804400
446600
24c440
288fe0
098840
099440
129280
14aa80
a0c900
608500
608500
208200
208500
208980
2090e0
20a040
ENDCHAR
STARTCHAR 17-54
ENCODING 12630
SWIDTH 1010 0
DWIDTH 20 0
BBX 20 20 0 -3
BITMAP
003000
102040
1fffe0
900000
508400
50fe00
508400
108440
108440
310460
d603c0
500200
17ff00
210200
208400
204800
403000
40ce00
8301e0
1c0040
ENDCHAR
STARTCHAR 17-55
ENCODING 12631
SWIDTH 1010 0
DWIDTH 20 0
BBX 20 20 0 -3
BITMAP
100400
080600
040c00
041000
002040
ffffe0
011000
020800
040400
080200
100180
2000e0
c00040
1fff00
111100
111100
111100
111140
ffffe0
000000
ENDCHAR
STARTCHAR 17-56
ENCODING 12632
SWIDTH 1010 0
DWIDTH 20 0
BBX 20 20 0 -3
BITMAP
408840
7fcfe0
440840
440840
450840
7f8840
440840
450840
7f8fc0
440a40
440a00
444a00
7fea00
405900
2a5100
aa5080
aad080
a0a040
87a060
014040
ENDCHAR
STARTCHAR 17-57
ENCODING 12633
SWIDTH 1010 0
DWIDTH 20 0
BBX 20 20 0 -3
BITMAP
184100
102180
101300
101200
508480
58ffc0
548080
528080
d28080
908080
10ff80
10a480
102400
102400
102400
104400
104440
108440
110460
1603c0
ENDCHAR
STARTCHAR 17-58
ENCODING 12634
SWIDTH 1010 0
DWIDTH 20 0
BBX 20 20 0 -3
BITMAP
084100
7c7f80
004100
044100
fe7f00
004100
084100
7c7f00
002100
082040
7c7fe0
008040
016840
7c4c40
447040
444440
4446c0
443c80
7c0380
440100
ENDCHAR
STARTCHAR 17-59
ENCODING 12635
SWIDTH 1010 0
DWIDTH 20 0
BBX 20 20 0 -3
BITMAP
0c0680
080440
0a0440
7f4400
087fe0
084400
094440
ffc460
084440
084280
0a4280
6f4b00
485140
486340
49c4c0
689860
586020
480000
470000
80ffe0
ENDCHAR
STARTCHAR 17-60
ENCODING 12636
SWIDTH 1010 0
DWIDTH 20 0
BBX 20 20 0 -3
BITMAP
411040
7f9fe0
411040
411040
7f1fc0
411040
411040
7f1fc0
400040
422040
413040
414040
47f840
440840
440840
47f840
412040
422440
4425c0
581c80
ENDCHAR
STARTCHAR 17-61
ENCODING 12637
SWIDTH 1010 0
DWIDTH 20 0
BBX 20 20 0 -3
BITMAP
180040
11ffe0
101800
145080
fe7fc0
104080
107f80
384080
347f80
324080
327f80
504080
503000
502080
907fc0
10c100
132200
101c00
1063e0
138040
ENDCHAR
STARTCHAR 17-62
ENCODING 12638
SWIDTH 1010 0
DWIDTH 20 0
BBX 20 20 0 -3
BITMAP
200040
3fffe0
200000
284340
2fe220
284220
2fc200
284240
2fdfe0
284200
200200
284600
2fe500
284500
4fc500
484880
4fc880
4848c0
89d060
08a040
ENDCHAR
STARTCHAR 17-63
ENCODING 12639
SWIDTH 1010 0
DWIDTH 20 0
BBX 20 20 0 -3
BITMAP
400040
7fffe0
404040
404040
404040
404040
404040
404040
404040
404040
7fffc0
400040
400040
400040
400040
400040
400040
400040
4003c0
400080
ENDCHAR
STARTCHAR 17-64
ENCODING 12640
SWIDTH 1010 0
DWIDTH 20 0
BBX 20 20 0 -3
BITMAP
400040
7fffe0
404040
404840
47fc40
404040
5fff40
400040
47fc40
440440
440440
47fd40
40c1c0
417240
424c40
444240
584240
404040
7fffc0
400040
ENDCHAR
STARTCHAR 17-65
ENCODING 12641
SWIDTH 1010 0
DWIDTH 20 0
BBX 20 20 0 -3
BITMAP
320040
23ffe0
220000
227f80
224080
2a7f80
fe4080
227f80
221000
221080
22ffc0
222100
227a00
3a4600
e21980
42e080
020000
020040
03ffe0
020000
ENDCHAR
STARTCHAR 17-66
ENCODING 12642
SWIDTH 1010 0
DWIDTH 20 0
BBX 20 20 0 -3
BITMAP
00c000
008000
010040
ffffe0
021000
040800
086400
104300
3fffe0
d04140
104100
1fff00
104100
104100
1fff00
104100
004040
004040
004060
003fc0
ENDCHAR
STARTCHAR 17-67
ENCODING 12643
SWIDTH 1010 0
DWIDTH 20 0
BBX 20 20 0 -3
BITMAP
006000
404040
7fffe0
c00040
880280
0fff00
080200
0ffe00
080200
0ffe00
098200
010040
ffffe0
020400
040800
0f1000
08e000
011e00
060380
780080
ENDCHAR
STARTCHAR 17-68
ENCODING 12644
SWIDTH 1010 0
DWIDTH 20 0
BBX 20 20 0 -3
BITMAP
080080
fc03c0
081e00
08e400
100400
100400
246400
3e4480
4447c0
444400
044400
084400
884400
484400
304440
11ffe0
280000
260000
41c000
803fe0
ENDCHAR
STARTCHAR 17-69
ENCODING 12645
SWIDTH 1010 0
DWIDTH 20 0
BBX 20 20 0 -3
BITMAP
181080
111fc0
1f9080
211080
211080
411780
b21100
0a1000
041040
041040
081060
308fc0
c04000
002000
132180
120040
220420
c20420
820600
01fc00
ENDCHAR
STARTCHAR 17-70
ENCODING 12646
SWIDTH 1010 0
DWIDTH 20 0
BBX 20 20 0 -3
BITMAP
181800
101000
101040
13ffe0
102400
fc2200
104980
1088e0
11ffc0
128880
108880
1cff80
f08880
508880
10ff80
108880
100800
100840
700860
2007c0
ENDCHAR
STARTCHAR 17-71
ENCODING 12647
SWIDTH 1010 0
DWIDTH 20 0
BBX 20 20 0 -3
BITMAP
180080
1007c0
11f900
109180
104a00
fc4a00
11ffc0
101000
101040
13ffe0
102000
1c2100
f07f80
504100
10a200
111400
120800
141700
7061e0
218040
ENDCHAR
STARTCHAR 17-72
ENCODING 12648
SWIDTH 1010 0
DWIDTH 20 0
BBX 20 20 0 -3
BITMAP
206400
104400
084400
084200
80c200
448200
248100
290100
090080
0a00c0
120060
14ff40
b08100
608100
608100
208100
208100
208100
20ff00
208100
ENDCHAR
STARTCHAR 17-73
ENCODING 12649
SWIDTH 1010 0
DWIDTH 20 0
BBX 20 20 0 -3
BITMAP
200c00
100800
090840
09ffe0
830040
420280
207f00
280800
088880
08ffc0
108880
108880
b0ff80
608880
208880
20ff80
202000
203380
20c060
230020
ENDCHAR
STARTCHAR 17-74
ENCODING 12650
SWIDTH 1010 0
DWIDTH 20 0
BBX 20 20 0 -3
BITMAP
006000
084100
084380
104600
60c800
41b000
030c00
040300
180180
e06080
004000
084100
08c180
10a300
e1a400
811000
020c00
040300
1801e0
e00040
ENDCHAR
STARTCHAR 17-75
ENCODING 12651
SWIDTH 1010 0
DWIDTH 20 0
BBX 20 20 0 -3
BITMAP
180c00
100840
101fe0
1010c0
522080
534100
548200
540400
d8d040
909fe0
109040
109040
289040
249fc0
249040
229040
429040
409040
409fc0
809040
ENDCHAR
STARTCHAR 17-76
ENCODING 12652
SWIDTH 1010 0
DWIDTH 20 0
BBX 20 20 0 -3
BITMAP
180040
11ffe0
101200
101200
549240
56ffe0
549240
589240
d09240
90ffc0
108c40
100800
280800
240880
24ffc0
220800
420800
400840
41ffe0
800000
ENDCHAR
STARTCHAR 17-77
ENCODING 12653
SWIDTH 1010 0
DWIDTH 20 0
BBX 20 20 0 -3
BITMAP
030c00
020840
ffffe0
020800
020800
03f800
0c0300
091240
f9fa60
091280
091300
191240
e91240
49f260
0911c0
000000
221080
210840
c08420
808420
ENDCHAR
STARTCHAR 17-78
ENCODING 12654
SWIDTH 1010 0
DWIDTH 20 0
BBX 20 20 0 -3
BITMAP
040c00
860880
44ffc0
280800
100840
11ffe0
280000
488080
88ffc0
148080
148080
24ff80
243400
446440
84c260
074280
0c4100
087980
7bc0e0
110040
ENDCHAR
STARTCHAR 17-79
ENCODING 12655
SWIDTH 1010 0
DWIDTH 20 0
BBX 20 20 0 -3
BITMAP
080080
0c7fc0
100080
a00080
447f80
260080
280080
11ffe0
241200
422a40
fe4a60
529a80
112500
584d00
559480
5424c0
544460
918c40
103800
101000
ENDCHAR
STARTCHAR 17-80
ENCODING 12656
SWIDTH 1010 0
DWIDTH 20 0
BBX 20 20 0 -3
BITMAP
140600
550480
7f8fc0
550880
7f1100
552200
7f5fc0
001240
ff9240
001240
7f1240
411fc0
411040
7f1000
221000
131000
141040
079040
fc1060
200fc0
ENDCHAR
STARTCHAR 17-81
ENCODING 12657
SWIDTH 1010 0
DWIDTH 20 0
BBX 20 20 0 -3
BITMAP
030c00
020800
020840
ffffe0
020800
020800
180000
112080
1fbfc0
212080
212080
412080
a22080
122780
142100
042000
082040
102040
203060
c01fc0
ENDCHAR
STARTCHAR 17-82
ENCODING 12658
SWIDTH 1010 0
DWIDTH 20 0
BBX 20 20 0 -3
BITMAP
020840
ffffe0
020800
400040
7fffe0
404040
47fc40
404040
4ffe40
400040
47fc40
440440
47fc40
40e240
415740
464840
584840
404040
7fffc0
400040
ENDCHAR
STARTCHAR 17-83
ENCODING 12659
SWIDTH 1010 0
DWIDTH 20 0
BBX 20 20 0 -3
BITMAP
000c00
400880
21ffc0
100800
100840
03ffe0
000000
10ff80
f88080
108080
10ff80
101840
102860
104e80
118900
1608c0
100840
280800
470000
80ffe0
ENDCHAR
STARTCHAR 17-84
ENCODING 12660
SWIDTH 1010 0
DWIDTH 20 0
BBX 20 20 0 -3
BITMAP
181a00
101200
281200
241100
422100
422080
8420c0
7e4060
108040
120000
ff2080
103fc0
942080
562080
542080
582080
132080
1c2080
f03f80
402080
ENDCHAR
STARTCHAR 17-85
ENCODING 12661
SWIDTH 1010 0
DWIDTH 20 0
BBX 20 20 0 -3
BITMAP
0c1100
089f80
1fd100
209740
511240
8a1060
04cfc0
190000
effe00
080200
0ffe00
080200
0ffe00
080000
0fff00
080040
2fffe0
249040
c24bc0
824880
ENDCHAR
STARTCHAR 17-86
ENCODING 12662
SWIDTH 1010 0
DWIDTH 20 0
BBX 20 20 0 -3
BITMAP
306000
204000
204080
20ffc0
288000
fd4100
217f80
224100
204100
207f00
204100
210080
2dffc0
f12480
412480
012480
012480
012480
07ffe0
000000
ENDCHAR
STARTCHAR 17-87
ENCODING 12663
SWIDTH 1010 0
DWIDTH 20 0
BBX 20 20 0 -3
BITMAP
0c0600
080400
080400
090a00
ff8a00
081100
081100
091080
1fa0c0
112060
114c40
118200
110100
310100
211800
210400
230200
420100
5e0080
840080
ENDCHAR
STARTCHAR 17-88
ENCODING 12664
SWIDTH 1010 0
DWIDTH 20 0
BBX 20 20 0 -3
BITMAP
200080
10ffc0
080800
080800
001000
841040
45ffe0
242000
282000
084080
087fc0
108080
908080
600080
200080
200180
200100
200300
201e00
200400
ENDCHAR
STARTCHAR 17-89
ENCODING 12665
SWIDTH 1010 0
DWIDTH 20 0
BBX 20 20 0 -3
BITMAP
0c4040
087fe0
684440
484440
4a7fc0
7f4440
484440
484440
887fc0
0a4040
7f0c00
080840
08ffe0
080840
081040
0b1040
0c20c0
f04080
418780
060100
ENDCHAR
STARTCHAR 17-90
ENCODING 12666
SWIDTH 1010 0
DWIDTH 20 0
BBX 20 20 0 -3
BITMAP
000000
420840
7f0fe0
420840
420840
420840
420840
420840
420840
43f840
420840
400040
400040
400040
400040
400040
7fffc0
400040
400000
000000
ENDCHAR
STARTCHAR 17-91
ENCODING 12667
SWIDTH 1010 0
DWIDTH 20 0
BBX 20 20 0 -3
BITMAP
006000
004000
004000
084200
0fff00
084200
084200
084200
084200
084200
084240
ffffe0
00a000
012000
011000
020800
040600
080380
3000e0
c00040
ENDCHAR
STARTCHAR 17-92
ENCODING 12668
SWIDTH 1010 0
DWIDTH 20 0
BBX 20 20 0 -3
BITMAP
008000
00c000
210080
3fffc0
200080
246880
224c80
225080
2ffc80
20e080
215080
224880
2c4880
208080
208080
ffffe0
011000
060e00
1801e0
e00040
ENDCHAR
STARTCHAR 17-93
ENCODING 12669
SWIDTH 1010 0
DWIDTH 20 0
BBX 20 20 0 -3
BITMAP
081000
0c0800
180400
100400
200080
41ffc0
880800
0c0800
180800
100800
300900
50ff80
900800
100800
100800
100800
100800
100840
13ffe0
100000
ENDCHAR
STARTCHAR 17-94
ENCODING 12670
SWIDTH 1010 0
DWIDTH 20 0
BBX 20 20 0 -3
BITMAP
003000
002000
102040
1fffe0
100000
100000
103000
100c00
100600
100200
106000
104000
114180
314040
224060
224020
4c4100
484100
806180
003f00
ENDCHAR
STARTCHAR 18-01
ENCODING 12833
SWIDTH 1010 0
DWIDTH 20 0
BBX 20 20 0 -3
BITMAP
0c4040
087fe0
084440
084440
0a4440
ff4440
087fc0
084440
084440
0b4440
0c4440
387fc0
e84440
480400
080400
080400
080400
080400
780400
100400
ENDCHAR
STARTCHAR 18-02
ENCODING 12834
SWIDTH 1010 0
DWIDTH 20 0
BBX 20 20 0 -3
BITMAP
000080
89ffc0
fc0800
880800
880800
880800
880800
880800
f80900
88ff80
880800
880800
880800
880800
f80800
880800
800800
000840
03ffe0
000000
ENDCHAR
STARTCHAR 18-03
ENCODING 12835
SWIDTH 1010 0
DWIDTH 20 0
BBX 20 20 0 -3
BITMAP
183300
102280
11ffc0
102200
fc2240
13ffe0
300800
388880
34ffc0
348880
548880
50ff80
508880
908880
10ff80
108080
102000
107380
10c060
130020
ENDCHAR
STARTCHAR 18-04
ENCODING 12836
SWIDTH 1010 0
DWIDTH 20 0
BBX 20 20 0 -3
BITMAP
001800
811000
ff9000
801040
823fe0
832440
824480
b24500
8c8400
840400
8a0400
890c00
910a00
a00a00
c01100
811100
ffa080
8020c0
004060
018040
ENDCHAR
STARTCHAR 18-05
ENCODING 12837
SWIDTH 1010 0
DWIDTH 20 0
BBX 20 20 0 -3
BITMAP
001100
811f80
ff9100
801100
821140
832140
822160
b240c0
8c8000
840080
8a7fc0
891080
911100
a00900
c00a00
810400
ff8a00
801180
0060e0
018040
ENDCHAR
STARTCHAR 18-06
ENCODING 12838
SWIDTH 1010 0
DWIDTH 20 0
BBX 20 20 0 -3
BITMAP
000000
000080
7fffc0
004000
004000
004000
004000
004000
004000
004200
1fff00
004000
004000
004000
004000
004000
004000
004040
ffffe0
000000
ENDCHAR
STARTCHAR 18-07
ENCODING 12839
SWIDTH 1010 0
DWIDTH 20 0
BBX 20 20 0 -3
BITMAP
021000
030800
040400
090300
3181e0
c30840
020400
047e00
3f8200
180200
010040
ffbfe0
010040
611840
110440
050140
190640
e13840
4f13c0
020080
ENDCHAR
STARTCHAR 18-08
ENCODING 12840
SWIDTH 1010 0
DWIDTH 20 0
BBX 20 20 0 -3
BITMAP
180800
100c00
109880
14ffc0
fe8080
04c980
0caa80
088880
10ff80
149c80
36ea80
588a80
949080
141040
15ffe0
102400
102200
104180
1080e0
130040
ENDCHAR
STARTCHAR 18-09
ENCODING 12841
SWIDTH 1010 0
DWIDTH 20 0
BBX 20 20 0 -3
BITMAP
088400
044600
044800
401040
7fffe0
c18040
890480
0ffe00
080400
0ffc00
080400
0ffc00
080000
0ffe00
080040
0fffe0
200040
2920c0
c49780
849100
ENDCHAR
STARTCHAR 18-10
ENCODING 12842
SWIDTH 1010 0
DWIDTH 20 0
BBX 20 20 0 -3
BITMAP
000800
820c00
ff5100
807f80
844100
867f00
a44100
947f00
884100
884040
947fe0
944000
a44040
c07fe0
820040
ff5540
805540
00d0c0
008780
000100
ENDCHAR
STARTCHAR 18-11
ENCODING 12843
SWIDTH 1010 0
DWIDTH 20 0
BBX 20 20 0 -3
BITMAP
030c00
020800
020900
3fff80
020800
020840
ffffe0
004000
084200
0fff00
084200
0ffe00
084200
084200
0ffe00
0a0200
031c00
060300
080180
300080
ENDCHAR
STARTCHAR 18-12
ENCODING 12844
SWIDTH 1010 0
DWIDTH 20 0
BBX 20 20 0 -3
BITMAP
400040
7fffe0
400040
440840
420c40
411040
412440
4ffe40
404040
404040
464640
444440
444440
444440
444440
47fc40
440440
400040
4003c0
400080
ENDCHAR
STARTCHAR 18-13
ENCODING 12845
SWIDTH 1010 0
DWIDTH 20 0
BBX 20 20 0 -3
BITMAP
200c00
100800
080800
080800
010840
85ffe0
450840
250840
290840
090840
090840
110840
91ffc0
610840
200800
200800
200800
200800
200800
200800
ENDCHAR
STARTCHAR 18-14
ENCODING 12846
SWIDTH 1010 0
DWIDTH 20 0
BBX 20 20 0 -3
BITMAP
030c00
020840
ffffe0
020800
020800
000000
020600
630400
142440
082460
142480
626500
064a00
0a0a00
121900
221100
c22080
0620c0
3c4060
098040
ENDCHAR
STARTCHAR 18-15
ENCODING 12847
SWIDTH 1010 0
DWIDTH 20 0
BBX 20 20 0 -3
BITMAP
0c0c00
080800
080880
19ffc0
104200
302300
302440
53ffe0
500000
90ff80
108080
10ff80
108080
10ff80
108080
101000
1148c0
114a20
164320
143e00
ENDCHAR
STARTCHAR 18-16
ENCODING 12848
SWIDTH 1010 0
DWIDTH 20 0
BBX 20 20 0 -3
BITMAP
100080
1fffc0
100080
100080
1fff80
100000
100080
1fffc0
10c000
108200
108100
110f80
17f0c0
331840
201000
27ffc0
201000
401040
4fffe0
800000
ENDCHAR
STARTCHAR 18-17
ENCODING 12849
SWIDTH 1010 0
DWIDTH 20 0
BBX 20 20 0 -3
BITMAP
180c00
100800
100880
51ffc0
584200
542300
d42440
93ffe0
900000
10ff80
108080
10ff80
108080
10ff80
108080
101000
1148c0
114a20
164320
143e00
ENDCHAR
STARTCHAR 18-18
ENCODING 12850
SWIDTH 1010 0
DWIDTH 20 0
BBX 20 20 0 -3
BITMAP
240c00
3e0800
240880
25ffc0
244200
242300
3c2440
27ffe0
240000
24ff80
248080
24ff80
3c8080
24ff80
248080
440800
44a4c0
44a520
5da1a0
891f00
ENDCHAR
STARTCHAR 18-19
ENCODING 12851
SWIDTH 1010 0
DWIDTH 20 0
BBX 20 20 0 -3
BITMAP
0c0080
087fc0
080080
0a0100
ff1200
080c00
184440
1c7fe0
1a4440
1a4440
297fc0
294440
484440
484440
887fc0
084440
084440
084440
0845c0
084480
ENDCHAR
STARTCHAR 18-20
ENCODING 12852
SWIDTH 1010 0
DWIDTH 20 0
BBX 20 20 0 -3
BITMAP
0c0c00
080800
680800
480800
4a0800
7f0800
480880
88ffc0
880800
080800
080800
0b0800
0c0800
180800
e80800
480800
080800
080840
09ffe0
080000
ENDCHAR
STARTCHAR 18-21
ENCODING 12853
SWIDTH 1010 0
DWIDTH 20 0
BBX 20 20 0 -3
BITMAP
000400
7ffe00
001800
003000
006000
008000
010000
020000
040000
080000
100000
200000
400000
400000
800000
800040
c00040
700060
1fffc0
000000
ENDCHAR
STARTCHAR 18-22
ENCODING 12854
SWIDTH 1010 0
DWIDTH 20 0
BBX 20 20 0 -3
BITMAP
0c1800
081000
081040
1bffe0
102400
304200
309980
3110e0
57ff40
511100
911100
11ff00
111100
111100
11ff00
111100
101000
101040
101060
100fc0
ENDCHAR
STARTCHAR 18-23
ENCODING 12855
SWIDTH 1010 0
DWIDTH 20 0
BBX 20 20 0 -3
BITMAP
180840
100fe0
308840
3fc840
440840
840840
048840
ffc840
040840
040840
348840
27c840
240840
240840
240bc0
25c880
2e0800
f00800
400800
000800
ENDCHAR
STARTCHAR 18-24
ENCODING 12856
SWIDTH 1010 0
DWIDTH 20 0
BBX 20 20 0 -3
BITMAP
100100
1fff80
100100
106100
104900
17fd00
10a100
109100
110900
160900
100100
1fff00
104100
002000
031080
221040
220220
c20220
830300
01fe00
ENDCHAR
STARTCHAR 18-25
ENCODING 12857
SWIDTH 1010 0
DWIDTH 20 0
BBX 20 20 0 -3
BITMAP
208100
10ff80
088100
088100
00ff00
848100
448100
24ff00
288100
080000
090080
11ffc0
912480
612480
212480
212480
212480
212480
27ffe0
200000
ENDCHAR
STARTCHAR 18-26
ENCODING 12858
SWIDTH 1010 0
DWIDTH 20 0
BBX 20 20 0 -3
BITMAP
040080
1e0fc0
f1f880
1090c0
104900
144a00
fe0080
10ffc0
100080
30ff80
380080
34ff80
321080
520800
500480
516440
914120
164120
144180
103f00
ENDCHAR
STARTCHAR 18-27
ENCODING 12859
SWIDTH 1010 0
DWIDTH 20 0
BBX 20 20 0 -3
BITMAP
006000
004000
004080
7fffc0
080400
040600
020400
020840
ffffe0
000000
080200
0fff00
080200
080200
0ffe00
080200
080200
080200
0ffe00
080200
ENDCHAR
STARTCHAR 18-28
ENCODING 12860
SWIDTH 1010 0
DWIDTH 20 0
BBX 20 20 0 -3
BITMAP
000000
000040
ffffe0
004000
004000
004000
004000
006000
005800
004400
004600
004200
004000
004000
004000
004000
004000
004000
004000
004000
ENDCHAR
STARTCHAR 18-29
ENCODING 12861
SWIDTH 1010 0
DWIDTH 20 0
BBX 20 20 0 -3
BITMAP
031800
021000
061000
041000
0c1000
081080
1811c0
181300
281400
481800
881000
081000
081000
081000
081000
081000
081040
081040
081860
080fc0
ENDCHAR
STARTCHAR 18-30
ENCODING 12862
SWIDTH 1010 0
DWIDTH 20 0
BBX 20 20 0 -3
BITMAP
0c0000
088040
08ffe0
188000
108000
108000
308080
30ffc0
50a080
50a080
91a100
111100
111200
110a00
120c00
120c00
141200
182180
10c0e0
130040
ENDCHAR
STARTCHAR 18-31
ENCODING 12863
SWIDTH 1010 0
DWIDTH 20 0
BBX 20 20 0 -3
BITMAP
0c0000
080040
09ffe0
180080
100080
108880
30fc80
308880
508880
508880
908880
108880
10f880
108880
108080
100080
100080
100080
100780
100100
ENDCHAR
STARTCHAR 18-32
ENCODING 12864
SWIDTH 1010 0
DWIDTH 20 0
BBX 20 20 0 -3
BITMAP
0cc000
088000
088440
1887e0
109440
17fc40
309440
309440
509440
509440
909440
109440
109440
119440
111440
111440
111440
1227c0
12e440
144400
ENDCHAR
STARTCHAR 18-33
ENCODING 12865
SWIDTH 1010 0
DWIDTH 20 0
BBX 20 20 0 -3
BITMAP
0c0000
080040
0bffe0
182400
102400
102400
312480
31ffc0
512480
512480
912480
112480
112480
112480
112480
112480
112480
112480
11ff80
110080
ENDCHAR
STARTCHAR 18-34
ENCODING 12866
SWIDTH 1010 0
DWIDTH 20 0
BBX 20 20 0 -3
BITMAP
0c0c00
080800
080800
180880
10ffc0
100800
300800
300800
500840
53ffe0
900000
100c00
100800
100880
10ffc0
100800
100800
100800
100840
13ffe0
ENDCHAR
STARTCHAR 18-35
ENCODING 12867
SWIDTH 1010 0
DWIDTH 20 0
BBX 20 20 0 -3
BITMAP
0c0000
080000
080840
080fe0
088840
ffc840
088840
088840
088840
088840
088840
188840
108840
108840
108840
208840
218840
410fc0
4f0840
820800
ENDCHAR
STARTCHAR 18-36
ENCODING 12868
SWIDTH 1010 0
DWIDTH 20 0
BBX 20 20 0 -3
BITMAP
000040
ffffe0
000100
000100
000100
104100
1fe100
104100
104100
104100
104100
104100
1fc100
104100
100100
000100
000100
000100
000f00
000200
ENDCHAR
STARTCHAR 18-37
ENCODING 12869
SWIDTH 1010 0
DWIDTH 20 0
BBX 20 20 0 -3
BITMAP
006000
004040
ffffe0
004000
3fff80
000000
1fff00
100100
1fff00
040800
020c00
021040
ffffe0
040000
041080
7f9fc0
089080
109080
279f80
c11080
ENDCHAR
STARTCHAR 18-38
ENCODING 12870
SWIDTH 1010 0
DWIDTH 20 0
BBX 20 20 0 -3
BITMAP
000040
ffffe0
00c000
088200
0fff00
080200
0ffe00
080200
0ffe00
080200
0ffe00
0b0200
020400
07fe00
0a0800
311000
c0e000
019c00
0e07c0
700100
ENDCHAR
STARTCHAR 18-39
ENCODING 12871
SWIDTH 1010 0
DWIDTH 20 0
BBX 20 20 0 -3
BITMAP
180600
100400
104440
107fe0
24c040
fe8140
247f80
240a00
441240
442a60
48c940
880d80
e81500
906480
098c80
1414c0
246460
218440
401c00
800800
ENDCHAR
STARTCHAR 18-40
ENCODING 12872
SWIDTH 1010 0
DWIDTH 20 0
BBX 20 20 0 -3
BITMAP
006000
004000
404040
7fffe0
c00040
800480
1ffe00
019000
031040
0c90e0
304980
00ea00
032400
0c2400
70e200
01a300
062180
1820c0
e1e080
004000
ENDCHAR
STARTCHAR 18-41
ENCODING 12873
SWIDTH 1010 0
DWIDTH 20 0
BBX 20 20 0 -3
BITMAP
006000
404040
7fffe0
c00040
9fff40
008000
0ffe00
080200
0ffe00
080200
0ffe00
080240
ffffe0
040800
080600
1ffd80
2084e0
c10440
063c00
380800
ENDCHAR
STARTCHAR 18-42
ENCODING 12874
SWIDTH 1010 0
DWIDTH 20 0
BBX 20 20 0 -3
BITMAP
020180
0f0100
783100
080900
080900
090100
ff8100
080100
186100
1c1100
1a1100
2b0100
290140
2901e0
481f00
88e100
080100
080100
080100
080100
ENDCHAR
STARTCHAR 18-43
ENCODING 12875
SWIDTH 1010 0
DWIDTH 20 0
BBX 20 20 0 -3
BITMAP
022040
93f7e0
fa2040
922040
922040
922040
93e7c0
922040
f20000
920040
93efe0
920440
920440
920280
924280
f3e100
920380
0204c0
021860
026040
ENDCHAR
STARTCHAR 18-44
ENCODING 12876
SWIDTH 1010 0
DWIDTH 20 0
BBX 20 20 0 -3
BITMAP
100100
1fff80
104100
104100
104100
1fff00
104100
104100
104100
1fff00
104100
004040
ffffe0
01d000
034800
064600
084380
3040e0
c04040
004000
ENDCHAR
STARTCHAR 18-45
ENCODING 12877
SWIDTH 1010 0
DWIDTH 20 0
BBX 20 20 0 -3
BITMAP
0c0000
080840
088fe0
ffc840
088840
088840
108840
108840
210fc0
470840
820000
006000
004040
ffffe0
01d000
034c00
0c4300
3041e0
c04040
004000
ENDCHAR
STARTCHAR 18-46
ENCODING 12878
SWIDTH 1010 0
DWIDTH 20 0
BBX 20 20 0 -3
BITMAP
011800
ff9000
021000
7a1040
4a3fe0
7a2440
4a6480
024500
0e8400
050400
ff8c00
020a00
7a0a00
4a0a00
4a1100
7a1100
4a2080
0220c0
0e4060
048040
ENDCHAR
STARTCHAR 18-47
ENCODING 12879
SWIDTH 1010 0
DWIDTH 20 0
BBX 20 20 0 -3
BITMAP
200000
100040
09ffe0
080100
000100
848900
44fd00
248900
288900
088900
088900
908900
50f900
708900
208100
200100
200100
200100
200f00
200200
ENDCHAR
STARTCHAR 18-48
ENCODING 12880
SWIDTH 1010 0
DWIDTH 20 0
BBX 20 20 0 -3
BITMAP
006000
004000
004000
004000
004000
084080
0840c0
084180
084100
10c200
30a200
61a400
411000
021000
020800
040400
080600
100380
2000e0
c00040
ENDCHAR
STARTCHAR 18-49
ENCODING 12881
SWIDTH 1010 0
DWIDTH 20 0
BBX 20 20 0 -3
BITMAP
000000
040040
feffe0
100080
100080
104480
107e80
144480
fe4480
104480
104480
107c80
104480
104080
1e0080
f00080
400080
000080
000780
000100
ENDCHAR
STARTCHAR 18-50
ENCODING 12882
SWIDTH 1010 0
DWIDTH 20 0
BBX 20 20 0 -3
BITMAP
184100
107f80
104100
144100
fe4900
044f00
044900
084900
094940
11ffe0
190040
352240
553f40
952240
112240
113e40
112240
112040
1103c0
110080
ENDCHAR
STARTCHAR 18-51
ENCODING 12883
SWIDTH 1010 0
DWIDTH 20 0
BBX 20 20 0 -3
BITMAP
000600
003f00
1fe000
004000
004000
004000
004000
004040
ffffe0
00e000
00d000
014800
024400
044200
084180
1040e0
204040
c04000
004000
004000
ENDCHAR
STARTCHAR 18-52
ENCODING 12884
SWIDTH 1010 0
DWIDTH 20 0
BBX 20 20 0 -3
BITMAP
040600
1e0400
f08440
10ffe0
118040
150140
fe7f80
100a00
301240
382a60
34c940
320d80
521500
506480
518c80
9014c0
106460
118440
101c00
100800
ENDCHAR
STARTCHAR 18-53
ENCODING 12885
SWIDTH 1010 0
DWIDTH 20 0
BBX 20 20 0 -3
BITMAP
180c00
110840
3f9fe0
482400
844200
240280
3fffc0
200080
206080
204480
2ffe80
204080
23f880
220880
220880
23f880
220880
200080
3fff80
200080
ENDCHAR
STARTCHAR 18-54
ENCODING 12886
SWIDTH 1010 0
DWIDTH 20 0
BBX 20 20 0 -3
BITMAP
030c00
020800
020840
ffffe0
020800
020800
000000
063000
042000
0c2080
0821c0
182300
282400
483800
882000
082000
082040
082040
083060
081fc0
ENDCHAR
STARTCHAR 18-55
ENCODING 12887
SWIDTH 1010 0
DWIDTH 20 0
BBX 20 20 0 -3
BITMAP
060c00
040800
040840
ffffe0
040800
040800
000040
ffffe0
000200
104200
1fe200
104200
104200
104200
1fc200
104200
100200
000200
001e00
000400
ENDCHAR
STARTCHAR 18-56
ENCODING 12888
SWIDTH 1010 0
DWIDTH 20 0
BBX 20 20 0 -3
BITMAP
030c00
020800
020840
ffffe0
020800
020800
080000
080840
088fe0
ffc840
088840
088840
088840
188840
108840
108840
218840
210840
4f0fc0
820840
ENDCHAR
STARTCHAR 18-57
ENCODING 12889
SWIDTH 1010 0
DWIDTH 20 0
BBX 20 20 0 -3
BITMAP
030c00
020800
020840
ffffe0
020800
020800
180000
100040
13ffe0
300100
211100
61f900
611100
a11100
211100
21f100
211100
200100
200f00
200200
ENDCHAR
STARTCHAR 18-58
ENCODING 12890
SWIDTH 1010 0
DWIDTH 20 0
BBX 20 20 0 -3
BITMAP
030c00
020840
ffffe0
020800
020800
000080
7fffc0
084200
084240
ffffe0
084200
084280
7fffc0
004000
004080
7fffc0
004000
004000
004000
004000
ENDCHAR
STARTCHAR 18-59
ENCODING 12891
SWIDTH 1010 0
DWIDTH 20 0
BBX 20 20 0 -3
BITMAP
030c00
020840
ffffe0
020800
020800
080200
0fff00
084200
0ffe00
084200
0ffe00
084200
004040
ffffe0
00e000
015800
064700
1841e0
e04040
004000
ENDCHAR
STARTCHAR 18-60
ENCODING 12892
SWIDTH 1010 0
DWIDTH 20 0
BBX 20 20 0 -3
BITMAP
312040
21f7e0
212040
a92040
fd2040
a92040
a9e7c0
a92040
a90000
a90040
f9efe0
a90440
210440
290280
25e280
3d0100
e50280
4504c0
010860
013040
ENDCHAR
STARTCHAR 18-61
ENCODING 12893
SWIDTH 1010 0
DWIDTH 20 0
BBX 20 20 0 -3
BITMAP
084040
7c7fe0
004440
044440
fe7fc0
004440
084440
7c4440
007fc0
084440
7c0400
000440
84ffe0
fe0e00
840d00
841480
8424c0
844460
fd8440
840400
ENDCHAR
STARTCHAR 18-62
ENCODING 12894
SWIDTH 1010 0
DWIDTH 20 0
BBX 20 20 0 -3
BITMAP
003300
882240
fdffe0
882200
882200
880080
89ffc0
884900
884940
8bffe0
884900
884900
89ffc0
f80800
880880
81ffc0
000800
000800
000800
000800
ENDCHAR
STARTCHAR 18-63
ENCODING 12895
SWIDTH 1010 0
DWIDTH 20 0
BBX 20 20 0 -3
BITMAP
023080
0721c0
0c2600
383840
c82040
082060
081fc0
000000
080200
0fff00
080200
0ffe00
080200
0ffe00
080200
0ffe00
0a0200
033c00
0c0380
700080
ENDCHAR
STARTCHAR 18-64
ENCODING 12896
SWIDTH 1010 0
DWIDTH 20 0
BBX 20 20 0 -3
BITMAP
00c000
408000
208440
1097e0
17fc40
009440
009440
109440
f89440
119440
111440
111440
111440
123440
1227c0
14e440
104000
280000
470000
80ffe0
ENDCHAR
STARTCHAR 18-65
ENCODING 12897
SWIDTH 1010 0
DWIDTH 20 0
BBX 20 20 0 -3
BITMAP
004100
407f80
204100
104900
104f00
004900
014940
11ffe0
f90040
113e40
112240
112240
112240
113e40
112240
110040
1103c0
280080
470000
80ffe0
ENDCHAR
STARTCHAR 18-66
ENCODING 12898
SWIDTH 1010 0
DWIDTH 20 0
BBX 20 20 0 -3
BITMAP
000100
1fff80
404040
7fffe0
c04040
9f5f40
004000
1f5f00
400040
7f3fe0
410040
410040
7f3fc0
400080
7f3fc0
401080
420900
7f0600
4019e0
40e040
ENDCHAR
STARTCHAR 18-67
ENCODING 12899
SWIDTH 1010 0
DWIDTH 20 0
BBX 20 20 0 -3
BITMAP
180600
100400
100400
920400
ff0440
92ffe0
922080
922080
922080
921100
fe1100
920a00
100e00
140400
120a00
170900
191180
e120c0
404060
018040
ENDCHAR
STARTCHAR 18-68
ENCODING 12900
SWIDTH 1010 0
DWIDTH 20 0
BBX 20 20 0 -3
BITMAP
0c4500
08e480
1b8440
108440
308400
208440
27ffe0
608200
608240
a08260
208240
20b2c0
20c280
278100
228140
208340
2082c0
208440
238860
213020
ENDCHAR
STARTCHAR 18-69
ENCODING 12901
SWIDTH 1010 0
DWIDTH 20 0
BBX 20 20 0 -3
BITMAP
302500
207480
21c440
204440
ac4400
a84440
abffe0
a84200
a84240
a84260
a84240
a852c0
a86280
abc100
f94140
884340
8042c0
004440
01c860
009020
ENDCHAR
STARTCHAR 18-70
ENCODING 12902
SWIDTH 1010 0
DWIDTH 20 0
BBX 20 20 0 -3
BITMAP
011900
039080
7c1040
081040
081000
081040
ffffe0
081000
081080
0810c0
099180
0e0900
180a00
e80600
480400
080a40
081140
0820c0
38c060
130060
ENDCHAR
STARTCHAR 18-71
ENCODING 12903
SWIDTH 1010 0
DWIDTH 20 0
BBX 20 20 0 -3
BITMAP
040100
07ff80
040800
040800
040800
040800
040800
040800
040840
ffffe0
003800
006800
008800
010800
020800
0c0800
300800
c00800
007800
001000
ENDCHAR
STARTCHAR 18-72
ENCODING 12904
SWIDTH 1010 0
DWIDTH 20 0
BBX 20 20 0 -3
BITMAP
000040
ffffe0
004000
004000
004000
644460
47fe40
444440
444440
444440
47fc40
444440
444440
444440
47fc40
440440
440040
400040
7fffc0
400040
ENDCHAR
STARTCHAR 18-73
ENCODING 12905
SWIDTH 1010 0
DWIDTH 20 0
BBX 20 20 0 -3
BITMAP
408600
7fc400
440400
440400
440400
440400
448400
7fc400
408c00
408a00
408a00
7f8a00
448a00
441900
441100
441080
44a080
7fe0c0
404060
408040
ENDCHAR
STARTCHAR 18-74
ENCODING 12906
SWIDTH 1010 0
DWIDTH 20 0
BBX 20 20 0 -3
BITMAP
030c00
020840
ffffe0
020800
020800
000100
3fff80
080400
080400
080400
080440
ffffe0
000c00
001400
006400
008400
030400
1c0400
e03c00
000800
ENDCHAR
STARTCHAR 18-75
ENCODING 12907
SWIDTH 1010 0
DWIDTH 20 0
BBX 20 20 0 -3
BITMAP
302500
207480
21c440
a84440
fc4400
a84440
abffe0
a84200
a84240
a84260
a84240
f852c0
a86280
23c100
294140
244340
3c42c0
e44440
45c860
009020
ENDCHAR
STARTCHAR 18-76
ENCODING 12908
SWIDTH 1010 0
DWIDTH 20 0
BBX 20 20 0 -3
BITMAP
0c0000
081080
089fc0
7fd080
109080
109080
109f80
271080
420200
0fff00
080200
0ffe00
080200
0ffe00
080200
0ffe00
020200
073800
0c0780
700180
ENDCHAR
STARTCHAR 18-77
ENCODING 12909
SWIDTH 1010 0
DWIDTH 20 0
BBX 20 20 0 -3
BITMAP
021100
ff1980
243300
242200
244440
247fe0
24a200
252200
242280
ff3fc0
0c2200
0c2200
142280
143fc0
242200
242200
442200
842240
1c3fe0
082000
ENDCHAR
STARTCHAR 18-78
ENCODING 12910
SWIDTH 1010 0
DWIDTH 20 0
BBX 20 20 0 -3
BITMAP
181280
103a40
28e220
242220
422200
5a2220
91ffe0
7c2200
442240
7c2260
442240
7c2ac0
443280
41e100
40a140
482140
4422c0
5c22c0
e4e460
404820
ENDCHAR
STARTCHAR 18-79
ENCODING 12911
SWIDTH 1010 0
DWIDTH 20 0
BBX 20 20 0 -3
BITMAP
0c1040
089fe0
ffd040
089040
109040
109040
219fc0
4f1040
820200
0fff00
084000
0ffe00
084000
0ffe00
084040
0fffe0
200040
2920c0
c49780
849100
ENDCHAR
STARTCHAR 18-80
ENCODING 12912
SWIDTH 1010 0
DWIDTH 20 0
BBX 20 20 0 -3
BITMAP
006000
004000
00a000
011000
020800
040400
080300
3001e0
c60c40
040800
040800
040800
040800
040800
040800
080800
080800
100800
200800
400800
ENDCHAR
STARTCHAR 18-81
ENCODING 12913
SWIDTH 1010 0
DWIDTH 20 0
BBX 20 20 0 -3
BITMAP
006000
00c000
01a000
031000
040c00
080300
3009e0
cffc40
000000
000000
000080
7fffc0
018000
010000
020800
020400
040200
087f00
3f8100
180100
ENDCHAR
STARTCHAR 18-82
ENCODING 12914
SWIDTH 1010 0
DWIDTH 20 0
BBX 20 20 0 -3
BITMAP
180040
123fe0
3f0440
220440
448840
7fc840
a493c0
24a080
248600
3fb400
24a480
24bfc0
24c400
3f8400
208440
20ffe0
208400
408400
478400
810400
ENDCHAR
STARTCHAR 18-83
ENCODING 12915
SWIDTH 1010 0
DWIDTH 20 0
BBX 20 20 0 -3
BITMAP
400040
7fffe0
400040
400040
400040
420840
43fc40
420840
420840
420840
420840
420840
420840
43f840
420840
400040
400040
400040
7fffc0
400040
ENDCHAR
STARTCHAR 18-84
ENCODING 12916
SWIDTH 1010 0
DWIDTH 20 0
BBX 20 20 0 -3
BITMAP
181000
101800
103000
112100
11ff80
151100
ff1100
11ff00
111100
111100
11ff00
104980
164900
184940
e08a20
408ae0
010f20
020a40
040c60
1807c0
ENDCHAR
STARTCHAR 18-85
ENCODING 12917
SWIDTH 1010 0
DWIDTH 20 0
BBX 20 20 0 -3
BITMAP
180600
100400
100440
11ffe0
140400
feffc0
109240
109240
109240
10ffc0
100800
160840
19ffe0
f02440
404460
01c280
064100
007880
03c0e0
010040
ENDCHAR
STARTCHAR 18-86
ENCODING 12918
SWIDTH 1010 0
DWIDTH 20 0
BBX 20 20 0 -3
BITMAP
088040
fcffe0
088040
088040
109240
109f40
249240
3e9240
449240
449240
049240
449e40
449240
a88040
a88040
10ffc0
288040
260000
41c000
803fe0
ENDCHAR
STARTCHAR 18-87
ENCODING 12919
SWIDTH 1010 0
DWIDTH 20 0
BBX 20 20 0 -3
BITMAP
181800
101000
101000
101100
51ff80
581100
541100
521100
d21100
901140
13ffe0
102800
102800
106400
104400
108200
108100
110080
1200e0
140040
ENDCHAR
STARTCHAR 18-88
ENCODING 12920
SWIDTH 1010 0
DWIDTH 20 0
BBX 20 20 0 -3
BITMAP
180000
100100
11ff80
104100
582200
541400
520800
521400
d02300
90c0e0
131840
101000
101100
11ff80
101000
101000
101000
101040
17ffe0
100000
ENDCHAR
STARTCHAR 18-89
ENCODING 12921
SWIDTH 1010 0
DWIDTH 20 0
BBX 20 20 0 -3
BITMAP
186000
104000
104040
10ffe0
108000
514080
587fc0
544880
524880
d24880
904880
13ffe0
109080
109080
109080
109080
10ffc0
108100
100f00
100200
ENDCHAR
STARTCHAR 18-90
ENCODING 12922
SWIDTH 1010 0
DWIDTH 20 0
BBX 20 20 0 -3
BITMAP
190040
11ffe0
110000
110600
510400
592440
552460
5524c0
d52480
916500
114400
110c00
130a00
120a00
121100
141100
142080
1840c0
108060
130040
ENDCHAR
STARTCHAR 18-91
ENCODING 12923
SWIDTH 1010 0
DWIDTH 20 0
BBX 20 20 0 -3
BITMAP
180600
100400
100440
13ffe0
500400
58ffc0
549240
529240
529240
d0ffc0
900800
100840
13ffe0
102440
104460
11c280
164100
107880
13c0e0
110040
ENDCHAR
STARTCHAR 18-92
ENCODING 12924
SWIDTH 1010 0
DWIDTH 20 0
BBX 20 20 0 -3
BITMAP
001a00
001100
001100
001040
ffffe0
001000
199080
1110c0
111080
111980
ffe900
110b00
110a00
110400
110c00
211240
212240
404140
8180e0
060060
ENDCHAR
STARTCHAR 18-93
ENCODING 12925
SWIDTH 1010 0
DWIDTH 20 0
BBX 20 20 0 -3
BITMAP
184080
107fc0
104080
104080
144080
fe4080
107f80
104080
100000
100040
1effe0
f01040
501040
102040
102040
1040c0
104080
108180
f10f00
260200
ENDCHAR
STARTCHAR 18-94
ENCODING 12926
SWIDTH 1010 0
DWIDTH 20 0
BBX 20 20 0 -3
BITMAP
003000
022000
ff2000
022000
022040
027fe0
824100
fe4100
82a100
80a200
811200
821400
800c00
820800
820c00
831200
7e2100
004180
0180e0
060040
ENDCHAR
STARTCHAR 19-01
ENCODING 13089
SWIDTH 1010 0
DWIDTH 20 0
BBX 20 20 0 -3
BITMAP
080180
0c1100
510900
7f8500
490500
492100
7f1100
490900
490940
4901e0
7f0f00
147100
148100
148100
350100
254100
27e140
452040
440060
83ffc0
ENDCHAR
STARTCHAR 19-02
ENCODING 13090
SWIDTH 1010 0
DWIDTH 20 0
BBX 20 20 0 -3
BITMAP
006000
884000
fc4080
88ffc0
888000
894100
8a7f80
884900
f84900
884900
884940
8bffe0
889100
889100
f89100
889100
80ff80
008200
001e00
000400
ENDCHAR
STARTCHAR 19-03
ENCODING 13091
SWIDTH 1010 0
DWIDTH 20 0
BBX 20 20 0 -3
BITMAP
1802c0
100220
100220
100200
15ffe0
fe0200
105a00
105200
385240
345260
35fe40
5452c0
505280
505180
909100
109140
111340
1204c0
101860
10e020
ENDCHAR
STARTCHAR 19-04
ENCODING 13092
SWIDTH 1010 0
DWIDTH 20 0
BBX 20 20 0 -3
BITMAP
203000
102000
082040
087fe0
004000
80a080
453fc0
242480
242480
082480
082480
19ffe0
104880
b04880
604880
204880
207fc0
204100
200f00
200200
ENDCHAR
STARTCHAR 19-05
ENCODING 13093
SWIDTH 1010 0
DWIDTH 20 0
BBX 20 20 0 -3
BITMAP
100040
1fffe0
100000
101800
101000
101040
111060
1110c0
111080
321100
263100
242a00
202800
204400
204400
208200
410100
420180
8c00e0
300040
ENDCHAR
STARTCHAR 19-06
ENCODING 13094
SWIDTH 1010 0
DWIDTH 20 0
BBX 20 20 0 -3
BITMAP
100100
1fff80
104100
104100
1fff00
104100
104100
104100
1fff00
111100
020800
060600
1a05e0
e20440
020400
040400
040400
080400
100400
200400
ENDCHAR
STARTCHAR 19-07
ENCODING 13095
SWIDTH 1010 0
DWIDTH 20 0
BBX 20 20 0 -3
BITMAP
181800
101080
1111c0
1f9300
101c00
101040
101040
1f1060
f04fc0
406000
008000
090200
0fff00
080200
080200
0ffe00
080200
080200
0ffe00
080200
ENDCHAR
STARTCHAR 19-08
ENCODING 13096
SWIDTH 1010 0
DWIDTH 20 0
BBX 20 20 0 -3
BITMAP
080e00
0c0c00
180a00
101a00
a21100
473100
2c2080
2840c0
128260
213f40
ff0000
490040
08ffe0
4a1800
691100
491080
492080
8827c0
08f840
086040
ENDCHAR
STARTCHAR 19-09
ENCODING 13097
SWIDTH 1010 0
DWIDTH 20 0
BBX 20 20 0 -3
BITMAP
060600
040440
ffffe0
040400
046400
004000
00a000
011000
020c00
0c0300
3001e0
c60c40
040800
040800
040800
040800
080800
080800
100800
200800
ENDCHAR
STARTCHAR 19-10
ENCODING 13098
SWIDTH 1010 0
DWIDTH 20 0
BBX 20 20 0 -3
BITMAP
120040
1f3fe0
228440
7fc840
a4b0c0
3f8300
249200
249fc0
3fa200
40ffe0
438200
810200
204080
3fffc0
204080
3fff80
204100
004080
ffffc0
300040
ENDCHAR
STARTCHAR 19-11
ENCODING 13099
SWIDTH 1010 0
DWIDTH 20 0
BBX 20 20 0 -3
BITMAP
411040
7f9fe0
411040
411040
7f1fc0
411040
411040
7f1fc0
411040
400840
47fc40
411040
411040
411440
4ffe40
411040
421040
421040
4413c0
481080
ENDCHAR
STARTCHAR 19-12
ENCODING 13100
SWIDTH 1010 0
DWIDTH 20 0
BBX 20 20 0 -3
BITMAP
88c600
fc8440
88a460
90f580
908600
a08440
908440
90b460
8bc3c0
850800
840c00
849080
84ffc0
f88080
908080
80ff80
808080
808080
80ff80
808080
ENDCHAR
STARTCHAR 19-13
ENCODING 13101
SWIDTH 1010 0
DWIDTH 20 0
BBX 20 20 0 -3
BITMAP
080200
0fff00
080200
080200
080200
0ffe00
080200
080200
080200
0ffe00
080200
080200
080200
0ffe00
080200
020000
031c00
040380
1800c0
e00040
ENDCHAR
STARTCHAR 19-14
ENCODING 13102
SWIDTH 1010 0
DWIDTH 20 0
BBX 20 20 0 -3
BITMAP
060880
646fc0
444880
444880
7fc880
404880
000880
ffe880
000880
7fc880
404880
404880
7fc880
210880
118880
110880
1210a0
07d0a0
fc20a0
404060
ENDCHAR
STARTCHAR 19-15
ENCODING 13103
SWIDTH 1010 0
DWIDTH 20 0
BBX 20 20 0 -3
BITMAP
060600
040400
048400
ffc400
0c0440
083fe0
520440
230440
160440
140440
090440
118440
230c40
c20840
040840
0a08c0
111080
219080
c0a780
004100
ENDCHAR
STARTCHAR 19-16
ENCODING 13104
SWIDTH 1010 0
DWIDTH 20 0
BBX 20 20 0 -3
BITMAP
0c0600
080400
088400
1fc400
108400
30a400
20a400
209400
508c00
898600
0d0580
0504e0
020440
040400
040400
080400
100400
200400
400400
800400
ENDCHAR
STARTCHAR 19-17
ENCODING 13105
SWIDTH 1010 0
DWIDTH 20 0
BBX 20 20 0 -3
BITMAP
000c00
880800
fc0840
8bffe0
880800
880c00
880800
885100
882180
881200
881400
880880
8810c0
f82100
884200
818400
000b00
0010c0
006060
038020
ENDCHAR
STARTCHAR 19-18
ENCODING 13106
SWIDTH 1010 0
DWIDTH 20 0
BBX 20 20 0 -3
BITMAP
006000
004000
404040
7fffe0
c00040
806080
004200
1fff00
004000
0ffe00
004080
7fffc0
000000
080200
0fff00
080200
080200
080200
0ffe00
080200
ENDCHAR
STARTCHAR 19-19
ENCODING 13107
SWIDTH 1010 0
DWIDTH 20 0
BBX 20 20 0 -3
BITMAP
003000
1820c0
102080
1fff80
200040
3fffe0
200000
203000
202100
27ff80
202000
202080
2fffc0
202000
202100
47ff80
402000
402040
9fffe0
000000
ENDCHAR
STARTCHAR 19-20
ENCODING 13108
SWIDTH 1010 0
DWIDTH 20 0
BBX 20 20 0 -3
BITMAP
324080
23efc0
224480
a24480
b24480
abc480
aa4480
a24480
a24480
23dfe0
224100
220100
2281c0
224280
222280
22e480
2f24a0
2408a0
2010a0
202060
ENDCHAR
STARTCHAR 19-21
ENCODING 13109
SWIDTH 1010 0
DWIDTH 20 0
BBX 20 20 0 -3
BITMAP
192080
11f7c0
112280
152280
ff2280
11e280
312280
312280
392280
35efe0
552100
550100
5141c0
912280
111280
117480
1794a0
1208a0
1010a0
102060
ENDCHAR
STARTCHAR 19-22
ENCODING 13110
SWIDTH 1010 0
DWIDTH 20 0
BBX 20 20 0 -3
BITMAP
208040
10ffe0
088000
088600
008400
848480
44bfc0
248400
288400
088440
08ffe0
108000
908600
718400
210480
213fc0
210400
220400
220440
24ffe0
ENDCHAR
STARTCHAR 19-23
ENCODING 13111
SWIDTH 1010 0
DWIDTH 20 0
BBX 20 20 0 -3
BITMAP
002080
013fc0
7fa080
082080
083f80
182080
102080
113f80
3fa080
310040
51ffe0
510100
910140
11ffe0
114100
1f2100
111100
101100
000700
000200
ENDCHAR
STARTCHAR 19-24
ENCODING 13112
SWIDTH 1010 0
DWIDTH 20 0
BBX 20 20 0 -3
BITMAP
030c00
020840
ffffe0
020800
026800
004100
3fff80
004040
ffffe0
018200
030100
043f80
3fc080
0c0080
100100
1fff80
111100
111140
ffffe0
000000
ENDCHAR
STARTCHAR 19-25
ENCODING 13113
SWIDTH 1010 0
DWIDTH 20 0
BBX 20 20 0 -3
BITMAP
18c080
1083c0
30a000
23f000
408000
408040
9897e0
17f880
300080
20c080
608080
60a080
a3f080
208080
208080
209880
20e080
278080
220780
200100
ENDCHAR
STARTCHAR 19-26
ENCODING 13114
SWIDTH 1010 0
DWIDTH 20 0
BBX 20 20 0 -3
BITMAP
080600
7c0400
000440
05ffe0
fe0800
000c00
080800
7c5100
002180
081200
7c1400
000880
8410c0
fe2100
844200
858400
840b00
8410c0
fc6060
858020
ENDCHAR
STARTCHAR 19-27
ENCODING 13115
SWIDTH 1010 0
DWIDTH 20 0
BBX 20 20 0 -3
BITMAP
180600
106460
2c4440
224440
417fc0
414040
840000
7effe0
100000
147fc0
fe4040
104040
147fc0
960100
542180
581300
131200
1c0440
f1ffe0
400000
ENDCHAR
STARTCHAR 19-28
ENCODING 13116
SWIDTH 1010 0
DWIDTH 20 0
BBX 20 20 0 -3
BITMAP
110300
1f8200
110200
170240
153fe0
554300
7fe200
404400
915480
1f88c0
110900
110240
1f0460
110880
113100
1f0200
110580
110840
171020
126020
ENDCHAR
STARTCHAR 19-29
ENCODING 13117
SWIDTH 1010 0
DWIDTH 20 0
BBX 20 20 0 -3
BITMAP
208080
10ffc0
088880
088880
008880
84ff80
448880
248880
288880
08ff80
088880
100800
900880
61ffc0
200800
200800
200800
200840
23ffe0
200000
ENDCHAR
STARTCHAR 19-30
ENCODING 13118
SWIDTH 1010 0
DWIDTH 20 0
BBX 20 20 0 -3
BITMAP
040880
7fcfc0
0408a0
3f90e0
002100
3f9f80
248900
3f8600
4009e0
803040
1ffe00
004040
ffffe0
064400
184300
effee0
080240
0ffe00
080200
0ffe00
ENDCHAR
STARTCHAR 19-31
ENCODING 13119
SWIDTH 1010 0
DWIDTH 20 0
BBX 20 20 0 -3
BITMAP
180600
100400
100480
103fc0
920400
ff0400
920400
920440
927fe0
920000
920600
fe0400
920480
103fc0
140400
120400
130400
1d0440
f17fe0
400000
ENDCHAR
STARTCHAR 19-32
ENCODING 13120
SWIDTH 1010 0
DWIDTH 20 0
BBX 20 20 0 -3
BITMAP
180080
11ffc0
100000
100000
144100
fe7f80
104100
104100
104100
107f00
104100
104100
1e4100
f04100
407f00
004100
000000
000040
03ffe0
000000
ENDCHAR
STARTCHAR 19-33
ENCODING 13121
SWIDTH 1010 0
DWIDTH 20 0
BBX 20 20 0 -3
BITMAP
0c0600
080400
080440
08ffe0
0a0000
ff0600
080400
184440
1c7fe0
1a4440
294440
294440
484440
484440
884440
0845c0
080480
080400
080400
080400
ENDCHAR
STARTCHAR 19-34
ENCODING 13122
SWIDTH 1010 0
DWIDTH 20 0
BBX 20 20 0 -3
BITMAP
0c2040
083fe0
082000
492000
7fa040
493fe0
492400
492400
492440
7f27e0
492440
486440
0a4440
094840
0f4840
f94840
4090c0
009080
012780
004100
ENDCHAR
STARTCHAR 19-35
ENCODING 13123
SWIDTH 1010 0
DWIDTH 20 0
BBX 20 20 0 -3
BITMAP
183000
102000
282000
242040
427fe0
424040
844040
7e9040
111840
101040
ff1440
102240
942e40
56f240
544240
580080
130080
1c0080
f00f00
400200
ENDCHAR
STARTCHAR 19-36
ENCODING 13124
SWIDTH 1010 0
DWIDTH 20 0
BBX 20 20 0 -3
BITMAP
060060
044040
7fe640
044440
fff440
044440
7fc440
040440
7fc440
040440
ffe440
000440
7fc440
444440
7fc440
444040
7fc040
000040
ffe3c0
200080
ENDCHAR
STARTCHAR 19-37
ENCODING 13125
SWIDTH 1010 0
DWIDTH 20 0
BBX 20 20 0 -3
BITMAP
018180
a10100
f14140
a7e7e0
a10100
a10100
a10100
a14140
afefe0
a28280
a28280
eacac0
aaaaa0
8aaaa0
1aaaa0
128280
048680
048480
0b8b80
111100
ENDCHAR
STARTCHAR 19-38
ENCODING 13126
SWIDTH 1010 0
DWIDTH 20 0
BBX 20 20 0 -3
BITMAP
030000
020000
060400
07fe00
0c0c00
120800
211000
c0a000
004000
01b000
060e00
1803e0
e00040
0ffe00
080200
080200
080200
080200
0ffe00
080200
ENDCHAR
STARTCHAR 19-39
ENCODING 13127
SWIDTH 1010 0
DWIDTH 20 0
BBX 20 20 0 -3
BITMAP
006000
004000
204040
3fffe0
210000
212440
2ff7e0
200440
27e480
242500
27e500
200480
204440
2fe420
208420
410420
5fe7c0
490480
810400
070400
ENDCHAR
STARTCHAR 19-40
ENCODING 13128
SWIDTH 1010 0
DWIDTH 20 0
BBX 20 20 0 -3
BITMAP
180c00
100800
100800
110840
11ffe0
fd0000
110800
110c00
110800
110800
1d1800
f11100
511080
132080
122040
122040
124040
1447e0
75fc20
28c020
ENDCHAR
STARTCHAR 19-41
ENCODING 13129
SWIDTH 1010 0
DWIDTH 20 0
BBX 20 20 0 -3
BITMAP
189100
104980
104900
110240
fdffe0
130040
128140
10ff80
108100
10ff00
1c8100
f0ff00
508100
108100
10ff00
10a500
102440
104440
718460
2603c0
ENDCHAR
STARTCHAR 19-42
ENCODING 13130
SWIDTH 1010 0
DWIDTH 20 0
BBX 20 20 0 -3
BITMAP
183000
102100
103f80
144100
fe4300
10a200
309600
390c00
340c00
321200
522180
5040e0
518040
907f80
104080
104080
104080
104080
107f80
104080
ENDCHAR
STARTCHAR 19-43
ENCODING 13131
SWIDTH 1010 0
DWIDTH 20 0
BBX 20 20 0 -3
BITMAP
180600
100400
100440
11ffe0
140800
fe0c00
100800
105100
382180
341200
321400
320880
5010c0
502100
504200
918400
100b00
1010c0
106060
118020
ENDCHAR
STARTCHAR 19-44
ENCODING 13132
SWIDTH 1010 0
DWIDTH 20 0
BBX 20 20 0 -3
BITMAP
0c1100
081f80
091100
ff9100
081140
081140
0a2160
7f20c0
004000
410040
7fbfe0
c10840
820880
3c0480
240500
250200
250500
458980
4330e0
80c040
ENDCHAR
STARTCHAR 19-45
ENCODING 13133
SWIDTH 1010 0
DWIDTH 20 0
BBX 20 20 0 -3
BITMAP
041080
86ffe0
441080
286600
104440
10ffe0
294400
4a7fc0
884400
147fc0
144400
247fe0
244000
440080
84ffc0
0c2100
081200
180c00
f033e0
21c040
ENDCHAR
STARTCHAR 19-46
ENCODING 13134
SWIDTH 1010 0
DWIDTH 20 0
BBX 20 20 0 -3
BITMAP
000600
020400
ff4440
107fe0
10c840
108880
301200
221300
3f2440
627fe0
62a400
a32480
223fc0
222400
222480
3e3fc0
222400
202440
003fe0
002000
ENDCHAR
STARTCHAR 19-47
ENCODING 13135
SWIDTH 1010 0
DWIDTH 20 0
BBX 20 20 0 -3
BITMAP
041080
1effe0
f01080
106600
104440
10ffe0
fd4400
107fc0
304400
387fc0
344400
367fe0
524000
500080
90ffc0
102180
101100
100e00
1033e0
11c040
ENDCHAR
STARTCHAR 19-48
ENCODING 13136
SWIDTH 1010 0
DWIDTH 20 0
BBX 20 20 0 -3
BITMAP
110200
088700
044400
444840
7fffe0
c00040
880480
0ffe00
080400
0ffc00
080400
0ffc00
080400
0ffc00
092400
012000
022040
042040
182060
e01fc0
ENDCHAR
STARTCHAR 19-49
ENCODING 13137
SWIDTH 1010 0
DWIDTH 20 0
BBX 20 20 0 -3
BITMAP
030000
020400
07fe00
080800
181080
6fffc0
082080
082080
082080
0fff80
082080
082080
082080
1fff80
100080
100080
300080
200080
400780
800100
ENDCHAR
STARTCHAR 19-50
ENCODING 13138
SWIDTH 1010 0
DWIDTH 20 0
BBX 20 20 0 -3
BITMAP
0c0300
080200
0a0280
7f1fc0
080200
080200
080200
090240
ffbfe0
140500
551540
549540
549520
549520
541520
942500
140500
240900
240900
4c1300
ENDCHAR
STARTCHAR 19-51
ENCODING 13139
SWIDTH 1010 0
DWIDTH 20 0
BBX 20 20 0 -3
BITMAP
180600
100400
120440
ff7fe0
101000
921980
ff2040
922020
924020
fe0100
921080
921100
fe0900
920a00
100400
120600
ff0900
101180
1020e0
10c040
ENDCHAR
STARTCHAR 19-52
ENCODING 13140
SWIDTH 1010 0
DWIDTH 20 0
BBX 20 20 0 -3
BITMAP
0c1040
081fe0
089040
ffd080
001100
3f1200
211200
211100
3f1080
021040
7f1040
021020
041020
081020
0f93c0
f81080
481000
081000
381000
101000
ENDCHAR
STARTCHAR 19-53
ENCODING 13141
SWIDTH 1010 0
DWIDTH 20 0
BBX 20 20 0 -3
BITMAP
411040
7f9fe0
411040
411040
7f1fc0
411040
411040
7f1fc0
400040
411040
41f840
421040
452040
58c040
413040
460f40
5bfa40
420840
43fbc0
420880
ENDCHAR
STARTCHAR 19-54
ENCODING 13142
SWIDTH 1010 0
DWIDTH 20 0
BBX 20 20 0 -3
BITMAP
880040
fdffe0
880000
904100
907f80
a04100
c04100
a07f00
910040
91ffe0
892440
892540
8925c0
f94340
918040
817f40
810840
810840
810bc0
810880
ENDCHAR
STARTCHAR 19-55
ENCODING 13143
SWIDTH 1010 0
DWIDTH 20 0
BBX 20 20 0 -3
BITMAP
030c00
020800
020840
ffffe0
020800
020800
03f800
024800
084200
0fff00
084200
084200
0ffe00
084200
004040
ffffe0
004000
004000
004000
004000
ENDCHAR
STARTCHAR 19-56
ENCODING 13144
SWIDTH 1010 0
DWIDTH 20 0
BBX 20 20 0 -3
BITMAP
110400
088700
044400
444840
7fffe0
400040
c00880
8ffd00
000800
001000
002000
004000
004080
7fffc0
004000
004000
004000
004000
03c000
008000
ENDCHAR
STARTCHAR 19-57
ENCODING 13145
SWIDTH 1010 0
DWIDTH 20 0
BBX 20 20 0 -3
BITMAP
000800
001c00
08e000
0f0000
080100
0fff80
080800
080800
080800
080840
ffffe0
000000
006000
3040c0
204080
204080
204080
204080
3fff80
200080
ENDCHAR
STARTCHAR 19-58
ENCODING 13146
SWIDTH 1010 0
DWIDTH 20 0
BBX 20 20 0 -3
BITMAP
004000
406040
2288e0
13fd80
120a00
020800
03f800
0a0900
1208c0
e3f860
420820
006000
004040
ffffe0
01e000
035800
0c4700
3041e0
c04040
004000
ENDCHAR
STARTCHAR 19-59
ENCODING 13147
SWIDTH 1010 0
DWIDTH 20 0
BBX 20 20 0 -3
BITMAP
060040
043fe0
448300
7fc200
c09440
989fe0
111040
3f9040
211fc0
521040
8c1040
131fc0
20d040
df5040
111fc0
111040
110880
110c40
1f1020
116020
ENDCHAR
STARTCHAR 19-60
ENCODING 13148
SWIDTH 1010 0
DWIDTH 20 0
BBX 20 20 0 -3
BITMAP
000040
f7bfe0
948300
948200
949440
f79fe0
001040
021040
7f1fc0
001040
011040
ff9fc0
201040
211040
7f9fc0
411040
010880
020c40
1e1020
046020
ENDCHAR
STARTCHAR 19-61
ENCODING 13149
SWIDTH 1010 0
DWIDTH 20 0
BBX 20 20 0 -3
BITMAP
186180
104100
104100
11f100
104100
fc4100
105100
13f980
100140
106120
1c4120
f04100
51f100
104100
104100
104100
107900
13c100
710100
200100
ENDCHAR
STARTCHAR 19-62
ENCODING 13150
SWIDTH 1010 0
DWIDTH 20 0
BBX 20 20 0 -3
BITMAP
180c00
110840
3f9fe0
482400
844200
040200
006000
004000
004100
3fff80
000000
080400
040600
040c00
020800
021000
021000
002040
ffffe0
000000
ENDCHAR
STARTCHAR 19-63
ENCODING 13151
SWIDTH 1010 0
DWIDTH 20 0
BBX 20 20 0 -3
BITMAP
322000
23f040
224fe0
224440
fbf440
221280
221280
73f100
6a5100
6a4280
6a4c60
a3f040
a20000
200c00
200880
21ffc0
200800
200840
23ffe0
200000
ENDCHAR
STARTCHAR 19-64
ENCODING 13152
SWIDTH 1010 0
DWIDTH 20 0
BBX 20 20 0 -3
BITMAP
180040
11ffe0
100000
107f80
144880
fe7f80
104880
307f80
380040
35ffe0
320000
527f80
504880
507f80
904880
107f80
104080
100040
11ffe0
100000
ENDCHAR
STARTCHAR 19-65
ENCODING 13153
SWIDTH 1010 0
DWIDTH 20 0
BBX 20 20 0 -3
BITMAP
188080
10ffc0
108080
108080
148080
feff80
108080
308200
388700
348c00
32b400
528500
508780
50bc00
918480
1107c0
117c00
120440
120460
1403c0
ENDCHAR
STARTCHAR 19-66
ENCODING 13154
SWIDTH 1010 0
DWIDTH 20 0
BBX 20 20 0 -3
BITMAP
302180
287100
7dc100
484100
504940
fc4560
544540
55f540
544580
7cc100
54e100
54d100
555280
7d4280
424280
004480
aa4440
aa4840
a84860
805040
ENDCHAR
STARTCHAR 19-67
ENCODING 13155
SWIDTH 1010 0
DWIDTH 20 0
BBX 20 20 0 -3
BITMAP
201000
109880
08e7c0
088080
008080
84f780
448080
248080
28ff80
08a080
083000
104040
90ffe0
710040
260a40
20aa40
20aac0
232080
220780
200100
ENDCHAR
STARTCHAR 19-68
ENCODING 13156
SWIDTH 1010 0
DWIDTH 20 0
BBX 20 20 0 -3
BITMAP
060060
040040
444640
7fe440
c04440
864440
040440
3f8440
040440
3f8440
040440
7fc440
000440
208440
3fc440
208040
208040
208040
3f83c0
208080
ENDCHAR
STARTCHAR 19-69
ENCODING 13157
SWIDTH 1010 0
DWIDTH 20 0
BBX 20 20 0 -3
BITMAP
008100
00ff80
888100
fc8100
88ff00
888100
888100
88ff00
884100
884040
88ffe0
890040
8ac840
f89c40
88e040
008440
0086c0
007c80
000380
000100
ENDCHAR
STARTCHAR 19-70
ENCODING 13158
SWIDTH 1010 0
DWIDTH 20 0
BBX 20 20 0 -3
BITMAP
180c00
100800
101400
101400
582200
542200
524100
524080
d080c0
917f60
120040
100000
104100
107f80
104100
104100
104100
104100
107f00
104100
ENDCHAR
STARTCHAR 19-71
ENCODING 13159
SWIDTH 1010 0
DWIDTH 20 0
BBX 20 20 0 -3
BITMAP
180080
1007c0
10fc00
100800
140800
fe0800
100840
11ffe0
100800
100800
1c0800
f08880
50ffc0
108080
108080
108080
108080
108080
70ff80
208080
ENDCHAR
ENDFONT
